<svg width="1920" height="74" viewBox="0 0 1920 74" fill="none" xmlns="http://www.w3.org/2000/svg">
<path d="M1919.25 54.1495C1918.4 48.7822 1893.16 50.3477 1887.6 50.3477C1872.62 51.9131 1855.94 48.7822 1841.83 51.2422C1831.13 53.255 1821.72 55.715 1810.6 55.4913C1801.19 51.0186 1791.35 56.3859 1782.37 54.8204C1776.38 53.9259 1770.39 50.124 1763.97 51.6895C1761.84 51.4659 1760.98 51.4659 1759.27 51.0186C1757.99 51.2422 1757.56 51.6895 1755.85 49.2295C1751.57 51.2422 1741.73 49.0058 1737.45 49.2295C1731.46 48.3349 1726.76 49.2295 1721.2 51.2422C1716.07 53.0313 1713.5 56.3859 1706.65 53.255C1702.38 55.4913 1685.27 55.2677 1680.99 52.8077C1678.42 49.2295 1680.13 50.5713 1678.85 49.4531C1677.57 48.3349 1674.57 46.3222 1671.58 46.5458C1663.02 43.6385 1648.48 43.1912 1638.64 45.8749C1625.81 43.6385 1610.41 41.8494 1598 45.4276C1593.73 45.4276 1593.73 46.7694 1589.02 50.3477C1585.6 54.5968 1581.75 50.124 1577.9 50.7949C1571.91 50.3477 1560.79 51.0186 1555.23 51.2422C1549.67 53.9259 1549.67 53.255 1542.82 54.5968C1528.71 55.9386 1514.59 54.1495 1501.33 55.4913C1492.77 56.8332 1482.08 54.3732 1473.1 55.715C1461.55 63.3187 1444.87 51.6895 1436.31 58.175C1433.32 60.4114 1431.6 63.9896 1426.9 61.7532C1424.33 61.306 1421.77 63.0951 1419.2 63.766C1409.36 64.4369 1403.8 59.5168 1394.39 61.7532C1390.11 57.2805 1385.41 60.635 1380.7 61.7532C1374.71 62.6478 1366.59 61.9769 1361.02 61.9769C1356.75 64.4369 1354.18 63.0951 1349.05 65.3314C1345.2 66.6733 1341.35 64.2133 1337.07 65.5551C1325.95 66.0024 1313.97 60.8587 1302.42 64.2133C1293.01 66.4496 1283.17 68.4624 1273.33 68.0151C1274.62 61.5296 1238.69 69.1333 1230.99 64.4369C1219.01 61.306 1207.89 67.3442 1196.34 67.3442C1186.5 73.3824 1177.09 66.0024 1166.82 68.2387C1159.55 69.3569 1154.84 69.3569 1148.43 66.8969C1144.58 65.1078 1146.72 65.3314 1142.44 65.5551C1141.16 59.7405 1139.02 64.8842 1137.73 65.5551C1131.32 62.6478 1124.05 67.1206 1118.06 65.5551C1113.35 67.3442 1109.93 66.0024 1106.08 68.9097C1099.24 67.7915 1091.96 71.3697 1083.84 72.0406C1072.29 71.817 1060.74 70.4751 1050.04 73.1588C1041.06 75.3952 1030.79 71.146 1022.24 70.9224C1017.53 68.4624 1016.25 69.8042 1012.4 69.1333C1010.26 69.5806 1008.12 65.7787 1005.98 68.2387C999.995 69.5806 993.579 70.0279 987.59 68.2387C981.602 64.4369 975.613 70.0279 969.625 68.4624C962.78 75.1715 957.22 66.226 950.803 65.7787C938.826 67.1206 925.565 68.2387 913.588 65.7787C908.883 66.4496 902.894 65.5551 898.189 65.5551C893.056 65.5551 892.628 62.8714 888.35 61.306C880.223 57.5041 865.679 64.2133 856.696 60.8587C851.991 62.4241 849.424 57.5041 844.291 59.5168C835.736 57.9514 836.591 58.8459 830.175 56.1623C822.903 51.9131 808.787 55.2677 801.515 56.6095C795.954 60.635 792.96 58.3986 790.393 59.7405C787.827 60.1878 787.399 62.6478 782.266 65.3314C777.988 65.7787 774.566 70.9224 769.005 69.8042C762.589 72.2642 758.311 68.4624 753.178 68.686C745.479 63.9896 733.501 68.0151 725.374 68.686C713.824 70.0279 702.703 67.7915 691.153 68.686C683.026 66.0024 674.898 68.4624 667.199 68.686C662.921 68.4624 654.366 69.8042 654.794 66.4496C646.666 64.6605 637.255 65.5551 628.7 66.0024C627.845 63.3187 629.556 60.8587 628.272 59.9641C620.573 61.9769 612.873 55.4913 604.746 57.0568C599.185 56.3859 593.196 60.4114 587.635 57.0568C574.375 55.9386 561.542 59.0696 548.281 57.0568C543.148 56.6095 539.726 56.3859 535.449 55.715C528.604 54.1495 524.327 50.3477 516.627 53.255C509.355 52.3604 502.083 54.5968 495.239 53.9259C486.684 53.9259 489.678 52.1368 483.69 51.9131C479.412 48.7822 470.857 53.4786 466.152 51.9131C458.024 56.3859 449.897 49.2295 442.197 51.9131C435.353 53.255 434.925 53.0313 429.792 55.715C424.659 53.9259 416.959 57.0568 410.971 58.3986C404.126 60.8587 398.566 57.5041 391.721 59.9641C387.016 59.2932 385.305 63.3187 380.6 60.1878C377.178 60.4114 375.894 59.2932 373.328 56.8332C370.333 51.9131 369.05 54.3732 365.2 55.9386C360.495 54.8204 356.217 57.2805 351.512 55.9386C346.379 58.6223 341.246 52.3604 336.113 55.9386C330.98 54.1495 323.28 56.1623 319.002 56.1623C314.725 57.2805 312.158 56.6095 307.453 53.255C302.32 51.6895 299.753 49.0058 294.192 53.255C283.07 56.1623 276.226 57.7277 262.538 59.9641C253.555 58.3986 244.572 62.2005 235.589 59.9641C227.89 58.8459 221.901 64.4369 214.201 61.306C207.785 61.7532 201.796 60.635 195.38 61.306C189.391 60.635 183.403 58.3986 177.414 61.306C173.564 61.306 166.72 59.9641 163.298 62.4241C153.887 67.5678 147.471 68.0151 136.777 68.9097C131.216 69.1333 126.083 71.817 120.522 69.1333C116.244 66.6733 111.967 70.2515 107.689 71.3697C97.4228 72.4879 85.0178 71.3697 78.6014 66.8969C70.474 61.306 59.78 61.5296 46.9472 61.7532C40.9586 63.9896 35.8255 60.4114 29.8368 60.4114C28.5536 62.8714 25.987 61.5296 24.7037 60.635C22.5649 60.4114 22.9927 60.1878 21.2816 58.8459C11.8709 55.0441 2.03246 54.3732 -6.52273 60.635C-6.52273 60.4114 -9.51705 52.3604 -12.5114 47.2167C-15.5057 40.9548 -18.5 34.4693 -18.5 33.7984C-11.2281 36.2584 -3.95618 41.1785 3.7435 41.6258C8.02109 40.7312 17.8596 43.8621 22.1372 41.6258C28.9813 40.9548 33.2589 36.9293 39.6753 39.8366C46.0917 38.0475 52.9359 36.7057 59.3522 40.0603C66.1964 41.6258 70.9017 49.9004 78.6014 45.6512C89.7232 45.8749 96.5673 46.3222 105.55 50.5713C114.533 54.8204 129.077 50.3477 139.343 47.664C148.754 46.9931 159.02 43.6385 168.859 46.9931C178.697 45.6512 188.536 46.0985 197.946 44.9803C208.64 40.0603 218.907 37.8239 231.312 39.3894C242.433 40.5076 252.272 42.9676 263.394 39.1657C268.527 42.9676 272.804 39.3894 277.937 38.0475C289.487 36.9293 300.181 35.8111 310.875 34.022C319.858 32.6802 324.563 25.9711 333.118 26.642C339.535 20.3801 346.379 29.3256 352.795 26.642C359.212 28.4311 364.345 25.9711 371.189 23.7347C377.178 27.0892 383.166 22.3928 389.155 23.9583C400.704 23.511 417.387 22.1692 427.653 25.5238C431.075 23.7347 432.786 23.9583 436.636 28.8784C441.342 28.8784 446.902 25.9711 451.608 29.102C457.596 29.102 459.735 33.5748 465.296 31.7857C467.863 34.022 470.429 32.0093 472.996 32.0093C474.279 32.0093 476.418 29.9965 478.557 34.693C483.262 34.9166 489.678 32.4566 494.811 36.4821C499.089 38.0475 502.939 41.1785 507.216 37.6003C512.35 34.9166 513.633 31.1147 520.049 32.9038C523.899 33.3511 526.466 34.4693 529.032 36.7057C535.021 41.6258 544.432 37.153 551.703 37.8239C566.675 39.613 581.219 41.8494 596.19 37.8239C600.04 38.4948 603.035 37.6003 606.457 38.2712C612.018 41.6258 611.59 39.8366 617.578 41.6258C627.845 41.4021 638.539 37.3766 648.805 40.2839C654.366 44.9803 659.499 40.7312 665.06 41.6258C668.482 39.8366 673.187 40.0603 676.181 42.073C680.031 44.0858 678.32 45.6512 680.887 47.8876C684.737 50.3477 698.425 50.7949 705.269 49.2295C711.686 44.5331 718.102 46.5458 724.091 49.2295C733.501 51.2422 740.345 49.9004 748.045 46.5458C752.75 39.3894 754.889 44.7567 759.595 42.9676C764.3 44.3094 767.294 39.3894 771.144 40.0603C777.988 36.9293 786.971 40.2839 796.382 36.2584C805.793 34.9166 815.203 33.3511 823.759 36.7057C834.453 35.5875 845.147 37.6003 854.985 38.0475C860.118 41.6258 859.69 40.7312 865.251 39.1657C870.812 39.8366 872.951 40.2839 877.228 41.6258C884.5 37.153 893.911 38.4948 902.039 41.8494C909.738 40.2839 917.01 41.6258 924.71 41.8494C934.976 43.6385 945.67 39.8366 956.792 39.3894C967.914 42.2967 978.607 43.8621 988.446 41.8494C991.44 44.5331 993.579 42.9676 996.146 45.4276C996.573 43.1912 1001.28 47.664 1001.28 48.1113C1007.27 50.7949 1013.26 46.9931 1019.24 47.2167C1026.94 45.8749 1033.36 49.6767 1040.2 44.5331C1045.34 43.4149 1050.47 41.6258 1056.89 38.4948C1063.73 38.0475 1070.15 38.4948 1076.14 39.8366C1082.55 40.0603 1085.55 40.0603 1091.11 37.3766C1094.1 34.2457 1094.1 32.9039 1098.38 36.0348C1103.09 34.022 1107.36 43.1912 1112.07 40.9548C1118.06 42.9676 1125.76 41.1785 1132.17 41.8494C1141.16 40.7312 1150.57 35.3639 1159.98 40.7312C1169.39 42.073 1178.8 39.1657 1188.21 40.9548C1192.06 37.3766 1200.19 44.0858 1203.18 41.1785C1206.18 42.7439 1206.18 42.7439 1209.6 46.3222C1213.02 52.3604 1219.44 52.1368 1223.29 47.4404C1228.85 47.4404 1232.27 47.4404 1238.26 46.0985C1245.1 41.1785 1252.37 45.8749 1259.22 45.8749C1266.49 45.4276 1270.77 46.0985 1277.61 48.3349C1287.45 50.5713 1293.01 47.2167 1300.71 44.3094C1304.99 40.9548 1305.84 42.7439 1310.98 41.6258C1314.4 38.7185 1317.39 41.4021 1320.82 38.7184C1326.8 39.8366 1334.5 35.3639 1340.92 38.4948C1346.91 37.3766 1350.76 39.3894 1356.32 39.8366C1360.17 39.1657 1362.31 42.5203 1365.3 38.2712C1370.01 33.7984 1370.44 41.6258 1376 36.0348C1383.27 40.2839 1390.97 36.0348 1398.67 36.0348C1402.52 33.5748 1406.79 36.9293 1410.22 36.0348C1416.21 35.5875 1413.21 36.9293 1417.92 38.2712C1423.48 41.4021 1428.61 44.3094 1435.88 39.8366C1441.02 42.5203 1446.58 40.9548 1451.71 39.8366C1455.99 39.1657 1460.26 40.0603 1464.11 39.613C1467.96 41.1785 1471.39 38.0475 1475.66 36.9293C1479.51 33.7984 1484.22 37.6003 1488.07 35.5875C1495.34 36.9293 1500.47 31.562 1507.75 29.9965C1515.02 24.1819 1522.72 29.7729 1529.99 29.5493C1535.98 26.8656 1539.83 30.2202 1545.82 26.1947C1549.24 32.4566 1553.09 24.8529 1556.51 25.3001C1558.65 25.5238 1561.22 20.1564 1563.78 23.2874C1565.92 21.4983 1568.49 26.8656 1570.63 23.511C1577.9 23.9583 1580.04 23.511 1585.17 19.7092C1596.72 16.131 1609.55 11.2109 1623.67 15.9073C1630.94 15.0128 1638.21 16.131 1645.48 15.9073C1655.32 13.6709 1665.59 16.5782 1675.43 15.9073C1685.27 13.8946 1695.53 15.9073 1705.37 15.9073C1711.36 16.8019 1715.21 18.1437 1720.77 17.2491C1724.62 18.1437 1729.33 15.2364 1733.6 17.0255C1741.3 15.6837 1751.57 14.5655 1757.99 20.6037C1760.55 22.8401 1761.41 25.3001 1763.97 23.511C1765.69 22.1692 1766.97 23.511 1768.68 25.9711C1771.25 29.102 1772.53 31.1147 1772.1 29.9965C1780.23 34.2457 1802.47 30.4438 1814.88 32.6802C1823.86 33.5748 1832.84 34.9166 1842.68 33.5748C1848.24 31.562 1850.81 35.3639 1855.94 36.0348C1862.79 36.7057 1871.34 34.2457 1878.61 36.2584C1888.45 37.3766 1898.29 33.3511 1907.7 35.5875C1917.54 35.8111 1926.95 36.9293 1936.79 34.9166C1938.5 34.9166 1919.25 53.255 1919.25 54.1495Z" fill="#4FA481"/>
<path d="M1919.25 40.5128C1918.4 35.1455 1893.16 36.7109 1887.6 36.7109C1872.62 38.2764 1855.94 35.1455 1841.83 37.6055C1831.13 39.6182 1821.72 42.0783 1810.6 41.8546C1801.19 37.3819 1791.35 42.7492 1782.37 41.1837C1776.38 40.2892 1770.39 36.4873 1763.97 38.0528C1761.84 37.8291 1760.98 37.8291 1759.27 37.3819C1757.99 37.6055 1757.56 38.0528 1755.85 35.5927C1751.57 37.6055 1741.73 35.3691 1737.45 35.5927C1731.46 34.6982 1726.76 35.5927 1721.2 37.6055C1716.07 39.3946 1713.5 42.7492 1706.65 39.6182C1702.38 41.8546 1685.27 41.631 1680.99 39.171C1678.42 35.5927 1680.13 36.9346 1678.85 35.8164C1677.57 34.6982 1674.57 32.6854 1671.58 32.9091C1663.02 30.0018 1648.48 29.5545 1638.64 32.2382C1625.81 30.0018 1610.41 28.2127 1598 31.7909C1593.73 31.7909 1593.73 33.1327 1589.02 36.7109C1585.6 40.9601 1581.75 36.4873 1577.9 37.1582C1571.91 36.7109 1560.79 37.3819 1555.23 37.6055C1549.67 40.2892 1549.67 39.6182 1542.82 40.9601C1528.71 42.3019 1514.59 40.5128 1501.33 41.8546C1492.77 43.1965 1482.08 40.7364 1473.1 42.0783C1461.55 49.682 1444.87 38.0528 1436.31 44.5383C1433.32 46.7747 1431.6 50.3529 1426.9 48.1165C1424.33 47.6692 1421.77 49.4583 1419.2 50.1293C1409.36 50.8002 1403.8 45.8801 1394.39 48.1165C1390.11 43.6437 1385.41 46.9983 1380.7 48.1165C1374.71 49.0111 1366.59 48.3401 1361.02 48.3401C1356.75 50.8002 1354.18 49.4583 1349.05 51.6947C1345.2 53.0366 1341.35 50.5765 1337.07 51.9184C1325.95 52.3656 1313.97 47.222 1302.42 50.5765C1293.01 52.8129 1283.17 54.8257 1273.33 54.3784C1274.62 47.8929 1238.69 55.4966 1230.99 50.8002C1219.01 47.6692 1207.89 53.7075 1196.34 53.7075C1186.5 59.7457 1177.09 52.3656 1166.82 54.602C1159.55 55.7202 1154.84 55.7202 1148.43 53.2602C1144.58 51.4711 1146.72 51.6947 1142.44 51.9184C1141.16 46.1038 1139.02 51.2474 1137.73 51.9184C1131.32 49.0111 1124.05 53.4838 1118.06 51.9184C1113.35 53.7075 1109.93 52.3656 1106.08 55.2729C1099.24 54.1548 1091.96 57.733 1083.84 58.4039C1072.29 58.1802 1060.74 56.8384 1050.04 59.5221C1041.06 61.7585 1030.79 57.5093 1022.24 57.2857C1017.53 54.8257 1016.25 56.1675 1012.4 55.4966C1010.26 55.9439 1008.12 52.142 1005.98 54.602C999.995 55.9439 993.579 56.3911 987.59 54.602C981.602 50.8002 975.613 56.3911 969.625 54.8257C962.78 61.5348 957.22 52.5893 950.803 52.142C938.826 53.4838 925.565 54.602 913.588 52.142C908.883 52.8129 902.894 51.9184 898.189 51.9184C893.056 51.9184 892.628 49.2347 888.35 47.6692C880.223 43.8674 865.679 50.5765 856.696 47.222C851.991 48.7874 849.424 43.8674 844.291 45.8801C835.736 44.3147 836.591 45.2092 830.175 42.5255C822.903 38.2764 808.787 41.631 801.515 42.9728C795.954 46.9983 792.96 44.7619 790.393 46.1038C787.827 46.551 787.399 49.0111 782.266 51.6947C777.988 52.142 774.566 57.2857 769.005 56.1675C762.589 58.6275 758.311 54.8257 753.178 55.0493C745.479 50.3529 733.501 54.3784 725.374 55.0493C713.824 56.3911 702.703 54.1548 691.153 55.0493C683.026 52.3656 674.898 54.8257 667.199 55.0493C662.921 54.8257 654.366 56.1675 654.794 52.8129C646.666 51.0238 637.255 51.9184 628.7 52.3656C627.845 49.682 629.556 47.222 628.272 46.3274C620.573 48.3401 612.873 41.8546 604.746 43.4201C599.185 42.7492 593.196 46.7747 587.635 43.4201C574.375 42.3019 561.542 45.4328 548.281 43.4201C543.148 42.9728 539.726 42.7492 535.449 42.0783C528.604 40.5128 524.327 36.7109 516.627 39.6182C509.355 38.7237 502.083 40.9601 495.239 40.2892C486.684 40.2892 489.678 38.5 483.69 38.2764C479.412 35.1455 470.857 39.8419 466.152 38.2764C458.024 42.7492 449.897 35.5927 442.197 38.2764C435.353 39.6182 434.925 39.3946 429.792 42.0783C424.659 40.2892 416.959 43.4201 410.971 44.7619C404.126 47.222 398.566 43.8674 391.721 46.3274C387.016 45.6565 385.305 49.682 380.6 46.551C377.178 46.7747 375.894 45.6565 373.328 43.1965C370.333 38.2764 369.05 40.7364 365.2 42.3019C360.495 41.1837 356.217 43.6437 351.512 42.3019C346.379 44.9856 341.246 38.7237 336.113 42.3019C330.98 40.5128 323.28 42.5255 319.002 42.5255C314.725 43.6437 312.158 42.9728 307.453 39.6182C302.32 38.0528 299.753 35.3691 294.192 39.6182C283.07 42.5255 276.226 44.091 262.538 46.3274C253.555 44.7619 244.572 48.5638 235.589 46.3274C227.89 45.2092 221.901 50.8002 214.201 47.6692C207.785 48.1165 201.796 46.9983 195.38 47.6692C189.391 46.9983 183.403 44.7619 177.414 47.6692C173.564 47.6692 166.72 46.3274 163.298 48.7874C153.887 53.9311 147.471 54.3784 136.777 55.2729C131.216 55.4966 126.083 58.1802 120.522 55.4966C116.244 53.0366 111.967 56.6148 107.689 57.733C97.4228 58.8512 85.0178 57.733 78.6014 53.2602C70.474 47.6692 59.78 47.8929 46.9472 48.1165C40.9586 50.3529 35.8255 46.7747 29.8368 46.7747C28.5536 49.2347 25.987 47.8929 24.7037 46.9983C22.5649 46.7747 22.9927 46.551 21.2816 45.2092C11.8709 41.4074 2.03246 40.7364 -6.52273 46.9983C-6.52273 46.7747 -9.51705 38.7237 -12.5114 33.58C-15.5057 27.3181 -18.5 20.8326 -18.5 20.1617C-11.2281 22.6217 -3.95618 27.5418 3.7435 27.989C8.02109 27.0945 17.8596 30.2254 22.1372 27.989C28.9813 27.3181 33.2589 23.2926 39.6753 26.1999C46.0917 24.4108 52.9359 23.069 59.3522 26.4236C66.1964 27.989 70.9017 36.2637 78.6014 32.0145C89.7232 32.2382 96.5673 32.6854 105.55 36.9346C114.533 41.1837 129.077 36.7109 139.343 34.0273C148.754 33.3564 159.02 30.0018 168.859 33.3564C178.697 32.0145 188.536 32.4618 197.946 31.3436C208.64 26.4236 218.907 24.1872 231.312 25.7526C242.433 26.8708 252.272 29.3309 263.394 25.529C268.527 29.3309 272.804 25.7526 277.937 24.4108C289.487 23.2926 300.181 22.1744 310.875 20.3853C319.858 19.0435 324.563 12.3343 333.118 13.0052C339.535 6.74337 346.379 15.6889 352.795 13.0052C359.212 14.7944 364.345 12.3343 371.189 10.0979C377.178 13.4525 383.166 8.75611 389.155 10.3216C400.704 9.87431 417.387 8.53248 427.653 11.8871C431.075 10.0979 432.786 10.3216 436.636 15.2416C441.342 15.2416 446.902 12.3343 451.608 15.4653C457.596 15.4653 459.735 19.938 465.296 18.1489C467.863 20.3853 470.429 18.3726 472.996 18.3726C474.279 18.3726 476.418 16.3598 478.557 21.0562C483.262 21.2799 489.678 18.8199 494.811 22.8453C499.089 24.4108 502.939 27.5418 507.216 23.9635C512.35 21.2799 513.633 17.478 520.049 19.2671C523.899 19.7144 526.466 20.8326 529.032 23.069C535.021 27.989 544.432 23.5163 551.703 24.1872C566.675 25.9763 581.219 28.2127 596.19 24.1872C600.04 24.8581 603.035 23.9635 606.457 24.6345C612.018 27.989 611.59 26.1999 617.578 27.989C627.845 27.7654 638.539 23.7399 648.805 26.6472C654.366 31.3436 659.499 27.0945 665.06 27.989C668.482 26.1999 673.187 26.4236 676.181 28.4363C680.031 30.4491 678.32 32.0145 680.887 34.2509C684.737 36.7109 698.425 37.1582 705.269 35.5927C711.686 30.8963 718.102 32.9091 724.091 35.5927C733.501 37.6055 740.345 36.2637 748.045 32.9091C752.75 25.7526 754.889 31.12 759.595 29.3309C764.3 30.6727 767.294 25.7526 771.144 26.4236C777.988 23.2926 786.971 26.6472 796.382 22.6217C805.793 21.2799 815.203 19.7144 823.759 23.069C834.453 21.9508 845.147 23.9635 854.985 24.4108C860.118 27.989 859.69 27.0945 865.251 25.529C870.812 26.1999 872.951 26.6472 877.228 27.989C884.5 23.5163 893.911 24.8581 902.039 28.2127C909.738 26.6472 917.01 27.989 924.71 28.2127C934.976 30.0018 945.67 26.1999 956.792 25.7526C967.914 28.66 978.607 30.2254 988.446 28.2127C991.44 30.8963 993.579 29.3309 996.146 31.7909C996.573 29.5545 1001.28 34.0273 1001.28 34.4746C1007.27 37.1582 1013.26 33.3564 1019.24 33.58C1026.94 32.2382 1033.36 36.04 1040.2 30.8963C1045.34 29.7781 1050.47 27.989 1056.89 24.8581C1063.73 24.4108 1070.15 24.8581 1076.14 26.1999C1082.55 26.4236 1085.55 26.4236 1091.11 23.7399C1094.1 20.609 1094.1 19.2671 1098.38 22.3981C1103.09 20.3853 1107.36 29.5545 1112.07 27.3181C1118.06 29.3309 1125.76 27.5418 1132.17 28.2127C1141.16 27.0945 1150.57 21.7272 1159.98 27.0945C1169.39 28.4363 1178.8 25.529 1188.21 27.3181C1192.06 23.7399 1200.19 30.4491 1203.18 27.5418C1206.18 29.1072 1206.18 29.1072 1209.6 32.6854C1213.02 38.7237 1219.44 38.5 1223.29 33.8036C1228.85 33.8036 1232.27 33.8036 1238.26 32.4618C1245.1 27.5418 1252.37 32.2382 1259.22 32.2382C1266.49 31.7909 1270.77 32.4618 1277.61 34.6982C1287.45 36.9346 1293.01 33.58 1300.71 30.6727C1304.99 27.3181 1305.84 29.1072 1310.98 27.989C1314.4 25.0817 1317.39 27.7654 1320.82 25.0817C1326.8 26.1999 1334.5 21.7272 1340.92 24.8581C1346.91 23.7399 1350.76 25.7526 1356.32 26.1999C1360.17 25.529 1362.31 28.8836 1365.3 24.6345C1370.01 20.1617 1370.44 27.989 1376 22.3981C1383.27 26.6472 1390.97 22.3981 1398.67 22.3981C1402.52 19.938 1406.79 23.2926 1410.22 22.3981C1416.21 21.9508 1413.21 23.2926 1417.92 24.6345C1423.48 27.7654 1428.61 30.6727 1435.88 26.1999C1441.02 28.8836 1446.58 27.3181 1451.71 26.1999C1455.99 25.529 1460.26 26.4236 1464.11 25.9763C1467.96 27.5418 1471.39 24.4108 1475.66 23.2926C1479.51 20.1617 1484.22 23.9635 1488.07 21.9508C1495.34 23.2926 1500.47 17.9253 1507.75 16.3598C1515.02 10.5452 1522.72 16.1362 1529.99 15.9125C1535.98 13.2289 1539.83 16.5835 1545.82 12.558C1549.24 18.8199 1553.09 11.2161 1556.51 11.6634C1558.65 11.8871 1561.22 6.51973 1563.78 9.65067C1565.92 7.86156 1568.49 13.2289 1570.63 9.87431C1577.9 10.3216 1580.04 9.87431 1585.17 6.07245C1596.72 2.49424 1609.55 -2.42581 1623.67 2.2706C1630.94 1.37605 1638.21 2.49424 1645.48 2.2706C1655.32 0.034214 1665.59 2.94151 1675.43 2.2706C1685.27 0.257851 1695.53 2.2706 1705.37 2.2706C1711.36 3.16515 1715.21 4.50698 1720.77 3.61243C1724.62 4.50698 1729.33 1.59968 1733.6 3.38879C1741.3 2.04696 1751.57 0.928764 1757.99 6.96701C1760.55 9.20339 1761.41 11.6634 1763.97 9.87431C1765.69 8.53248 1766.97 9.87431 1768.68 12.3343C1771.25 15.4653 1772.53 17.478 1772.1 16.3598C1780.23 20.609 1802.47 16.8071 1814.88 19.0435C1823.86 19.938 1832.84 21.2799 1842.68 19.938C1848.24 17.9253 1850.81 21.7272 1855.94 22.3981C1862.79 23.069 1871.34 20.609 1878.61 22.6217C1888.45 23.7399 1898.29 19.7144 1907.7 21.9508C1917.54 22.1744 1926.95 23.2926 1936.79 21.2799C1938.5 21.2799 1919.25 39.6182 1919.25 40.5128Z" fill="#4FA481"/>
</svg>
