<svg width="1920" height="80" viewBox="0 0 1920 80" fill="none" xmlns="http://www.w3.org/2000/svg">
<path d="M1918.75 53.3173C1917.9 46.2325 1892.66 48.2989 1887.1 48.2989C1872.12 50.3653 1855.44 46.2325 1841.33 49.4797C1830.63 52.1365 1821.22 55.3838 1810.1 55.0885C1800.69 49.1845 1790.85 56.2694 1781.87 54.2029C1775.88 53.0221 1769.89 48.0037 1763.47 50.0701C1761.34 49.7749 1760.48 49.7749 1758.77 49.1845C1757.49 49.4797 1757.06 50.0701 1755.35 46.8229C1751.07 49.4797 1741.23 46.5277 1736.95 46.8229C1730.96 45.6421 1726.26 46.8229 1720.7 49.4797C1715.57 51.8413 1713 56.2694 1706.15 52.1365C1701.88 55.0885 1684.77 54.7933 1680.49 51.5461C1677.92 46.8229 1679.63 48.5941 1678.35 47.1181C1677.07 45.6421 1674.07 42.9852 1671.08 43.2804C1662.52 39.4428 1647.98 38.8524 1638.14 42.3948C1625.31 39.4428 1609.91 37.0812 1597.5 41.8044C1593.23 41.8044 1593.23 43.5756 1588.52 48.2989C1585.1 53.9077 1581.25 48.0037 1577.4 48.8893C1571.41 48.2989 1560.29 49.1845 1554.73 49.4797C1549.17 53.0221 1549.17 52.1365 1542.32 53.9077C1528.21 55.679 1514.09 53.3173 1500.83 55.0885C1492.27 56.8598 1481.58 53.6125 1472.6 55.3838C1461.05 65.4207 1444.37 50.0701 1435.81 58.631C1432.82 61.583 1431.1 66.3063 1426.4 63.3542C1423.83 62.7638 1421.27 65.1254 1418.7 66.0111C1408.86 66.8967 1403.3 60.4022 1393.89 63.3542C1389.61 57.4502 1384.91 61.8782 1380.2 63.3542C1374.21 64.535 1366.09 63.6494 1360.52 63.6494C1356.25 66.8967 1353.68 65.1255 1348.55 68.0775C1344.7 69.8487 1340.85 66.6015 1336.57 68.3727C1325.45 68.9631 1313.47 62.1734 1301.92 66.6015C1292.51 69.5535 1282.67 72.2103 1272.83 71.6199C1274.12 63.059 1238.19 73.0959 1230.49 66.8967C1218.51 62.7638 1207.39 70.7343 1195.84 70.7343C1186 78.7048 1176.59 68.9631 1166.32 71.9151C1159.05 73.3911 1154.34 73.3911 1147.93 70.1439C1144.08 67.7823 1146.22 68.0775 1141.94 68.3727C1140.66 60.6974 1138.52 67.4871 1137.23 68.3727C1130.82 64.535 1123.55 70.4391 1117.56 68.3727C1112.85 70.7343 1109.43 68.9631 1105.58 72.8007C1098.74 71.3247 1091.46 76.048 1083.34 76.9336C1071.79 76.6384 1060.24 74.8671 1049.54 78.4096C1040.56 81.3616 1030.29 75.7528 1021.74 75.4576C1017.03 72.2103 1015.75 73.9815 1011.9 73.0959C1009.76 73.6863 1007.62 68.6679 1005.48 71.9151C999.495 73.6863 993.079 74.2767 987.09 71.9151C981.102 66.8967 975.113 74.2767 969.125 72.2103C962.28 81.0664 956.72 69.2583 950.303 68.6679C938.326 70.4391 925.065 71.9151 913.088 68.6679C908.383 69.5535 902.394 68.3727 897.689 68.3727C892.556 68.3727 892.128 64.8302 887.85 62.7638C879.723 57.7454 865.179 66.6015 856.196 62.1734C851.491 64.2398 848.924 57.7454 843.791 60.4022C835.236 58.3358 836.091 59.5166 829.675 55.9742C822.403 50.3653 808.287 54.7933 801.015 56.5646C795.454 61.8782 792.46 58.9262 789.893 60.6974C787.327 61.2878 786.899 64.535 781.766 68.0775C777.488 68.6679 774.066 75.4576 768.505 73.9815C762.089 77.2288 757.811 72.2103 752.678 72.5055C744.979 66.3063 733.001 71.6199 724.874 72.5055C713.324 74.2767 702.203 71.3247 690.653 72.5055C682.526 68.9631 674.398 72.2103 666.699 72.5055C662.421 72.2103 653.866 73.9815 654.294 69.5535C646.166 67.1919 636.755 68.3727 628.2 68.9631C627.345 65.4207 629.056 62.1734 627.772 60.9926C620.073 63.6494 612.373 55.0885 604.246 57.155C598.685 56.2694 592.696 61.583 587.135 57.155C573.875 55.679 561.042 59.8118 547.781 57.155C542.648 56.5646 539.226 56.2694 534.949 55.3838C528.104 53.3173 523.827 48.2989 516.127 52.1365C508.855 50.9557 501.583 53.9077 494.739 53.0221C486.184 53.0221 489.178 50.6605 483.19 50.3653C478.912 46.2325 470.357 52.4317 465.652 50.3653C457.524 56.2694 449.397 46.8229 441.697 50.3653C434.853 52.1365 434.425 51.8413 429.292 55.3838C424.159 53.0221 416.459 57.155 410.471 58.9262C403.626 62.1734 398.066 57.7454 391.221 60.9926C386.516 60.107 384.805 65.4207 380.1 61.2878C376.678 61.583 375.394 60.107 372.828 56.8598C369.833 50.3653 368.55 53.6125 364.7 55.679C359.995 54.2029 355.717 57.4502 351.012 55.679C345.879 59.2214 340.746 50.9557 335.613 55.679C330.48 53.3173 322.78 55.9742 318.502 55.9742C314.225 57.4502 311.658 56.5646 306.953 52.1365C301.82 50.0701 299.253 46.5277 293.692 52.1365C282.57 55.9742 275.726 58.0406 262.038 60.9926C253.055 58.9262 244.072 63.9446 235.089 60.9926C227.39 59.5166 221.401 66.8967 213.701 62.7638C207.285 63.3542 201.296 61.8782 194.88 62.7638C188.891 61.8782 182.903 58.9262 176.914 62.7638C173.064 62.7638 166.22 60.9926 162.798 64.2398C153.387 71.0295 146.971 71.6199 136.277 72.8007C130.716 73.0959 125.583 76.6384 120.022 73.0959C115.744 69.8487 111.467 74.5719 107.189 76.048C96.9228 77.524 84.5178 76.048 78.1014 70.1439C69.974 62.7638 59.28 63.059 46.4472 63.3542C40.4586 66.3063 35.3255 61.583 29.3368 61.583C28.0536 64.8302 25.487 63.059 24.2037 61.8782C22.0649 61.583 22.4927 61.2878 20.7816 59.5166C11.3709 54.4981 1.53246 53.6125 -7.02273 61.8782C-7.02273 61.583 -10.017 50.9557 -13.0114 44.166C-16.0057 35.9004 -19 27.3395 -19 26.4539C-11.7281 29.7011 -4.45618 36.1956 3.2435 36.786C7.52109 35.6052 17.3596 39.738 21.6372 36.786C28.4813 35.9004 32.7589 30.5867 39.1753 34.4243C45.5917 32.0627 52.4359 30.2915 58.8522 34.7195C65.6964 36.786 70.4017 47.7085 78.1014 42.0996C89.2232 42.3948 96.0673 42.9852 105.05 48.5941C114.033 54.2029 128.577 48.2989 138.843 44.7564C148.254 43.8708 158.52 39.4428 168.359 43.8708C178.197 42.0996 188.036 42.69 197.446 41.214C208.14 34.7195 218.407 31.7675 230.812 33.8339C241.933 35.31 251.772 38.5572 262.894 33.5387C268.027 38.5572 272.304 33.8339 277.437 32.0627C288.987 30.5867 299.681 29.1107 310.375 26.7491C319.358 24.9778 324.063 16.1218 332.618 17.0074C339.035 8.74169 345.879 20.5498 352.295 17.0074C358.712 19.369 363.845 16.1218 370.689 13.1697C376.678 17.5978 382.666 11.3985 388.655 13.4649C400.204 12.8745 416.887 11.1033 427.153 15.5314C430.575 13.1697 432.286 13.4649 436.136 19.9594C440.842 19.9594 446.402 16.1218 451.108 20.2546C457.096 20.2546 459.235 26.1587 464.796 23.797C467.363 26.7491 469.929 24.0922 472.496 24.0922C473.779 24.0922 475.918 21.4354 478.057 27.6347C482.762 27.9299 489.178 24.6826 494.311 29.9963C498.589 32.0627 502.439 36.1956 506.716 31.4723C511.85 27.9299 513.133 22.9114 519.549 25.2731C523.399 25.8635 525.966 27.3395 528.532 30.2915C534.521 36.786 543.932 30.8819 551.203 31.7675C566.175 34.1291 580.719 37.0812 595.69 31.7675C599.54 32.6531 602.535 31.4723 605.957 32.3579C611.518 36.786 611.09 34.4243 617.078 36.786C627.345 36.4908 638.039 31.1771 648.305 35.0148C653.866 41.214 658.999 35.6052 664.56 36.786C667.982 34.4243 672.687 34.7195 675.681 37.3764C679.531 40.0332 677.82 42.0996 680.387 45.0516C684.237 48.2989 697.925 48.8893 704.769 46.8229C711.186 40.6236 717.602 43.2804 723.591 46.8229C733.001 49.4797 739.845 47.7085 747.545 43.2804C752.25 33.8339 754.389 40.9188 759.095 38.5572C763.8 40.3284 766.794 33.8339 770.644 34.7195C777.488 30.5867 786.471 35.0147 795.882 29.7011C805.293 27.9299 814.703 25.8635 823.259 30.2915C833.953 28.8155 844.647 31.4723 854.485 32.0627C859.618 36.786 859.19 35.6052 864.751 33.5387C870.312 34.4243 872.451 35.0147 876.728 36.786C884 30.8819 893.411 32.6531 901.539 37.0812C909.238 35.0147 916.51 36.786 924.21 37.0812C934.476 39.4428 945.17 34.4243 956.292 33.8339C967.414 37.6716 978.107 39.738 987.946 37.0812C990.94 40.6236 993.079 38.5572 995.646 41.8044C996.073 38.8524 1000.78 44.7564 1000.78 45.3469C1006.77 48.8893 1012.76 43.8708 1018.74 44.166C1026.44 42.3948 1032.86 47.4133 1039.7 40.6236C1044.84 39.1476 1049.97 36.786 1056.39 32.6531C1063.23 32.0627 1069.65 32.6531 1075.64 34.4243C1082.05 34.7195 1085.05 34.7195 1090.61 31.1771C1093.6 27.0443 1093.6 25.2731 1097.88 29.4059C1102.59 26.7491 1106.86 38.8524 1111.57 35.9004C1117.56 38.5572 1125.26 36.1956 1131.67 37.0812C1140.66 35.6052 1150.07 28.5203 1159.48 35.6052C1168.89 37.3764 1178.3 33.5387 1187.71 35.9004C1191.56 31.1771 1199.69 40.0332 1202.68 36.1956C1205.68 38.262 1205.68 38.262 1209.1 42.9852C1212.52 50.9557 1218.94 50.6605 1222.79 44.4612C1228.35 44.4612 1231.77 44.4612 1237.76 42.69C1244.6 36.1956 1251.87 42.3948 1258.72 42.3948C1265.99 41.8044 1270.27 42.69 1277.11 45.6421C1286.95 48.5941 1292.51 44.166 1300.21 40.3284C1304.49 35.9004 1305.34 38.262 1310.48 36.786C1313.9 32.9483 1316.89 36.4908 1320.32 32.9483C1326.3 34.4243 1334 28.5203 1340.42 32.6531C1346.41 31.1771 1350.26 33.8339 1355.82 34.4243C1359.67 33.5387 1361.81 37.9668 1364.8 32.3579C1369.51 26.4539 1369.94 36.786 1375.5 29.4059C1382.77 35.0148 1390.47 29.4059 1398.17 29.4059C1402.02 26.1587 1406.29 30.5867 1409.72 29.4059C1415.71 28.8155 1412.71 30.5867 1417.42 32.3579C1422.98 36.4908 1428.11 40.3284 1435.38 34.4243C1440.52 37.9668 1446.08 35.9004 1451.21 34.4243C1455.49 33.5387 1459.76 34.7195 1463.61 34.1291C1467.46 36.1956 1470.89 32.0627 1475.16 30.5867C1479.01 26.4539 1483.72 31.4723 1487.57 28.8155C1494.84 30.5867 1499.97 23.5018 1507.25 21.4354C1514.52 13.7601 1522.22 21.1402 1529.49 20.845C1535.48 17.3026 1539.33 21.7306 1545.32 16.417C1548.74 24.6826 1552.59 14.6457 1556.01 15.2362C1558.15 15.5314 1560.72 8.44649 1563.28 12.5793C1565.42 10.2177 1567.99 17.3026 1570.13 12.8745C1577.4 13.4649 1579.54 12.8745 1584.67 7.85608C1596.22 3.13284 1609.05 -3.36163 1623.17 2.83763C1630.44 1.65682 1637.71 3.13284 1644.98 2.83763C1654.82 -0.114395 1665.09 3.72324 1674.93 2.83763C1684.77 0.180809 1695.03 2.83763 1704.87 2.83763C1710.86 4.01845 1714.71 5.78966 1720.27 4.60885C1724.12 5.78966 1728.83 1.95203 1733.1 4.31364C1740.8 2.54243 1751.07 1.06641 1757.49 9.03689C1760.05 11.9889 1760.91 15.2362 1763.47 12.8745C1765.19 11.1033 1766.47 12.8745 1768.18 16.1218C1770.75 20.2546 1772.03 22.9114 1771.6 21.4354C1779.73 27.0443 1801.97 22.0258 1814.38 24.9779C1823.36 26.1587 1832.34 27.9299 1842.18 26.1587C1847.74 23.5018 1850.31 28.5203 1855.44 29.4059C1862.29 30.2915 1870.84 27.0443 1878.11 29.7011C1887.95 31.1771 1897.79 25.8635 1907.2 28.8155C1917.04 29.1107 1926.45 30.5867 1936.29 27.9299C1938 27.9299 1918.75 52.1365 1918.75 53.3173Z" fill="white"/>
</svg>
