<svg width="26" height="47" viewBox="0 0 26 47" fill="none" xmlns="http://www.w3.org/2000/svg">
<path d="M0.44385 46.9426C-0.00287979 46.55 -0.00631619 46.1298 0.223921 45.5856C2.96272 39.0865 5.67746 32.5806 8.39907 26.0746C8.47124 25.8989 8.53653 25.7198 8.62931 25.4753H8.10698C5.74619 25.4753 3.38539 25.4753 1.02803 25.4753C0.0692843 25.4753 -0.23999 24.9724 0.189558 24.1149C3.9249 16.6273 7.66369 9.13972 11.3887 1.64872C11.6293 1.16309 11.9523 0.939222 12.5055 0.942666C16.4196 0.956443 20.3336 0.949554 24.2477 0.956443C24.4504 0.956443 24.6738 0.977107 24.8525 1.06321C25.3267 1.29052 25.392 1.74171 25.0552 2.28244C23.7631 4.3317 22.4711 6.37752 21.179 8.42679C19.6223 10.8928 18.0656 13.3554 16.5089 15.8214C16.4299 15.9454 16.3612 16.0762 16.234 16.2898C16.454 16.2898 16.6086 16.2898 16.7598 16.2898C19.478 16.2898 22.1961 16.2898 24.9143 16.2898C25.3336 16.2898 25.7322 16.3035 25.9281 16.7651C26.1171 17.2094 25.904 17.5331 25.6325 17.8603C17.6395 27.3661 9.64304 36.8823 1.64658 46.395C1.4782 46.5982 1.26514 46.7601 1.07271 46.9426H0.44385ZM3.58127 41.525L3.64999 41.5629C10.2856 33.6758 16.9247 25.7887 23.6325 17.819H23.0484C20.3886 17.819 17.7323 17.819 15.0725 17.819C14.6705 17.819 14.2925 17.788 14.0657 17.385C13.8389 16.982 14.0725 16.6721 14.2718 16.3552C17.1137 11.8916 19.9522 7.42799 22.7941 2.96093C22.8834 2.81972 22.9659 2.67507 23.0862 2.47531C19.6463 2.47531 16.2993 2.47187 12.9557 2.48909C12.8114 2.48909 12.6121 2.6854 12.533 2.84039C9.08635 9.72867 5.6534 16.6135 2.22046 23.4984C2.15517 23.6258 2.10362 23.7601 2.02115 23.9461H2.5641C4.86304 23.9461 7.16541 23.9461 9.46435 23.9461C10.454 23.9461 10.7255 24.3594 10.3406 25.2824C8.13791 30.5623 5.93862 35.8456 3.7359 41.1255C3.68092 41.2564 3.63281 41.3941 3.58127 41.5284V41.525Z" fill="#4FA481"/>
</svg>
