<svg width="46" height="48" viewBox="0 0 46 48" fill="none" xmlns="http://www.w3.org/2000/svg">
<path d="M19.523 42.579C16.923 42.0647 14.567 41.0892 12.382 39.6035C11.5559 40.4362 10.7381 41.2607 9.92021 42.0851C9.33835 42.6688 9.05352 42.6688 8.46352 42.077C7.29979 40.9137 6.14011 39.7545 4.98045 38.5872C4.42299 38.028 4.42706 37.7301 4.99265 37.1627C5.81459 36.3423 6.6406 35.526 7.47882 34.6934C5.98956 32.4811 5.00894 30.1056 4.50438 27.5138C3.31217 27.5138 2.1525 27.5138 0.992836 27.5138C0.227865 27.5138 0.004069 27.2975 0 26.5506C0 24.8526 0 23.1588 0 21.4608C0 20.771 0.240066 20.5343 0.923658 20.5302C2.0996 20.5302 3.27554 20.5302 4.50031 20.5302C5.013 17.9506 5.98143 15.567 7.47882 13.3548C6.64874 12.5303 5.82274 11.714 5.0008 10.8936C4.41486 10.3099 4.41486 10.0201 5.0008 9.43235C6.17267 8.25685 7.34453 7.07727 8.51641 5.90585C9.0291 5.39565 9.35462 5.39973 9.86731 5.90993C10.7015 6.74258 11.5315 7.57522 12.382 8.43236C14.5629 6.95074 16.9352 5.97116 19.519 5.46096C19.519 4.26913 19.519 3.10587 19.519 1.94262C19.519 1.15895 19.7346 0.942627 20.524 0.942627C22.1801 0.942627 23.8402 0.942627 25.4963 0.942627C26.2491 0.942627 26.4729 1.1712 26.477 1.92221C26.477 3.08547 26.477 4.24872 26.477 5.46096C29.0486 5.97524 31.4249 6.94258 33.618 8.4446C34.444 7.61196 35.2619 6.78748 36.0798 5.96707C36.6657 5.37932 36.9546 5.37932 37.5365 5.96707C38.7002 7.13033 39.8599 8.29358 41.0195 9.45684C41.577 10.016 41.5729 10.3181 41.0155 10.8854C40.222 11.6854 39.4245 12.4854 38.627 13.2895C38.6066 13.3099 38.5944 13.3466 38.5619 13.4119C40.0064 15.567 40.9951 17.9384 41.4916 20.5343C42.6878 20.5343 43.8434 20.5343 45.0031 20.5343C45.7884 20.5343 45.9959 20.7465 46 21.5425C46 23.2241 46 24.9016 46 26.5832C46 27.273 45.7599 27.5138 45.0763 27.5179C43.9004 27.5179 42.7244 27.5179 41.4997 27.5179C40.987 30.0975 40.0226 32.4771 38.5293 34.6811C39.3594 35.5097 40.1813 36.3301 40.9992 37.1505C41.5811 37.7342 41.5811 38.0239 40.9992 38.6117C39.8395 39.779 38.6799 40.9423 37.5202 42.1055C36.9628 42.6647 36.6617 42.6606 36.1001 42.0974C35.2823 41.277 34.4644 40.4484 33.6302 39.6076C31.433 41.0933 29.0648 42.077 26.481 42.5872C26.481 43.7831 26.481 44.9463 26.481 46.1055C26.481 46.8851 26.2572 47.1055 25.4719 47.1055C23.8158 47.1055 22.1557 47.1055 20.4996 47.1055C19.7468 47.1055 19.523 46.8769 19.523 46.1218C19.523 44.9586 19.523 43.7953 19.523 42.579ZM44.5555 21.9833C44.348 21.9833 44.173 21.9833 43.994 21.9833C43.05 21.9833 42.106 21.9833 41.1579 21.9833C40.4499 21.9792 40.2505 21.8078 40.1325 21.1057C39.6931 18.4894 38.6962 16.1058 37.1744 13.9425C36.7593 13.3548 36.7797 13.1017 37.2801 12.5997C38.0736 11.8038 38.8752 11.0119 39.632 10.2568C38.6432 9.26909 37.6992 8.32624 36.7268 7.3589C35.9496 8.13848 35.1358 8.96705 34.3138 9.78337C33.9232 10.1711 33.6099 10.1997 33.1664 9.88541C30.9447 8.29358 28.4952 7.26502 25.8015 6.82013C25.2156 6.72217 25.0487 6.50585 25.0406 5.90177C25.0325 5.13851 25.0406 4.37117 25.0406 3.60791C25.0406 3.212 25.0406 2.81608 25.0406 2.40384H20.9635C20.9635 2.60792 20.9635 2.78751 20.9635 2.96302C20.9635 3.9426 20.9716 4.92627 20.9635 5.90585C20.9594 6.50176 20.7844 6.72217 20.1985 6.82013C17.5048 7.26502 15.0553 8.30175 12.8336 9.88949C12.3942 10.2038 12.0768 10.167 11.6862 9.78337C10.9659 9.07317 10.2539 8.35073 9.53773 7.63237C9.42786 7.52216 9.30172 7.42012 9.24476 7.37114C8.27227 8.34665 7.3364 9.28133 6.38018 10.2405C7.11667 10.9793 7.88571 11.7548 8.65882 12.5303C9.23255 13.1099 9.23255 13.318 8.79717 13.9915C8.34551 14.6854 7.89792 15.3874 7.51544 16.1221C6.69757 17.6935 6.14826 19.3588 5.8675 21.1139C5.75357 21.8118 5.55012 21.9792 4.83804 21.9873C4.58983 21.9873 4.34162 21.9873 4.09341 21.9873C3.21857 21.9873 2.34781 21.9873 1.44856 21.9873V26.0649C2.60009 26.0649 3.72313 26.0649 4.84618 26.0649C5.55418 26.0649 5.75357 26.2445 5.8675 26.9465C6.29474 29.5301 7.27944 31.8811 8.76462 34.0281C9.24883 34.7301 9.23662 34.9342 8.64662 35.526C7.87758 36.3015 7.10446 37.0729 6.38018 37.8035C7.35267 38.775 8.29668 39.7219 9.2651 40.6892C10.0423 39.9056 10.8601 39.0811 11.6821 38.2648C12.0727 37.877 12.3738 37.8607 12.8295 38.1627C13.2568 38.4484 13.68 38.7423 14.1194 39.0076C15.9749 40.1137 17.9646 40.8566 20.0968 41.2117C20.7844 41.326 20.9513 41.53 20.9553 42.2525C20.9553 42.6525 20.9553 43.0525 20.9553 43.4484C20.9553 44.1749 20.9553 44.9014 20.9553 45.6443H25.0284C25.0284 44.5055 25.0284 43.3912 25.0284 42.2811C25.0284 41.5219 25.1871 41.33 25.9073 41.2076C28.483 40.7749 30.8308 39.7913 32.967 38.2974C33.6669 37.8076 33.8622 37.8199 34.4563 38.4199C35.2253 39.1954 35.9903 39.975 36.7105 40.7096C37.6992 39.7137 38.6433 38.7668 39.6239 37.7831C38.8589 37.028 38.0532 36.2362 37.2557 35.4403C36.7797 34.9627 36.7878 34.7097 37.1377 34.1342C37.7155 33.1873 38.3015 32.2403 38.7938 31.2444C39.4652 29.8852 39.8802 28.4322 40.1244 26.9302C40.2342 26.2526 40.4377 26.0853 41.1131 26.0771C41.5119 26.0771 41.9107 26.0771 42.3053 26.0771C43.0459 26.0771 43.7905 26.0771 44.5433 26.0771V21.9833H44.5555Z" fill="#4FA481"/>
<path d="M22.9819 37.2607C15.6903 37.2321 9.778 31.2811 9.81462 24.0077C9.85124 16.6812 15.7635 10.7711 23.0226 10.7997C30.3224 10.8323 36.2183 16.7629 36.1899 24.0485C36.1614 31.3668 30.241 37.2892 22.9819 37.2607ZM11.2551 24.02C11.2551 30.5138 16.4959 35.7913 22.9697 35.8076C29.4638 35.8239 34.7454 30.5424 34.7454 24.0322C34.7454 17.5343 29.5045 12.2568 23.0307 12.2445C16.5366 12.2282 11.2591 17.5057 11.2551 24.02Z" fill="#4FA481"/>
<path d="M29.6997 24.024C28.7516 23.2975 27.8605 22.6118 26.9653 21.9261C26.8595 21.8445 26.7497 21.771 26.652 21.6812C26.3265 21.3832 26.2655 20.9628 26.5299 20.6649C26.8148 20.3383 27.1769 20.2975 27.5065 20.5465C28.7923 21.5098 30.07 22.4853 31.3313 23.4771C31.7138 23.775 31.7098 24.2975 31.3232 24.5995C30.0618 25.5914 28.7842 26.5669 27.4943 27.526C27.1647 27.7709 26.7944 27.7138 26.5177 27.3873C26.2614 27.0852 26.3143 26.6526 26.6601 26.375C27.4902 25.7179 28.3366 25.0812 29.1788 24.4322C29.3335 24.3138 29.4881 24.1873 29.6915 24.024H29.6997Z" fill="#4FA481"/>
<path d="M16.3044 24.0282C17.2362 24.7424 18.1029 25.4077 18.9696 26.073C19.0998 26.1751 19.2382 26.269 19.3562 26.3832C19.6817 26.6812 19.7346 27.1057 19.4701 27.3996C19.1853 27.7179 18.8231 27.7628 18.4895 27.5138C17.22 26.5588 15.9545 25.5955 14.7012 24.6159C14.2781 24.2853 14.2903 23.7629 14.7216 23.4282C15.9504 22.469 17.1874 21.5261 18.4285 20.5874C18.8109 20.2976 19.2382 20.3506 19.4864 20.6731C19.7346 20.9996 19.6736 21.42 19.2951 21.7221C18.5017 22.3465 17.696 22.9547 16.8944 23.571C16.7154 23.7098 16.5323 23.8527 16.3004 24.0322L16.3044 24.0282Z" fill="#4FA481"/>
<path d="M24.9712 19.6119C24.8858 19.9262 24.7963 20.2609 24.7027 20.5956C23.9784 23.1956 23.2541 25.7996 22.5258 28.3996C22.4973 28.4935 22.4769 28.5915 22.4444 28.6853C22.2857 29.1017 21.9236 29.3017 21.5492 29.1833C21.1667 29.0608 20.9633 28.7017 21.0813 28.2731C21.8951 25.318 22.717 22.3629 23.543 19.4119C23.6529 19.0119 23.9336 18.7875 24.3609 18.8528C24.7637 18.914 24.9387 19.1997 24.9753 19.616L24.9712 19.6119Z" fill="#4FA481"/>
</svg>
