<svg width="48" height="51" viewBox="0 0 48 51" fill="none" xmlns="http://www.w3.org/2000/svg">
<path d="M1.54554 26.5327C0.933502 33.1122 2.89443 38.7507 7.66991 43.2986C13.1782 48.5453 20.9736 49.9186 27.5852 47.6729C27.2309 47.4346 26.9128 47.2165 26.5947 47.0024C23.917 45.1929 21.7185 42.9149 19.9509 40.2128C19.2946 39.2111 18.8235 38.1246 18.6584 36.9372C18.2718 34.1301 20.2368 32.0298 23.0997 32.1873C23.913 32.2317 24.7344 32.3408 25.5317 32.5104C27.6859 32.9668 29.5381 32.5508 30.9675 30.7736C31.4708 30.1476 31.9661 29.5094 32.4493 28.8672C33.5284 27.4414 34.672 26.0964 36.3873 25.3937C37.6798 24.8645 39.0085 24.6909 40.3856 24.8969C40.5145 24.917 40.6433 24.9211 40.8366 24.9372C40.7843 24.6384 40.7722 24.3597 40.6796 24.1092C40.1521 22.6269 39.5964 21.1567 39.073 19.6704C38.924 19.2463 38.6462 19.2705 38.2999 19.319C36.2785 19.6017 34.2693 19.6259 32.3285 18.8989C28.5597 17.4893 26.4054 14.7549 25.8337 10.7684C25.6364 9.39105 25.6485 8.00567 25.9424 6.64452C26.0028 6.36179 26.2243 6.03867 26.4658 5.89326C26.788 5.70343 27.1141 5.90134 27.3718 6.18407C28.3704 7.27461 29.7233 7.63812 31.0924 7.92893C32.2802 8.17935 33.4761 8.36918 34.6639 8.62364C35.3162 8.76501 35.9524 8.98715 36.4758 9.14063C37.567 8.07433 38.6381 7.04034 39.6931 5.9902C40.4017 5.28337 41.1144 4.57654 41.7748 3.82528C42.3063 3.21539 42.6405 2.48029 42.8016 1.66845C42.9425 0.941422 43.5787 0.707159 44.0659 1.21204C46.6791 3.91818 48.483 8.3086 46.9167 12.4567C45.9423 15.0376 44.0699 16.7865 41.7305 18.1032C41.2755 18.3577 40.8004 18.5798 40.297 18.8343C40.3534 18.9676 40.4017 19.1009 40.4621 19.2261C41.497 21.3223 42.2137 23.5397 42.4553 25.8501C43.2284 33.2011 41.0258 39.5221 35.5538 44.5265C30.9957 48.6948 25.5397 50.4881 19.3912 49.9751C10.0979 49.2037 2.20589 42.0788 0.422127 32.9264C-1.46632 23.2287 3.09173 13.8542 11.8857 9.40317C14.4063 8.12684 17.084 7.42001 19.9026 7.23826C20.6394 7.18979 20.8891 7.43617 20.8851 8.17531C20.881 9.51222 21.3239 10.7562 21.638 12.0326C21.8957 13.0787 22.1454 14.1571 22.1695 15.2274C22.2299 17.9538 20.6435 19.6704 17.9336 19.9773C17.0035 20.0823 16.0693 20.147 15.1472 20.2883C13.6574 20.5145 12.9205 21.2294 12.6266 22.7198C12.4816 23.459 12.4132 24.2183 12.3125 24.9655C11.6723 29.7033 6.82032 30.4545 4.12656 28.8107C3.23266 28.2654 2.43138 27.6313 1.7831 26.8073C1.7066 26.7104 1.62204 26.6215 1.53748 26.5286L1.54554 26.5327ZM41.2433 28.742C41.207 28.12 41.1628 27.4939 41.1466 26.8679C41.1386 26.5771 40.9936 26.468 40.74 26.4196C38.6462 25.9874 36.7497 26.363 35.1833 27.8857C34.5753 28.4795 34.0639 29.1701 33.5204 29.8285C32.8842 30.6 32.3043 31.4239 31.6198 32.155C30.73 33.1041 29.6589 33.8029 28.3342 34.0048C27.251 34.1704 26.184 34.0533 25.1089 33.8635C24.2432 33.71 23.3493 33.605 22.4715 33.6373C20.8206 33.7019 19.7455 35.0711 20.116 36.6868C20.3213 37.5834 20.6515 38.5003 21.1347 39.2758C23.0835 42.3979 25.6847 44.8698 28.8616 46.7278C29.2039 46.9297 29.4858 46.962 29.8562 46.7722C37.1845 43.0038 40.8527 36.921 41.2393 28.738L41.2433 28.742ZM19.3227 8.71654C18.7268 8.80943 18.0745 8.87406 17.4383 9.01946C9.31275 10.8815 4.12253 15.8373 1.89182 23.8952C1.83948 24.0891 1.87572 24.3556 1.96833 24.5414C2.7535 26.0964 3.95341 27.2193 5.55598 27.9019C7.20284 28.6006 10.1986 27.9907 10.6979 25.4058C10.8791 24.4728 11.0079 23.5276 11.173 22.5906C11.4911 20.8094 12.4011 19.529 14.2171 19.0403C14.6117 18.9353 15.0143 18.8545 15.421 18.7979C16.4438 18.6566 17.4786 18.5879 18.4893 18.39C19.6851 18.1557 20.4421 17.3802 20.6193 16.1645C20.7159 15.5061 20.7763 14.7993 20.6435 14.1611C20.269 12.3638 19.7858 10.5906 19.3227 8.72058V8.71654ZM37.7362 9.98883C38.7267 11.0874 39.222 12.2709 39.4917 13.531C39.7535 14.771 39.8944 16.0393 40.0917 17.3358C42.9344 15.8939 45.2618 13.9794 45.8939 10.6512C46.4214 7.88046 45.4953 5.45705 43.8726 3.22347C43.5626 3.72027 43.3451 4.21707 42.9948 4.5927C41.9197 5.73978 40.7923 6.83839 39.689 7.96124C39.0367 8.62364 38.4005 9.30219 37.7362 9.99287V9.98883ZM38.469 17.4449C38.4046 15.4981 38.2113 13.6603 37.3214 11.976C37.1201 11.5964 36.8423 11.1763 36.4879 10.9784C35.7873 10.5826 35.0303 10.2231 34.2532 10.0333C31.8977 9.45568 29.4052 9.38297 27.2631 8.03394C26.7678 10.4412 27.9355 13.939 29.7475 15.7242C31.4306 17.3802 34.3579 18.1759 35.9766 17.9457C35.8517 17.873 35.743 17.8043 35.6303 17.7397C33.4439 16.5118 31.6641 14.8437 30.283 12.7475C30.0012 12.3234 30.0656 11.9033 30.4199 11.665C30.7743 11.4267 31.1689 11.5317 31.4708 11.9478C31.7044 12.2668 31.9218 12.594 32.1674 12.905C33.8183 14.9811 35.8839 16.4876 38.465 17.4529L38.469 17.4449Z" fill="#4FA481"/>
</svg>
