<svg width="56" height="50" viewBox="0 0 56 50" fill="none" xmlns="http://www.w3.org/2000/svg">
<path d="M0.505514 44.1708C0.505514 31.495 0.505514 18.8192 0.505514 6.14342C0.538567 6.06078 0.588142 5.98366 0.604669 5.90103C1.17759 2.97585 3.62351 0.893517 6.58725 0.893517C20.8716 0.882499 35.1615 0.882499 49.4458 0.893517C52.8117 0.893517 55.5 3.62589 55.5 6.98626C55.5 19.1057 55.5 31.225 55.5 43.3444C55.5 46.7048 52.8007 49.4207 49.4348 49.4262C35.1504 49.4372 20.8606 49.4317 6.57622 49.4262C3.9981 49.4262 1.73948 47.8176 0.858069 45.3937C0.71484 44.9916 0.621194 44.5784 0.5 44.1652L0.505514 44.1708ZM2.32893 15.4919C2.32893 15.6792 2.32893 15.8004 2.32893 15.9271C2.32893 25.0001 2.32894 34.0731 2.33444 43.1516C2.33444 43.5758 2.38953 44.011 2.4997 44.4186C3.05609 46.4183 4.67568 47.6082 6.85717 47.6082C20.9597 47.6082 35.0623 47.6082 49.1649 47.6082C49.6056 47.6082 50.0628 47.5477 50.487 47.432C52.5032 46.8701 53.6711 45.2615 53.6711 43.08C53.6711 34.0621 53.6711 25.0386 53.6711 16.0207C53.6711 15.8499 53.6711 15.6792 53.6711 15.5029H2.31792L2.32893 15.4919ZM53.6821 13.5803C53.6821 13.2828 53.6821 13.057 53.6821 12.8256C53.6821 10.8204 53.6821 8.81519 53.6656 6.80998C53.6656 6.51251 53.5994 6.20401 53.5168 5.91205C52.9494 3.8848 51.3188 2.71693 49.0547 2.71693C35.0237 2.71693 20.9928 2.71693 6.95633 2.71693C6.49359 2.71693 6.01983 2.761 5.57913 2.87669C3.57392 3.41104 2.35096 5.02513 2.33994 7.135C2.32892 9.14021 2.33994 11.1454 2.33994 13.1506C2.33994 13.2883 2.36198 13.4261 2.37299 13.5748H53.6876L53.6821 13.5803Z" fill="#4FA481"/>
<path d="M30.5395 21.5846C30.2585 22.9232 30.0106 24.0911 29.7627 25.259C28.8152 29.7597 27.8677 34.2604 26.9202 38.7611C26.8926 38.8988 26.8596 39.042 26.821 39.1797C26.6558 39.7527 26.1875 40.0667 25.7138 39.9344C25.1849 39.7857 24.915 39.3119 25.0417 38.717C25.3116 37.4279 25.587 36.1334 25.857 34.8443C26.788 30.4483 27.7135 26.0522 28.6445 21.6562C28.8097 20.885 29.4322 20.5049 29.9941 20.874C30.253 21.0447 30.3963 21.3918 30.534 21.5791L30.5395 21.5846Z" fill="#4FA481"/>
<path d="M17.7535 30.2886C19.285 31.5942 20.7558 32.8447 22.2267 34.0952C22.4195 34.255 22.6178 34.4147 22.7886 34.591C23.1797 34.9877 23.2127 35.522 22.8877 35.8911C22.5407 36.2767 22.0338 36.3318 21.5876 35.9682C20.6732 35.219 19.7862 34.4478 18.8828 33.6821C17.9133 32.8612 16.9492 32.0349 15.9852 31.2141C15.2195 30.5586 15.2084 30.0518 15.9631 29.4017C17.77 27.8537 19.5824 26.3168 21.3893 24.7688C21.7529 24.4548 22.144 24.262 22.6123 24.4823C23.2348 24.7743 23.2788 25.5786 22.6949 26.0854C21.6978 26.9558 20.6787 27.8042 19.6761 28.6635C19.0536 29.1979 18.4256 29.7267 17.759 30.2997L17.7535 30.2886Z" fill="#4FA481"/>
<path d="M38.2573 30.2886C36.8746 29.1097 35.5304 27.9639 34.1863 26.8181C33.8888 26.5647 33.5803 26.3168 33.2883 26.0524C32.8476 25.6447 32.7815 25.1159 33.101 24.7192C33.4205 24.3226 33.9934 24.2565 34.4397 24.6311C36.3843 26.2672 38.3179 27.9088 40.2349 29.5725C40.7693 30.0352 40.7252 30.6026 40.1523 31.0929C38.2683 32.7125 36.3733 34.3211 34.4727 35.9241C33.999 36.3263 33.4977 36.2932 33.1341 35.8966C32.776 35.5 32.8201 34.9436 33.2939 34.5249C34.66 33.3405 36.0427 32.1782 37.4144 31.0048C37.6844 30.7734 37.9543 30.542 38.2573 30.2831V30.2886Z" fill="#4FA481"/>
<path d="M10.0634 8.20383C10.0634 9.77385 8.76883 11.0684 7.20433 11.0794C5.62881 11.0905 4.28465 9.7463 4.30118 8.1818C4.31219 6.6228 5.61778 5.31722 7.17678 5.30069C8.74679 5.28416 10.0689 6.61179 10.0634 8.20383ZM6.17419 8.1818C6.17419 8.75471 6.59836 9.21195 7.16577 9.22847C7.71114 9.245 8.24549 8.72166 8.23448 8.17629C8.22346 7.62541 7.7497 7.16818 7.18781 7.16818C6.60938 7.16818 6.17969 7.60337 6.17419 8.1818Z" fill="#4FA481"/>
<path d="M18.8883 8.23671C18.8883 9.84528 17.6048 11.1013 15.9797 11.0848C14.4041 11.0737 13.1426 9.7902 13.1536 8.20366C13.1647 6.62263 14.4372 5.35009 16.0127 5.33357C17.5937 5.32255 18.8993 6.62814 18.8938 8.2312L18.8883 8.23671ZM14.9991 8.18713C14.9826 8.76005 15.4067 9.22279 15.9741 9.25584C16.5305 9.28889 17.0484 8.7931 17.0539 8.22569C17.0539 7.66379 16.6077 7.20656 16.0403 7.20105C15.4618 7.19004 15.0156 7.61421 14.9991 8.18713Z" fill="#4FA481"/>
<path d="M24.8821 5.38313C26.4576 5.39415 27.7356 6.68321 27.7301 8.25322C27.7301 9.84527 26.4025 11.1453 24.816 11.1233C23.2019 11.0958 21.9624 9.81772 21.9844 8.19262C22.0009 6.61159 23.279 5.37211 24.8765 5.38313H24.8821ZM25.8736 8.28077C25.8902 7.71336 25.4605 7.24511 24.8986 7.21756C24.3422 7.19002 23.8244 7.68581 23.8189 8.2422C23.8189 8.79859 24.2706 9.26133 24.8325 9.26684C25.4054 9.27786 25.8571 8.84266 25.8736 8.27526V8.28077Z" fill="#4FA481"/>
</svg>
