<svg width="56" height="56" viewBox="0 0 56 56" fill="none" xmlns="http://www.w3.org/2000/svg">
<path d="M34.401 8.23081H32.5925V2.78341H23.401C23.401 2.99741 23.401 3.20493 23.401 3.40597C23.401 5.56547 23.388 7.72498 23.4075 9.88448C23.4075 10.4616 23.1936 10.8054 22.6556 11.0194C21.5731 11.4474 20.5035 11.9013 19.4405 12.3618C18.9154 12.5887 18.5006 12.485 18.1052 12.0764C16.6014 10.5524 15.0846 9.04792 13.5742 7.53043C13.4252 7.38127 13.3085 7.21266 13.2113 7.09593C11.0203 9.28786 8.89422 11.4214 6.72274 13.5939C6.78108 13.6588 6.91721 13.8079 7.05981 13.9506C8.57012 15.4616 10.074 16.9856 11.6037 18.4836C12.0639 18.9375 12.1547 19.3785 11.8954 19.9687C11.4352 20.9933 11.0138 22.0374 10.599 23.0815C10.3916 23.6132 10.048 23.8467 9.47112 23.8402C7.31261 23.8207 5.1541 23.8337 2.99558 23.8337C2.78816 23.8337 2.58721 23.8337 2.35386 23.8337V32.9646H9.17295C8.99794 31.486 8.82292 30.001 8.63494 28.464H10.4629C11.1953 37.128 15.4476 43.0747 23.9973 45.3185C29.8052 46.8425 35.0492 45.2407 39.5801 41.2589C39.3792 41.2589 39.1783 41.2589 38.9773 41.2589C35.3085 41.2589 31.6461 41.2589 27.9773 41.2589C21.4953 41.2589 16.0439 36.4989 15.2725 30.0528C14.6762 25.0724 16.4976 21.0517 20.4711 18.0037C20.6526 17.8675 20.8471 17.7508 21.0804 17.5887C21.4175 18.1075 21.7286 18.6003 22.0722 19.1386C19.4146 20.9349 17.7552 23.3603 17.1588 26.5834C18.1894 26.5834 19.1553 26.5963 20.1211 26.5704C20.2637 26.5704 20.4193 26.4212 20.5359 26.311C21.7157 25.1437 22.8954 23.9699 24.0557 22.7831C24.2048 22.6275 24.3085 22.3616 24.315 22.1411C24.3409 21.2267 24.3214 20.3059 24.3279 19.3915C24.3279 18.6652 24.6455 18.3474 25.3715 18.3409C25.6956 18.3409 26.0262 18.289 26.3438 18.3474C27.9319 18.6327 29.1181 18.0491 30.0775 16.791C30.5247 16.2009 31.3156 15.8053 31.5748 15.1698C31.8406 14.5083 31.6526 13.6652 31.6591 12.9065C31.6591 12.5822 31.6526 12.258 31.6591 11.9337C31.6785 11.3501 32.0091 11.0194 32.599 11.0129C33.5519 10.9999 34.5112 11.0258 35.4641 10.9999C35.6844 10.9999 35.9437 10.8897 36.1058 10.734C36.9873 9.88448 37.8559 9.02198 38.6986 8.14002C38.8606 7.97141 38.9773 7.68607 38.9838 7.45261C39.0162 6.55768 38.9968 5.65626 38.9968 4.76133C38.9968 3.9961 39.3079 3.67834 40.0663 3.67834C40.9478 3.67834 41.8229 3.70428 42.698 3.65888C42.9832 3.64591 43.3138 3.49676 43.5277 3.30869C44.2148 2.67965 44.85 1.97927 45.5306 1.34374C45.7381 1.14919 46.0427 0.948154 46.3085 0.948154C49.3421 0.922214 52.3757 0.928699 55.4546 0.928699V2.75747C55.2472 2.75747 55.0463 2.75747 54.8453 2.75747C52.3044 2.75747 49.7634 2.7445 47.2225 2.77044C46.9437 2.77044 46.6002 2.92608 46.3927 3.11414C45.7445 3.70428 44.9019 4.24902 44.5972 5.00128C44.2796 5.77299 44.5065 6.7652 44.5 7.66013C44.5 7.83522 44.5 8.00383 44.5 8.17893C44.4806 8.82743 44.1629 9.16465 43.5083 9.17113C42.5943 9.1841 41.6738 9.15168 40.7599 9.19059C40.5071 9.19707 40.2024 9.32029 40.0209 9.4889C39.1653 10.306 38.3226 11.1426 37.5124 12.0051C37.3309 12.1996 37.1948 12.5174 37.1818 12.7833C37.1429 13.6393 37.1688 14.5018 37.1688 15.3643C37.1688 16.2268 36.8707 16.5122 35.9891 16.5186C35.127 16.5186 34.2714 16.4927 33.4092 16.5316C33.1564 16.5446 32.8583 16.6678 32.6768 16.8429C31.8017 17.673 30.9526 18.5225 30.1229 19.3915C29.9608 19.5601 29.8506 19.8454 29.8441 20.0789C29.8117 20.9933 29.8377 21.9142 29.8312 22.8285C29.8312 23.516 29.5006 23.8402 28.8135 23.8467C27.919 23.8532 27.018 23.8272 26.1234 23.8661C25.8577 23.8791 25.5271 24.0023 25.3391 24.1839C24.0622 25.4161 22.8047 26.6741 21.5666 27.9452C21.2166 28.3019 20.8471 28.451 20.3544 28.4381C19.2655 28.4121 18.183 28.4316 17.0227 28.4316C17.0227 29.6443 17.2171 30.7921 17.5996 31.9011C17.632 32.0048 17.8653 32.0891 18.008 32.0891C20.0887 32.1021 22.1694 32.0956 24.3409 32.0956C24.3409 31.3823 24.3409 30.6819 24.3409 29.9815C24.3409 29.5016 24.3409 29.0282 24.3409 28.5483C24.3474 27.8285 24.665 27.5107 25.3975 27.5107C27.4587 27.5107 29.52 27.5107 31.6721 27.5107C31.6721 27.2902 31.6721 27.0892 31.6721 26.8882C31.6721 25.3188 31.6721 23.7559 31.6721 22.1865C31.6721 21.3889 31.9832 21.0906 32.787 21.0906C34.8288 21.0906 36.8707 21.0906 39.0097 21.0906C39.0097 20.8895 39.0097 20.7079 39.0097 20.5264C39.0097 19.2294 39.0097 17.9259 39.0097 16.6289C39.0097 15.909 39.3338 15.5913 40.0598 15.5848C42.1211 15.5848 44.1824 15.5848 46.3409 15.5848C46.3409 15.3643 46.3409 15.1698 46.3409 14.9687C46.3409 13.0946 46.3409 11.2269 46.3409 9.35271C46.3409 8.55506 46.6455 8.25026 47.4493 8.25026C49.7569 8.25026 52.071 8.25026 54.3786 8.25026C55.2083 8.25026 55.5 8.55506 55.5 9.39811C55.5 19.6379 55.5 29.8777 55.5 40.1175C55.5 40.9541 55.2018 41.2589 54.3721 41.2589C52.9461 41.2589 51.5135 41.2589 49.8866 41.2589C50.4051 41.7583 50.8135 42.1409 51.2089 42.5365C51.7663 43.1071 51.7728 43.5546 51.2089 44.1188C48.7133 46.622 46.2177 49.1187 43.7157 51.6155C43.1258 52.2056 42.685 52.1991 42.0952 51.6155C40.4552 49.9812 38.8217 48.3535 37.2012 46.7063C36.942 46.4469 36.7345 46.395 36.4169 46.5507C35.7687 46.8619 34.8612 46.9722 34.5177 47.478C34.1871 47.9644 34.4204 48.8399 34.4204 49.5467C34.4204 51.3042 34.4204 53.0616 34.4204 54.819C34.4204 55.6167 34.1158 55.928 33.3185 55.928C29.7663 55.928 26.2142 55.928 22.662 55.928C21.9037 55.928 21.5925 55.6102 21.5925 54.845C21.5925 52.5298 21.586 50.2212 21.5925 47.906C21.5925 47.5429 21.5342 47.3159 21.1388 47.1927C20.4711 46.9722 19.7711 46.3885 19.1942 46.5053C18.6108 46.6155 18.1506 47.3807 17.6514 47.8801C16.4199 49.1058 15.1948 50.3379 13.9632 51.5636C13.2955 52.2315 12.8872 52.225 12.2195 51.5571C9.77578 49.1122 7.33206 46.6674 4.88833 44.2226C4.19476 43.5287 4.20124 43.1396 4.89481 42.4392C6.48939 40.8439 8.07101 39.2421 9.68503 37.6662C9.97672 37.3809 10.0351 37.1539 9.85356 36.7843C9.55539 36.1682 9.47761 35.2733 8.99794 34.962C8.49234 34.6377 7.63671 34.8517 6.93017 34.8452C5.15409 34.8452 3.37802 34.8452 1.60194 34.8452C0.804655 34.8452 0.5 34.534 0.5 33.7363C0.5 30.202 0.5 26.6677 0.5 23.1333C0.5 22.3033 0.798173 22.0114 1.64732 22.0114C3.94196 22.0114 6.23011 22.0049 8.52475 22.0179C8.89422 22.0179 9.10813 21.9531 9.23777 21.564C9.45816 20.896 10.0415 20.1956 9.92487 19.6185C9.81467 19.0348 9.04331 18.5744 8.55068 18.075C7.31261 16.8299 6.06806 15.5913 4.82351 14.3462C4.2142 13.7301 4.2142 13.3086 4.83648 12.686C7.30613 10.2152 9.77578 7.73795 12.2519 5.26716C12.8872 4.63163 13.3085 4.63163 13.9567 5.28013C15.5642 6.88193 17.1783 8.48372 18.7728 10.1115C19.0645 10.4033 19.2914 10.4552 19.6544 10.2801C20.2702 9.98176 21.1647 9.90394 21.4758 9.42405C21.7999 8.91822 21.586 8.0622 21.586 7.35533C21.586 5.57844 21.586 3.80155 21.586 2.02466C21.586 1.22701 21.8907 0.928699 22.7009 0.928699C26.2336 0.928699 29.7663 0.928699 33.2991 0.928699C34.1028 0.928699 34.414 1.23349 34.4204 2.01818C34.4204 4.07392 34.4204 6.13615 34.4204 8.25026L34.401 8.23081ZM53.6137 39.3912V10.1244H48.1818V39.3977H53.6137V39.3912ZM40.8571 17.433V39.3718H46.289V17.4395H40.8571V17.433ZM33.5259 22.9323V39.3653H38.9579V22.9323H33.5259ZM23.4399 47.1473V54.0408H32.5471V47.1343C29.5071 47.8477 26.4864 47.8477 23.4399 47.1408V47.1473ZM17.9042 44.8321C15.3114 43.2109 13.1788 41.0903 11.5778 38.5158C9.94431 40.15 8.33029 41.7647 6.81349 43.2822C8.90719 45.3769 11.0463 47.5169 13.1011 49.5727C14.6567 48.0357 16.2708 46.4404 17.9042 44.8257V44.8321ZM31.6267 29.3719H26.1429C26.1429 31.3563 26.1429 33.3018 26.1429 35.2408C26.1429 36.4406 26.1299 37.6468 26.1559 38.8465C26.1559 39.0021 26.3309 39.281 26.4281 39.281C28.1523 39.3069 29.8765 39.3004 31.6267 39.3004V29.3719ZM49.3161 43.2498C48.7004 42.6467 48.0975 42.0371 47.4688 41.4599C47.3326 41.3367 47.1058 41.2654 46.9178 41.2654C45.5242 41.2524 44.1305 41.2524 42.7369 41.2654C42.5619 41.2654 42.3415 41.3043 42.2183 41.4146C40.8571 42.6013 39.5153 43.801 38.2124 44.9554C39.7163 46.4664 41.3238 48.0811 42.8989 49.67C44.9926 47.5753 47.1252 45.4482 49.3161 43.2628V43.2498ZM18.4941 33.9438C19.8942 36.2525 21.787 37.8219 24.2761 38.7492V33.9438H18.4941ZM40.8701 5.50711V7.29048H42.6137V5.50711H40.8701ZM35.2955 12.8611H33.5259V14.625H35.2955V12.8611ZM26.1948 20.1891V21.9531H27.9579V20.1891H26.1948Z" fill="#4FA481"/>
</svg>
