<svg width="61" height="61" viewBox="0 0 61 61" fill="none" xmlns="http://www.w3.org/2000/svg">
<g clip-path="url(#clip0_1_325)">
<path d="M2.49578 38.39H58.5042V37.6872C58.5042 28.4111 58.5042 19.1489 58.5042 9.87277C58.5042 8.67811 58.2372 8.41107 57.0285 8.41107C56.5084 8.41107 55.9884 8.42512 55.4684 8.41107C54.85 8.38296 54.4986 8.00348 54.4986 7.41317C54.4986 6.83693 54.864 6.44339 55.4684 6.41528C56.2133 6.38717 56.9722 6.37312 57.7171 6.41528C59.207 6.49961 60.4016 7.73644 60.5 9.21219C60.5 9.42301 60.5 9.63384 60.5 9.8306C60.5 21.5383 60.5 33.2459 60.5 44.9536C60.5 47.2024 59.3194 48.383 57.0706 48.383C39.3616 48.383 21.6525 48.383 3.94343 48.383C1.66655 48.4251 0.5 47.2445 0.5 44.9536C0.5 33.2459 0.5 21.5383 0.5 9.8306C0.5 7.624 1.69466 6.42934 3.88721 6.42934C4.43535 6.42934 4.96943 6.41528 5.51757 6.42934C6.13598 6.45745 6.50141 6.82287 6.51546 7.39912C6.51546 8.00348 6.15004 8.39701 5.50351 8.41107C4.94132 8.42512 4.37913 8.41107 3.81694 8.41107C2.8331 8.41107 2.50984 8.73433 2.50984 9.71816C2.50984 16.4504 2.50984 23.1686 2.50984 29.9009C2.50984 32.487 2.50984 35.073 2.50984 37.6451V38.3619L2.49578 38.39ZM2.49578 40.442C2.49578 41.9599 2.49578 43.4076 2.49578 44.8693C2.49578 46.1904 2.73472 46.4153 4.05587 46.4153C21.6806 46.4153 39.2913 46.4153 56.916 46.4153C57.0566 46.4153 57.2112 46.4153 57.3517 46.4153C58.1388 46.3872 58.4902 46.0499 58.4902 45.2487C58.4902 43.7449 58.4902 42.2551 58.4902 40.7512C58.4902 40.6528 58.4621 40.5544 58.448 40.442H2.49578Z" fill="#4FA481"/>
<path d="M50.493 10.4491H10.507C10.507 10.7161 10.507 10.955 10.507 11.208C10.507 19.1068 10.507 26.9916 10.507 34.8904C10.507 35.1012 10.507 35.312 10.507 35.5088C10.4508 36.071 10.0573 36.4224 9.50913 36.4224C8.96099 36.4224 8.58151 36.0569 8.52529 35.4947C8.51123 35.312 8.52529 35.1153 8.52529 34.9325C8.52529 24.5601 8.52529 14.1876 8.52529 3.81519C8.49718 1.60858 9.69184 0.427979 11.8984 0.427979C24.2948 0.427979 36.6771 0.427979 49.0734 0.427979C51.3222 0.427979 52.4888 1.60858 52.4888 3.87141C52.4888 14.2439 52.4888 24.6163 52.4888 34.9888C52.4888 35.2136 52.5028 35.4526 52.4606 35.6775C52.3482 36.1975 51.9968 36.4505 51.4627 36.4364C50.9287 36.4364 50.6054 36.1413 50.507 35.6212C50.4649 35.3964 50.493 35.1574 50.493 34.9325C50.493 27.0337 50.493 19.149 50.493 11.2502V10.4491ZM50.493 8.39706C50.493 6.85103 50.493 5.37527 50.493 3.89952C50.493 2.66269 50.24 2.40971 48.9891 2.40971C36.663 2.40971 24.337 2.40971 12.0109 2.40971C11.9266 2.40971 11.8422 2.40971 11.7579 2.40971C10.8443 2.40971 10.507 2.74702 10.507 3.64653C10.507 5.08012 10.507 6.51371 10.507 7.96136C10.507 8.10191 10.5351 8.24246 10.5492 8.39706H50.507H50.493Z" fill="#4FA481"/>
<path d="M24.1121 54.3985H36.9442C36.6912 54.0611 36.4382 53.766 36.2414 53.4568C35.9041 52.9368 35.5668 52.4027 35.2717 51.8545C34.9765 51.2923 35.1733 50.7161 35.6652 50.4631C36.1712 50.2101 36.7334 50.3788 37.0285 50.955C37.6329 52.1356 38.434 53.1757 39.4459 54.033C39.6989 54.2438 40.0925 54.3703 40.4298 54.4125C41.006 54.4968 41.6104 54.4125 42.1585 54.5249C43.5359 54.8201 44.4495 56.0007 44.4776 57.4062C44.4776 58.0105 44.4776 58.6149 44.4776 59.2193C44.4776 60.0766 44.1121 60.428 43.2548 60.428C40.233 60.428 37.2112 60.428 34.1894 60.428C28.7783 60.428 23.3532 60.428 17.9421 60.428C16.7615 60.428 16.4804 60.1469 16.4804 58.9522C16.4804 58.4041 16.4663 57.87 16.4804 57.3219C16.5366 55.7196 17.8296 54.4687 19.4319 54.4266C19.4459 54.4266 19.474 54.4266 19.4881 54.4266C20.8936 54.7358 21.8212 53.9909 22.5802 52.9508C23.0299 52.3464 23.4516 51.728 23.831 51.0956C24.2386 50.435 24.7446 50.182 25.2927 50.4631C25.8409 50.7442 25.9814 51.3486 25.5879 52.0232C25.1381 52.8103 24.6041 53.5692 24.084 54.3844L24.1121 54.3985ZM18.5043 58.39H42.4677C42.5942 56.6613 42.3834 56.4364 40.739 56.4364C37.0566 56.4364 33.3743 56.4364 29.6778 56.4364C26.3468 56.4364 23.0159 56.4364 19.6849 56.4364C18.8556 56.4364 18.5043 56.7878 18.4902 57.603C18.4902 57.8559 18.4902 58.0949 18.4902 58.39H18.5043Z" fill="#4FA481"/>
<path d="M34.5548 15.2559C34.4705 15.6072 34.4283 15.804 34.358 16.0008C32.4185 21.8335 30.4648 27.6663 28.5112 33.499C28.2582 34.272 27.7944 34.5672 27.1901 34.3845C26.5857 34.1877 26.3608 33.6817 26.5857 32.979C27.4149 30.4491 28.2582 27.9333 29.1015 25.4035C30.2118 22.0725 31.3222 18.7415 32.4466 15.4105C32.5309 15.1434 32.6574 14.7921 32.8682 14.6796C33.1634 14.525 33.5991 14.4407 33.8942 14.5391C34.1894 14.6515 34.3721 15.031 34.5548 15.2559Z" fill="#4FA481"/>
<path d="M18.0686 24.4337C19.7411 25.8251 21.3433 27.1463 22.9315 28.4815C23.1423 28.6642 23.3813 28.875 23.4797 29.128C23.6624 29.5778 23.4937 29.9994 23.1002 30.2805C22.6645 30.5897 22.2428 30.5054 21.8493 30.1821C20.5422 29.0858 19.2351 28.0036 17.9139 26.9074C17.2955 26.3873 16.6631 25.8673 16.0447 25.3473C15.3138 24.7289 15.3138 24.1386 16.0306 23.5342C17.9139 21.9601 19.7973 20.3859 21.6806 18.8118C22.285 18.3058 22.8753 18.3058 23.2688 18.7837C23.6624 19.2756 23.564 19.8378 22.9596 20.3438C21.3574 21.693 19.7411 23.0282 18.0686 24.4337Z" fill="#4FA481"/>
<path d="M42.9315 24.4336C41.2449 23.0141 39.6145 21.6648 37.9842 20.3015C37.3517 19.7674 37.3236 19.0225 37.9139 18.6149C38.3496 18.3198 38.7853 18.362 39.1788 18.6852C41.1465 20.3156 43.1142 21.96 45.0678 23.6044C45.6581 24.1104 45.6441 24.7428 45.0397 25.2629C43.1001 26.8932 41.1465 28.5236 39.1929 30.1399C38.6588 30.5756 38.0966 30.5334 37.7031 30.0696C37.3236 29.6058 37.3939 29.0436 37.928 28.5939C39.5724 27.2165 41.2168 25.8532 42.9315 24.4196V24.4336Z" fill="#4FA481"/>
<path d="M30.5211 44.4197C29.8746 44.4197 29.2281 44.4197 28.5816 44.4197C27.9351 44.4056 27.5275 43.998 27.5275 43.4218C27.5275 42.8596 27.9491 42.4379 28.5956 42.4239C29.9027 42.4098 31.2239 42.4098 32.531 42.4239C33.1775 42.4239 33.5851 42.8596 33.571 43.4358C33.571 44.0261 33.1634 44.4056 32.5169 44.4197C31.8564 44.4197 31.1817 44.4197 30.5211 44.4197Z" fill="#4FA481"/>
<path d="M41.4697 6.42938C39.5583 6.42938 37.6328 6.42938 35.7213 6.42938C34.8921 6.42938 34.4845 6.10612 34.4845 5.44554C34.4845 4.78496 34.8921 4.43359 35.7073 4.43359C39.5583 4.43359 43.4093 4.43359 47.2603 4.43359C48.0474 4.43359 48.4971 4.81307 48.4831 5.4596C48.469 6.07801 48.0333 6.42938 47.2884 6.44343C45.3489 6.44343 43.4093 6.44343 41.4838 6.44343L41.4697 6.42938Z" fill="#4FA481"/>
<path d="M14.4986 5.40346C14.5126 5.93755 14.0629 6.41541 13.5288 6.42946C12.9947 6.44352 12.5168 6.00782 12.5028 5.45968C12.4887 4.91154 12.9244 4.44774 13.4726 4.43368C14.0207 4.41963 14.4845 4.85532 14.4986 5.40346Z" fill="#4FA481"/>
<path d="M18.4902 5.40338C18.4902 5.93746 18.0545 6.40127 17.5204 6.41532C16.9863 6.41532 16.5225 5.97962 16.5084 5.44554C16.5084 4.8974 16.9441 4.44765 17.4782 4.43359C18.0263 4.43359 18.4761 4.86929 18.4902 5.40338Z" fill="#4FA481"/>
<path d="M22.4957 5.44563C22.4957 5.97971 22.0179 6.42946 21.4838 6.41541C20.9356 6.41541 20.4999 5.93755 20.514 5.40346C20.514 4.85532 20.9919 4.41963 21.5259 4.43368C22.0741 4.43368 22.5098 4.91154 22.4957 5.44563Z" fill="#4FA481"/>
</g>
<defs>
<clipPath id="clip0_1_325">
<rect width="60" height="60" fill="white" transform="translate(0.5 0.427979)"/>
</clipPath>
</defs>
</svg>
