<svg width="56" height="53" viewBox="0 0 56 53" fill="none" xmlns="http://www.w3.org/2000/svg">
<path d="M38.3353 46.9645C39.4746 48.438 40.9405 49.3266 42.695 49.6836C45.6648 50.2912 48.0498 49.2507 49.7208 46.7138C52.5615 42.392 54.0274 37.6676 53.7312 32.4648C53.6249 30.5507 53.2679 28.6822 52.5691 26.7606C52.0906 27.4822 51.6956 28.1202 51.2627 28.7354C49.0904 31.8495 46.2497 34.1661 42.8545 35.8447C41.7988 36.3688 40.7354 36.9081 39.7176 37.4929C37.6669 38.6778 36.5655 40.4096 36.7706 42.8477C36.8238 43.4781 36.406 43.987 35.8971 44.0098C35.3806 44.0326 34.9857 43.5845 34.9401 42.9313C34.7426 40.121 35.7756 37.8727 38.1606 36.3764C39.7632 35.3662 41.4722 34.5307 43.1432 33.6269C46.7814 31.6596 49.4322 28.743 51.3083 25.0896C51.3614 24.9908 51.407 24.8921 51.4602 24.7934C51.7032 24.3528 51.84 23.7908 52.4932 23.7908C53.1919 23.7908 53.4046 24.3528 53.6325 24.8617C55.2655 28.4923 55.7668 32.3053 55.3718 36.2473C54.9465 40.4931 53.3059 44.2757 51.0728 47.8759C48.2017 52.5015 41.8216 52.7901 38.2137 49.5469C37.6517 49.038 37.1959 48.4228 36.6491 47.8987C36.482 47.7392 36.163 47.6177 35.9427 47.6556C33.4742 48.1038 31.0057 48.0658 28.5295 47.7848C28.3776 47.7696 28.2181 47.7316 28.0738 47.6784C27.6257 47.5037 27.3826 47.1543 27.4586 46.6834C27.5345 46.2277 27.846 45.9163 28.3473 45.9391C28.9245 45.9618 29.5018 46.0378 30.079 46.091C37.4466 46.7822 43.014 43.6984 47.2751 37.8879C47.708 37.2955 48.0954 36.665 48.5283 36.065C48.8853 35.5713 49.379 35.465 49.8044 35.7612C50.2525 36.065 50.374 36.5511 50.0474 37.0524C47.389 41.1995 44.1002 44.6478 39.429 46.5467C39.0796 46.691 38.7302 46.8125 38.3125 46.9796L38.3353 46.9645Z" fill="#4FA481"/>
<path d="M8.64458 28.1807C7.01916 28.3175 5.75071 29.0162 4.64937 30.0416C2.47708 32.0544 1.69475 35.1913 3.15307 38.0472C6.13048 43.8577 10.4903 48.058 16.8249 50.01C17.5236 50.2227 18.2376 50.3822 19.1187 50.6101C18.9288 50.2379 18.8301 50.0328 18.7161 49.8277C16.8249 46.2579 15.9058 42.4678 16.1033 38.4194C16.1717 36.9687 16.2552 35.5179 16.278 34.0672C16.3084 31.705 15.2982 29.9429 13.1639 28.8643C12.5486 28.5529 12.3284 28.044 12.5486 27.5655C12.7613 27.1022 13.293 26.9427 13.8702 27.2161C16.3388 28.3858 17.7743 30.3454 17.9794 33.0494C18.1009 34.69 17.9794 36.3534 17.8806 38.0016C17.6148 42.4298 18.6629 46.5009 21.0251 50.2531C21.1922 50.5189 21.4277 50.762 21.5112 51.0506C21.6176 51.4 21.7771 51.9089 21.61 52.1368C21.4125 52.4102 20.8884 52.6077 20.5314 52.5849C17.7135 52.3798 15.0551 51.5747 12.541 50.2987C7.33057 47.6554 3.64678 43.5463 1.18585 38.3055C-0.46995 34.7736 0.973197 30.3454 4.42912 27.9985C5.68996 27.1402 7.07991 26.6237 8.5914 26.4718C8.99396 26.4338 9.20663 26.2895 9.34335 25.8717C10.1181 23.4868 11.3485 21.3449 12.9132 19.4004C13.4069 18.7928 13.8247 18.6789 14.326 19.0434C14.7741 19.37 14.7817 19.9093 14.3108 20.517C12.7689 22.4842 11.5156 24.6109 10.7713 27.011C9.4193 31.348 9.95098 35.5711 11.622 39.7106C11.9942 40.6373 12.4575 41.5335 12.8828 42.445C13.179 43.0678 13.1031 43.5463 12.6474 43.7894C12.1764 44.0476 11.66 43.8425 11.3409 43.2273C9.2598 39.2093 8.04454 34.9863 8.36355 30.4138C8.40912 29.7074 8.53065 29.0011 8.6294 28.1959L8.64458 28.1807Z" fill="#4FA481"/>
<path d="M39.7707 12.0026C40.5835 10.0506 40.5151 8.12891 39.6948 6.26043C38.5479 3.67039 36.5427 2.35638 33.664 2.23485C27.4358 1.96901 21.8759 3.60963 17.1287 7.73395C16.4375 8.33399 15.8071 9.00239 15.0324 9.75433C15.8679 9.8151 16.5439 9.86827 17.2123 9.91384C21.1467 10.1721 24.671 11.5848 27.9294 13.7495C29.008 14.4635 30.1018 15.1623 31.2487 15.7623C33.1475 16.7649 35.0312 16.6358 36.8389 15.4813C36.9149 15.4357 36.9832 15.3826 37.0668 15.337C37.5908 15.0484 38.1073 15.1319 38.3656 15.5648C38.6694 16.0813 38.5327 16.5143 38.0618 16.8409C35.9199 18.3144 33.6108 18.7473 31.2183 17.6232C29.7751 16.9396 28.408 16.0585 27.0712 15.1775C24.4811 13.4761 21.7392 12.1545 18.6402 11.7823C17.0072 11.5848 15.3438 11.6076 13.6956 11.5696C13.2019 11.5545 12.6474 11.5696 12.5031 11.0607C12.4044 10.7038 12.5411 10.1645 12.769 9.84548C16.1185 5.17429 20.6834 2.31081 26.2281 0.981605C29.0991 0.298015 32.0234 0.070152 34.9476 0.457519C38.077 0.875268 40.1657 2.77413 41.3658 5.62242C42.3608 7.99219 42.3608 10.3999 41.3126 12.7773C41.1759 13.0811 41.1151 13.309 41.3886 13.6052C43.0671 15.4661 44.2672 17.6308 45.2243 19.9322C45.5509 20.7221 45.4597 21.1855 44.9128 21.4361C44.3432 21.6944 43.8647 21.4285 43.5457 20.6462C42.3912 17.7903 40.7885 15.2382 38.4491 13.1875C35.6388 10.7266 32.3044 9.43533 28.6586 8.88086C27.6256 8.72135 26.5699 8.67578 25.5293 8.57704C25.4154 8.56945 25.309 8.56185 25.1951 8.54666C24.6254 8.47071 24.2912 8.17448 24.3292 7.56685C24.3596 7.05795 24.7622 6.75414 25.385 6.79211C30.5879 7.08834 35.4262 8.39475 39.5049 11.8355C39.5733 11.8887 39.6492 11.9266 39.7783 12.0026H39.7707Z" fill="#4FA481"/>
</svg>
