<svg width="56" height="54" viewBox="0 0 56 54" fill="none" xmlns="http://www.w3.org/2000/svg">
<path d="M6.013 3.33432C6.013 2.84552 6.00681 2.4124 6.013 1.97928C6.03156 1.16872 6.59461 0.593293 7.36804 0.587106C8.17241 0.580918 8.74165 1.16254 8.75403 2.00403C8.76022 2.41858 8.75403 2.83933 8.75403 3.2972H32.5756C32.5756 2.86408 32.5694 2.43096 32.5756 1.99784C32.588 1.16254 33.1696 0.574731 33.974 0.587106C34.7474 0.599481 35.3042 1.17491 35.3228 1.98546C35.329 2.40621 35.3228 2.82695 35.3228 3.33432C36.2447 3.33432 37.1543 3.33432 38.0577 3.33432C39.4003 3.34051 40.5017 4.20675 40.7616 5.51229C40.8482 5.93304 40.8111 6.38472 40.8111 6.82403C40.8172 7.64695 40.8111 8.46369 40.8111 9.28662C40.8111 10.4437 40.5945 10.6664 39.4622 10.6664C27.3658 10.6664 15.2632 10.6664 3.16678 10.6664C2.91928 10.6664 2.67179 10.6664 2.33767 10.6664V11.2852C2.33767 18.8833 2.33767 26.4753 2.33767 34.0734C2.33767 35.1067 2.63466 35.4037 3.66177 35.4037C5.02919 35.4037 6.39043 35.4037 7.82592 35.2738C7.22574 34.6984 6.64412 34.0982 6.02537 33.5475C5.62938 33.1948 5.51181 32.7803 5.54894 32.2729C5.67887 30.6394 7.15767 29.1482 8.79115 28.9997C9.32327 28.9502 9.73164 29.0987 10.1153 29.4886C11.9467 31.351 13.8092 33.1886 15.6468 35.051C15.9129 35.3171 16.1727 35.4223 16.544 35.4161C18.7405 35.4037 20.9309 35.4099 23.1274 35.4099C23.9256 35.4099 24.3154 35.7069 24.3216 36.3071C24.3278 36.932 23.9318 37.2352 23.0965 37.2352C21.4011 37.2352 19.7058 37.2352 17.9052 37.2352C18.0599 37.4208 18.1527 37.5446 18.2641 37.656C19.3531 38.7511 20.4606 39.8277 21.5372 40.9415C21.7724 41.189 21.9704 41.5231 22.0632 41.851C22.3725 42.9276 22.6324 44.0228 22.8985 45.1118C23.1088 45.978 22.5396 46.5597 21.6796 46.3555C20.572 46.0894 19.4583 45.8172 18.3631 45.5016C18.0352 45.4088 17.701 45.1984 17.4597 44.9571C14.9909 42.5131 12.5345 40.0567 10.0905 37.5879C9.82445 37.3218 9.56458 37.2166 9.19333 37.2228C7.22573 37.2414 5.26432 37.2352 3.29672 37.229C1.65705 37.229 0.5 36.0596 0.5 34.4137C0.5 24.9841 0.5 15.5607 0.5 6.13104C0.5 4.49756 1.67561 3.34051 3.32146 3.33432C4.19389 3.33432 5.06632 3.33432 5.99443 3.33432H6.013ZM32.5508 5.20292H8.78496C8.70452 6.43422 8.28378 6.97871 7.42373 6.99727C6.53893 7.01584 6.13674 6.52703 5.95112 5.17199C5.04775 5.17199 4.13202 5.14724 3.22247 5.17817C2.75223 5.19674 2.39954 5.49992 2.37479 5.96398C2.32529 6.90446 2.36242 7.85114 2.36242 8.79163H38.992C38.992 7.87589 39.0043 7.00346 38.992 6.12485C38.9796 5.59892 38.6826 5.22149 38.1628 5.19055C37.2347 5.14105 36.3066 5.17817 35.3785 5.17817C35.2176 6.52703 34.8093 7.02202 33.9059 6.99727C33.0582 6.97253 32.6499 6.44659 32.5447 5.20292H32.5508ZM11.5631 33.5475C11.0557 34.0487 10.5979 34.5004 10.1214 34.9706C10.2638 35.1191 10.3999 35.2738 10.5484 35.4161C13.1409 38.0086 15.752 40.5764 18.3074 43.1937C18.9942 43.8991 19.8295 43.9114 20.6648 44.1404C20.6277 43.0205 20.3493 42.3398 19.6563 41.6468C19.1551 41.1457 18.6601 40.6507 18.1589 40.1495C15.9624 37.9529 13.7658 35.7502 11.5631 33.5475ZM10.1833 32.1491C9.86776 31.8398 9.52745 31.5675 9.25521 31.2334C8.92109 30.825 8.57459 30.8374 8.23428 31.1468C7.97441 31.3819 7.73929 31.6665 7.55985 31.9697C7.49179 32.0873 7.5351 32.3595 7.62791 32.4709C7.96822 32.8731 8.35184 33.2319 8.72309 33.6094C9.23046 33.1082 9.68214 32.6565 10.1833 32.1553V32.1491Z" fill="#4FA481"/>
<path d="M37.1357 15.9629C37.4946 13.6983 38.8992 12.4175 41.0895 12.498C42.9148 12.5598 44.3626 14.0696 44.5111 16.1114C44.6287 16.13 44.7525 16.1547 44.8762 16.1671C46.7077 16.3465 48.137 17.9058 48.1555 19.7496C48.1555 20.0342 48.1555 20.325 48.1555 20.6097C48.1493 21.315 47.8214 21.6553 47.0975 21.6553C44.7339 21.6615 42.3641 21.6553 40.0005 21.6553C39.3694 21.6553 38.992 21.2965 38.9981 20.7334C38.9981 20.1766 39.3818 19.8301 40.0129 19.8301C41.9001 19.8301 43.7934 19.8301 45.6806 19.8301C45.8848 19.8301 46.0889 19.8301 46.2993 19.8301C46.1817 18.6854 45.5073 18.0357 44.4369 17.9986C44.3998 17.9986 44.3626 17.9986 44.3193 17.9986C42.9767 18.0728 42.5869 17.8377 42.6487 16.3465C42.6982 15.1833 41.8753 14.3418 40.8358 14.3356C39.7901 14.3356 38.9672 15.1771 39.0105 16.3342C39.0662 17.7696 38.7692 18.0481 37.2966 18.0048C36.1829 17.9738 35.5023 18.6359 35.36 19.8301C35.6446 19.8301 35.923 19.8239 36.2014 19.8301C36.7892 19.8486 37.1605 20.1951 37.1729 20.7272C37.179 21.2655 36.814 21.643 36.2386 21.6553C35.6446 21.6677 35.0568 21.6739 34.4628 21.6553C33.8502 21.6368 33.5223 21.2903 33.5161 20.6777C33.5037 20.1085 33.5161 19.5392 33.5161 18.9205C32.0311 18.9205 30.4657 18.9019 28.9065 18.9329C28.3867 18.9453 28.0897 19.2979 28.0279 19.8239C28.0093 19.9909 28.0217 20.1642 28.0217 20.3374C28.0217 30.3734 28.0217 40.4156 28.0217 50.4516C28.0217 51.6458 28.2753 51.8995 29.4571 51.8995C37.0739 51.8995 44.6844 51.8995 52.3011 51.8995C53.4025 51.8995 53.6809 51.621 53.6809 50.5073C53.6809 40.428 53.6809 30.3549 53.6809 20.2755C53.6809 19.1989 53.3963 18.9143 52.332 18.9143C51.5896 18.9143 50.8409 18.9143 50.0984 18.9143C49.4673 18.9081 49.096 18.5493 49.096 17.9924C49.096 17.4355 49.4796 17.0952 50.1108 17.089C50.9523 17.0828 51.7876 17.089 52.629 17.089C54.3491 17.089 55.5 18.2399 55.5 19.9476C55.5 29.7361 55.5 39.5246 55.5 49.3193C55.5 49.8947 55.5 50.464 55.5 51.0394C55.4814 52.5306 54.2935 53.7309 52.8085 53.7309C44.8329 53.7309 36.8573 53.7309 28.8755 53.7309C27.3905 53.7309 26.1902 52.5182 26.1902 51.0332C26.1902 40.6136 26.1902 30.194 26.1902 19.7744C26.1902 18.2894 27.3967 17.1014 28.8941 17.089C30.6699 17.0828 32.4457 17.0952 34.2153 17.0767C34.4937 17.0767 34.7845 16.9405 35.0568 16.8353C35.7374 16.5693 36.4056 16.2847 37.1543 15.9753L37.1357 15.9629Z" fill="#4FA481"/>
<path d="M35.3292 23.4929C38.3919 23.4929 40.8298 25.9431 40.8298 29.0183C40.8298 32.0501 38.3734 34.488 35.3353 34.488C32.2726 34.488 29.8347 32.0378 29.8347 28.9626C29.8347 25.9308 32.2849 23.4929 35.3292 23.4929ZM34.4134 25.5348C32.9037 25.7142 31.5858 27.4591 31.6724 29.1235C31.7714 31.0849 33.3863 32.6441 35.323 32.6503C36.975 32.6565 38.6827 31.3076 38.7632 29.9031C37.6989 29.9031 36.6285 29.9031 35.5643 29.9031C34.7042 29.9031 34.4196 29.6061 34.4134 28.7337C34.4134 27.6694 34.4134 26.6052 34.4134 25.5348ZM38.7879 28.0469C38.5837 26.8341 37.4391 25.6956 36.2758 25.5348V28.0469H38.7879Z" fill="#4FA481"/>
<path d="M41.7455 42.9957C41.7455 44.8272 41.7455 46.6587 41.7455 48.484C41.7455 49.2079 41.4114 49.6039 40.8174 49.5977C40.2296 49.5977 39.9141 49.2017 39.9141 48.4654C39.9141 44.7839 39.9141 41.1086 39.9141 37.427C39.9141 36.7031 40.242 36.3071 40.836 36.3133C41.4238 36.3133 41.7394 36.7093 41.7394 37.4456C41.7394 39.2956 41.7394 41.1457 41.7394 42.9957H41.7455Z" fill="#4FA481"/>
<path d="M43.5769 43.3607C43.5769 41.6839 43.5769 40.0071 43.5769 38.3303C43.5769 37.6373 43.8925 37.2537 44.4617 37.2413C45.0619 37.2228 45.4022 37.6188 45.4022 38.3365C45.4022 41.7272 45.4022 45.1241 45.4022 48.5148C45.4022 49.2078 45.0866 49.5914 44.5174 49.61C43.9172 49.6286 43.5769 49.2388 43.5769 48.5148C43.5769 46.8009 43.5769 45.0808 43.5769 43.3669V43.3607Z" fill="#4FA481"/>
<path d="M47.2706 24.4087C48.4338 24.4087 49.5971 24.4087 50.7603 24.4087C51.4347 24.4087 51.8245 24.749 51.8183 25.3244C51.8183 25.8937 51.4285 26.234 50.7479 26.234C48.4029 26.234 46.0579 26.234 43.719 26.234C43.0446 26.234 42.6548 25.8937 42.661 25.3182C42.661 24.7428 43.0508 24.4087 43.7252 24.4087C44.907 24.4087 46.0888 24.4087 47.2706 24.4087Z" fill="#4FA481"/>
<path d="M47.2273 29.903C46.064 29.903 44.9008 29.903 43.7376 29.903C43.0508 29.903 42.6672 29.5751 42.661 28.9996C42.6548 28.418 43.0322 28.0715 43.7128 28.0715C46.0579 28.0715 48.4029 28.0715 50.7417 28.0715C51.4285 28.0715 51.8122 28.3995 51.8184 28.9749C51.8245 29.5689 51.4347 29.903 50.7108 29.903C49.5476 29.903 48.3843 29.903 47.2211 29.903H47.2273Z" fill="#4FA481"/>
<path d="M47.2335 33.5661C46.0517 33.5661 44.8699 33.5661 43.6881 33.5661C43.0508 33.5661 42.6672 33.2258 42.6548 32.6751C42.6425 32.0935 43.0261 31.7408 43.6943 31.7346C46.0579 31.7346 48.4215 31.7346 50.7851 31.7346C51.4224 31.7346 51.806 32.0749 51.8184 32.6256C51.8308 33.2072 51.4472 33.5599 50.7789 33.5661C49.5971 33.5661 48.4153 33.5661 47.2335 33.5661Z" fill="#4FA481"/>
<path d="M38.0762 45.0808C38.0762 46.244 38.0762 47.4073 38.0762 48.5705C38.0762 49.2078 37.7358 49.5914 37.1913 49.6038C36.6097 49.6162 36.2509 49.2326 36.2509 48.5643C36.2509 46.2007 36.2509 43.8371 36.2509 41.4735C36.2509 40.83 36.585 40.4526 37.1357 40.4402C37.7173 40.4279 38.0762 40.8115 38.0762 41.4797C38.0762 42.6801 38.0762 43.8804 38.0762 45.0808Z" fill="#4FA481"/>
<path d="M47.2399 45.6502C47.2399 44.7159 47.2399 43.7816 47.2399 42.8473C47.2399 42.2038 47.574 41.8264 48.1247 41.814C48.7063 41.8016 49.0652 42.1853 49.0652 42.8473C49.0652 44.753 49.0652 46.6588 49.0652 48.5645C49.0652 49.208 48.731 49.5854 48.1803 49.5978C47.5987 49.6102 47.2461 49.2265 47.2399 48.5645C47.2399 47.5931 47.2399 46.6216 47.2399 45.6502Z" fill="#4FA481"/>
<path d="M32.5819 46.6215C32.5819 45.9532 32.5757 45.2912 32.5819 44.6229C32.5881 44.0289 32.9346 43.6639 33.4667 43.6453C34.0236 43.6329 34.401 44.0104 34.4072 44.6229C34.4134 45.9532 34.4134 47.2897 34.4072 48.62C34.4072 49.2326 34.0236 49.61 33.4667 49.5976C32.9346 49.5852 32.5943 49.214 32.5819 48.62C32.5695 47.9518 32.5819 47.2897 32.5819 46.6215Z" fill="#4FA481"/>
<path d="M9.65739 16.1609C9.33565 16.1609 9.00772 16.1795 8.68597 16.1609C8.18479 16.13 7.85067 15.7525 7.84448 15.2575C7.84448 14.7687 8.17241 14.3666 8.6674 14.3418C9.32946 14.3171 9.9977 14.3171 10.6659 14.3418C11.1609 14.3604 11.5012 14.7502 11.5074 15.239C11.5074 15.7278 11.1733 16.1176 10.6845 16.1547C10.3442 16.1795 9.9977 16.1547 9.65739 16.1547V16.1609Z" fill="#4FA481"/>
<path d="M17.0328 14.3294C17.3546 14.3294 17.6825 14.3109 18.0043 14.3294C18.4992 14.3666 18.8396 14.7502 18.8334 15.239C18.8334 15.7278 18.4931 16.1238 17.9981 16.1424C17.336 16.1671 16.6678 16.1671 15.9995 16.1424C15.5045 16.1238 15.1704 15.7278 15.1704 15.2328C15.1704 14.744 15.5107 14.3604 16.0057 14.3233C16.346 14.2985 16.6925 14.3233 17.0328 14.3233V14.3294Z" fill="#4FA481"/>
<path d="M24.3401 14.3293C24.6618 14.3293 24.9898 14.3107 25.3115 14.3293C25.8127 14.3602 26.1592 14.7253 26.1654 15.2141C26.1778 15.7277 25.8251 16.1298 25.2991 16.1484C24.6556 16.1731 24.006 16.1731 23.3625 16.1484C22.8551 16.1298 22.521 15.7524 22.5086 15.2636C22.4962 14.75 22.8489 14.3602 23.3749 14.3293C23.6966 14.3107 24.0183 14.3293 24.3463 14.3293H24.3401Z" fill="#4FA481"/>
<path d="M9.65739 20.7395C9.35421 20.7395 9.05102 20.7519 8.74784 20.7395C8.20954 20.7148 7.85067 20.3497 7.84448 19.8423C7.84448 19.3288 8.19098 18.939 8.7231 18.9204C9.34803 18.9019 9.97914 18.9019 10.6041 18.9204C11.1424 18.9328 11.5012 19.304 11.5074 19.8176C11.5074 20.3311 11.1609 20.7148 10.6288 20.7395C10.3071 20.7581 9.98533 20.7395 9.65739 20.7395Z" fill="#4FA481"/>
<path d="M17.002 20.7395C16.6802 20.7395 16.3523 20.7581 16.0306 20.7395C15.5232 20.7086 15.1829 20.3435 15.1767 19.8547C15.1643 19.3412 15.517 18.939 16.043 18.9204C16.6864 18.8957 17.3361 18.8957 17.9796 18.9204C18.4808 18.939 18.8273 19.3164 18.8335 19.8052C18.8459 20.3188 18.4932 20.7086 17.9672 20.7395C17.6455 20.7581 17.3237 20.7395 16.9958 20.7395H17.002Z" fill="#4FA481"/>
<path d="M9.70689 23.4929C10.0286 23.4929 10.3566 23.4744 10.6783 23.4929C11.1733 23.5301 11.5136 23.9137 11.5136 24.4025C11.5136 24.8913 11.1733 25.2873 10.6783 25.312C10.0163 25.3368 9.34802 25.3368 8.67978 25.312C8.18479 25.2935 7.84448 24.8975 7.84448 24.4025C7.84448 23.9137 8.1786 23.5301 8.67359 23.4929C9.0139 23.4682 9.3604 23.4929 9.70071 23.4929H9.70689Z" fill="#4FA481"/>
<path d="M17.0451 23.493C17.3483 23.493 17.6514 23.4807 17.9546 23.493C18.4867 23.524 18.8394 23.9014 18.8332 24.415C18.8332 24.9285 18.4744 25.2998 17.9361 25.3183C17.3111 25.3369 16.68 25.3369 16.0551 25.3183C15.523 25.2998 15.1703 24.91 15.1765 24.3964C15.1765 23.8829 15.5353 23.5178 16.0736 23.493C16.3954 23.4807 16.7171 23.493 17.0451 23.493Z" fill="#4FA481"/>
<path d="M17.0203 28.0717C17.3235 28.0717 17.6267 28.0594 17.9299 28.0717C18.4744 28.0965 18.8271 28.4553 18.8332 28.9689C18.8394 29.4825 18.4867 29.8785 17.9608 29.8908C17.3173 29.9094 16.6676 29.9156 16.0242 29.8908C15.523 29.8723 15.1827 29.4886 15.1765 28.9998C15.1703 28.4863 15.523 28.1027 16.0489 28.0717C16.3706 28.0532 16.6924 28.0717 17.0203 28.0717Z" fill="#4FA481"/>
</svg>
