<svg width="60" height="51" viewBox="0 0 60 51" fill="none" xmlns="http://www.w3.org/2000/svg">
<g clip-path="url(#clip0_1_879)">
<path d="M60 12.0317C59.8873 11.4584 59.7934 10.8789 59.6682 10.3056C58.2909 4.13851 52.6064 -0.289975 46.3585 0.0123964C42.427 0.201379 39.2216 2.00931 36.5797 4.85664C33.4182 8.25832 31.659 12.3151 31.1582 16.9452C30.3944 23.9753 31.8468 30.4763 35.7408 36.3852C38.727 40.9144 42.7149 44.3917 47.3539 47.0816C49.7141 48.4485 52.2058 49.5824 54.6724 50.7604C56.0184 51.403 57.1327 50.7037 57.3143 49.2171C57.3831 48.669 57.477 48.1273 57.5334 47.5792C57.6649 46.3445 57.3393 45.8154 56.1999 45.3429C53.5079 44.2279 51.0538 42.7161 48.8752 40.7633C44.7496 37.0655 42.3894 32.4669 41.9825 26.892C41.9011 25.7896 42.1765 25.5691 43.2283 25.8841C50.8159 28.177 58.9357 22.8226 59.8873 14.9105C59.9124 14.7341 59.9624 14.564 60 14.3939C60 13.6065 60 12.8191 60 12.0317ZM55.4361 49.0155C55.3047 48.9777 55.2295 48.9714 55.1607 48.9399C51.0038 47.1887 47.0472 45.0595 43.5664 42.1428C35.2087 35.1505 31.4649 26.3061 33.3118 15.3704C34.1006 10.7151 36.4169 6.86615 40.2859 4.09441C42.8214 2.28018 45.6573 1.47386 48.7625 2.04711C54.7913 3.1558 58.7229 8.56069 58.0217 14.6837C57.283 21.1154 50.6907 25.7707 44.4553 24.2588C43.942 24.1328 43.4474 23.9438 42.9278 23.862C41.5442 23.6478 39.9165 24.7061 40.0918 26.9487C40.5551 32.8953 42.9654 37.8718 47.3226 41.8909C49.6765 44.0642 52.3435 45.7461 55.2796 47.006C55.4361 47.0753 55.6553 47.2831 55.649 47.4154C55.624 47.9383 55.5238 48.4611 55.4424 49.0029L55.4361 49.0155Z" fill="white"/>
<path d="M-0.000116348 19.9691C0.131353 29.1977 3.51198 36.4105 9.86632 42.2501C13.9857 46.036 18.7749 48.7196 23.896 50.8362C25.0416 51.3086 26.1622 50.6661 26.3563 49.4503C26.4565 48.8267 26.5379 48.203 26.6067 47.5794C26.7382 46.3384 26.4189 45.8093 25.2795 45.3431C22.5312 44.2029 20.0333 42.6533 17.8233 40.65C13.7541 36.9523 11.444 32.3726 11.0558 26.8417C10.9807 25.8149 11.2749 25.5756 12.239 25.8653C20.002 28.1898 28.1092 22.7786 28.9794 14.6902C29.8371 6.76553 23.6142 -0.157518 15.7073 0.00626636C11.7194 0.0881586 8.46399 1.87719 5.75948 4.73712C2.56666 8.1073 0.763653 12.1515 0.250298 16.7816C0.112568 18.01 0.0499668 19.251 -0.000116348 19.9754V19.9691ZM24.5157 49.0157C21.7862 48.0959 16.9218 45.425 13.9106 43.1383C5.60297 36.8137 1.23319 28.5804 2.01574 17.9029C2.33502 13.5689 3.81875 9.68845 6.72359 6.45686C9.55331 3.30716 12.9965 1.49923 17.3538 1.98428C23.6142 2.67092 28.1844 9.01442 27.0262 15.2508C25.868 21.4809 19.2445 26.1929 12.5896 24.0196C12.1138 23.8621 11.5316 23.8369 11.0433 23.944C9.70982 24.2401 9.06499 25.3614 9.18394 26.9929C9.58461 32.5427 11.7445 37.2799 15.6635 41.1918C18.1614 43.6864 21.06 45.5762 24.2778 46.9872C24.4657 47.0691 24.7161 47.3022 24.7161 47.4597C24.7161 47.9636 24.5971 48.4676 24.522 49.0157H24.5157Z" fill="white"/>
<path d="M42.0576 8.11362C42.3268 8.39079 42.5271 8.70576 42.8151 8.86954C43.2283 9.10262 43.6102 8.88844 43.8982 8.55457C44.8497 7.44588 46.083 7.01752 47.4979 7.08681C48.0363 7.11201 48.5747 7.2506 49.1068 7.33879C49.2383 7.36399 49.3698 7.42698 49.5012 7.44588C50.0271 7.52777 50.4653 7.26949 50.5906 6.79074C50.722 6.28049 50.5217 5.85843 50.0522 5.68204C47.8109 4.85052 44.5868 4.81903 42.5459 7.2569C42.3643 7.47108 42.2642 7.74825 42.0576 8.11362Z" fill="white"/>
<path d="M16.3772 5.0647C14.4866 5.17809 12.8776 5.78913 11.6318 7.23169C11.1748 7.76084 11.1435 8.30259 11.5504 8.69316C11.9761 9.10892 12.527 9.03962 13.0216 8.49787C14.3676 7.03011 16.0391 6.86003 17.8547 7.26319C18.08 7.31359 18.3054 7.39548 18.5308 7.43957C19.0817 7.54036 19.5325 7.26949 19.6639 6.76554C19.7891 6.30568 19.5575 5.80173 19.0379 5.65684C18.1614 5.41746 17.2662 5.25998 16.3772 5.0647Z" fill="white"/>
</g>
<defs>
<clipPath id="clip0_1_879">
<rect width="60" height="51" fill="white" transform="matrix(-1 0 0 1 60 0)"/>
</clipPath>
</defs>
</svg>
