<svg width="60" height="51" viewBox="0 0 60 51" fill="none" xmlns="http://www.w3.org/2000/svg">
<g clip-path="url(#clip0_1_884)">
<path d="M0 12.0317C0.112688 11.4584 0.206594 10.8789 0.331803 10.3056C1.7091 4.13851 7.39357 -0.289975 13.6415 0.0123964C17.573 0.201379 20.7784 2.00931 23.4203 4.85664C26.5818 8.25832 28.341 12.3151 28.8418 16.9452C29.6056 23.9753 28.1532 30.4763 24.2592 36.3852C21.273 40.9144 17.2851 44.3917 12.6461 47.0816C10.2859 48.4485 7.79424 49.5824 5.32763 50.7604C3.98164 51.403 2.86728 50.7037 2.68573 49.2171C2.61686 48.669 2.52295 48.1273 2.46661 47.5792C2.33514 46.3445 2.66068 45.8154 3.80008 45.3429C6.49207 44.2279 8.94616 42.7161 11.1248 40.7633C15.2504 37.0655 17.6106 32.4669 18.0175 26.892C18.0989 25.7896 17.8235 25.5691 16.7717 25.8841C9.18406 28.177 1.06427 22.8226 0.112688 14.9105C0.0876461 14.7341 0.0375626 14.564 0 14.3939C0 13.6065 0 12.8191 0 12.0317ZM4.56386 49.0155C4.69533 48.9777 4.77045 48.9714 4.83932 48.9399C8.99624 47.1887 12.9528 45.0595 16.4336 42.1428C24.7913 35.1505 28.5351 26.3061 26.6882 15.3704C25.8994 10.7151 23.5831 6.86615 19.7141 4.09441C17.1786 2.28018 14.3427 1.47386 11.2375 2.04711C5.20868 3.1558 1.27713 8.56069 1.9783 14.6837C2.71703 21.1154 9.30927 25.7707 15.5447 24.2588C16.058 24.1328 16.5526 23.9438 17.0722 23.862C18.4558 23.6478 20.0835 24.7061 19.9082 26.9487C19.4449 32.8953 17.0346 37.8718 12.6774 41.8909C10.3235 44.0642 7.65651 45.7461 4.72037 47.006C4.56386 47.0753 4.34474 47.2831 4.351 47.4154C4.37604 47.9383 4.47621 48.4611 4.5576 49.0029L4.56386 49.0155Z" fill="white"/>
<path d="M60.0001 19.9691C59.8686 29.1977 56.488 36.4105 50.1337 42.2501C46.0143 46.036 41.2251 48.7196 36.104 50.8362C34.9584 51.3086 33.8378 50.6661 33.6437 49.4503C33.5435 48.8267 33.4621 48.203 33.3933 47.5794C33.2618 46.3384 33.5811 45.8093 34.7205 45.3431C37.4688 44.2029 39.9667 42.6533 42.1767 40.65C46.2459 36.9523 48.556 32.3726 48.9442 26.8417C49.0193 25.8149 48.7251 25.5756 47.761 25.8653C39.998 28.1898 31.8908 22.7786 31.0206 14.6902C30.1629 6.76553 36.3858 -0.157518 44.2927 0.00626636C48.2806 0.0881586 51.536 1.87719 54.2405 4.73712C57.4333 8.1073 59.2363 12.1515 59.7497 16.7816C59.8874 18.01 59.95 19.251 60.0001 19.9754V19.9691ZM35.4843 49.0157C38.2138 48.0959 43.0782 45.425 46.0894 43.1383C54.397 36.8137 58.7668 28.5804 57.9843 17.9029C57.665 13.5689 56.1813 9.68845 53.2764 6.45686C50.4467 3.30716 47.0035 1.49923 42.6462 1.98428C36.3858 2.67092 31.8156 9.01442 32.9738 15.2508C34.132 21.4809 40.7555 26.1929 47.4104 24.0196C47.8862 23.8621 48.4684 23.8369 48.9567 23.944C50.2902 24.2401 50.935 25.3614 50.8161 26.9929C50.4154 32.5427 48.2555 37.2799 44.3365 41.1918C41.8386 43.6864 38.94 45.5762 35.7222 46.9872C35.5343 47.0691 35.2839 47.3022 35.2839 47.4597C35.2839 47.9636 35.4029 48.4676 35.478 49.0157H35.4843Z" fill="white"/>
<path d="M17.9422 8.11362C17.673 8.39079 17.4726 8.70576 17.1847 8.86954C16.7715 9.10262 16.3896 8.88844 16.1016 8.55457C15.15 7.44588 13.9167 7.01752 12.5019 7.08681C11.9635 7.11201 11.4251 7.2506 10.8929 7.33879C10.7615 7.36399 10.63 7.42698 10.4985 7.44588C9.97264 7.52777 9.53441 7.26949 9.4092 6.79074C9.27773 6.28049 9.47806 5.85843 9.9476 5.68204C12.1888 4.85052 15.413 4.81903 17.4539 7.2569C17.6354 7.47108 17.7356 7.74825 17.9422 8.11362Z" fill="white"/>
<path d="M43.6228 5.0647C45.5134 5.17809 47.1224 5.78913 48.3682 7.23169C48.8252 7.76084 48.8565 8.30259 48.4496 8.69316C48.0239 9.10892 47.473 9.03962 46.9784 8.49787C45.6324 7.03011 43.9609 6.86003 42.1453 7.26319C41.92 7.31359 41.6946 7.39548 41.4692 7.43957C40.9183 7.54036 40.4675 7.26949 40.3361 6.76554C40.2109 6.30568 40.4425 5.80173 40.9621 5.65684C41.8386 5.41746 42.7338 5.25998 43.6228 5.0647Z" fill="white"/>
</g>
<defs>
<clipPath id="clip0_1_884">
<rect width="60" height="51" fill="white"/>
</clipPath>
</defs>
</svg>
