<svg width="25" height="41" viewBox="0 0 25 41" fill="none" xmlns="http://www.w3.org/2000/svg">
<path d="M13.4333 0.649902C14.1827 0.805096 14.9498 0.893778 15.6725 1.12878C20.3727 2.66742 23.1218 5.90431 23.9554 10.7685C24.0397 11.2651 24.0441 11.7795 24.053 12.285C24.0619 12.9678 23.5431 13.4866 22.8868 13.4911C22.2439 13.4911 21.7295 13.0077 21.7118 12.3338C21.6586 10.2763 21.0955 8.38297 19.8362 6.74235C17.9783 4.3169 15.4996 3.05318 12.4534 3.00441C7.82861 2.93346 3.84236 6.38319 3.19054 10.9636C3.12846 11.4115 3.11516 11.8682 3.07526 12.3249C3.01318 13.0343 2.51213 13.5132 1.86475 13.4911C1.19076 13.4689 0.716315 12.9412 0.716315 12.2185C0.689711 6.81773 4.78238 1.86485 10.0767 0.880475C10.4846 0.800662 10.9059 0.725282 11.3271 0.649902C12.0321 0.649902 12.7327 0.649902 13.4378 0.649902H13.4333Z" fill="#4FA481"/>
<path d="M9.54021 24.6827V24.1816C9.54021 20.2885 9.54021 16.3953 9.54021 12.5022C9.54021 10.8483 10.7729 9.57127 12.347 9.55797C13.93 9.54466 15.2159 10.7951 15.2247 12.3825C15.238 14.7769 15.2247 17.1757 15.2247 19.5702C15.2247 19.7254 15.2247 19.8805 15.2247 20.0801C16.0273 20.3195 16.8299 20.559 17.6369 20.794C18.9937 21.1886 20.355 21.5788 21.7074 21.9823C23.3125 22.4568 24.288 23.7515 24.2836 25.4276C24.2836 26.5051 24.2925 27.5914 24.1994 28.6601C24.1594 29.1256 23.9289 29.6134 23.6673 30.0169C22.7804 31.3782 21.8404 32.7084 20.9314 34.0564C20.8028 34.2515 20.6654 34.3268 20.4304 34.3268C16.3155 34.318 12.2007 34.318 8.08583 34.3268C7.84638 34.3268 7.72667 34.2559 7.61581 34.0342C6.16143 31.0722 4.6893 28.1235 3.23048 25.1616C2.62744 23.9422 2.99991 22.5499 4.104 21.8227C5.22139 21.0822 6.65804 21.2906 7.5493 22.3326C8.11686 22.9933 8.66669 23.6717 9.22539 24.3413C9.3052 24.4344 9.39389 24.523 9.54021 24.6871V24.6827Z" fill="#4FA481"/>
<path d="M12.2627 4.85781C16.1425 4.87111 19.2375 7.57148 19.7696 11.2872C19.814 11.6065 19.8361 11.9346 19.8361 12.2583C19.845 12.9722 19.3351 13.4954 18.6655 13.491C18.0093 13.491 17.5171 12.9811 17.4994 12.2849C17.4284 9.84173 15.8587 7.8996 13.5042 7.3409C10.5777 6.64475 7.62905 8.74651 7.32753 11.744C7.30536 11.9524 7.28763 12.1563 7.27432 12.3647C7.22555 13.0254 6.71119 13.5087 6.06825 13.491C5.4253 13.4688 4.93755 12.9589 4.92425 12.2982C4.86661 9.39389 6.76883 6.5472 9.52241 5.42094C10.4447 5.04404 11.4025 4.83564 12.2627 4.85781Z" fill="#4FA481"/>
<path d="M8.4361 36.677H19.8096C19.8096 37.5195 19.8805 38.3531 19.7918 39.169C19.6898 40.0824 18.9361 40.6455 18.0182 40.65C15.4154 40.65 12.8126 40.65 10.2142 40.65C9.22536 40.65 8.47157 39.9494 8.43167 38.965C8.40063 38.2777 8.4228 37.586 8.41836 36.8987C8.41836 36.8366 8.43166 36.7746 8.44053 36.6814L8.4361 36.677Z" fill="#4FA481"/>
</svg>
