<svg width="39" height="41" viewBox="0 0 39 41" fill="none" xmlns="http://www.w3.org/2000/svg">
<path d="M36.4522 0.149902C36.5278 0.187727 36.6035 0.23028 36.6839 0.258649C38.3104 0.849664 38.8541 2.722 37.7761 4.07897C36.9108 5.16644 36.0172 6.23499 35.1378 7.31301C33.6673 9.11442 32.1969 10.9206 30.7217 12.722C30.6744 12.7834 30.6177 12.8402 30.6035 12.8591C28.9439 11.1995 27.2844 9.53995 25.6106 7.8662C26.6886 6.98677 27.8139 6.06478 28.9392 5.1428C30.7028 3.70545 32.4569 2.25392 34.2347 0.83548C34.5988 0.556521 35.0385 0.376852 35.4404 0.149902C35.7808 0.149902 36.1165 0.149902 36.4569 0.149902H36.4522Z" fill="#4FA481"/>
<path d="M19.5113 9.99857C18.8683 10.8402 18.4333 11.6865 18.2064 12.6369C18.1874 12.7172 18.022 12.7929 17.9179 12.8118C16.003 13.1806 14.4475 14.112 13.3837 15.7716C12.5846 17.0198 12.3482 18.4146 12.3671 19.8709C12.3718 20.3626 12.3435 20.8591 12.3151 21.3508C12.282 21.9513 12.0503 22.4714 11.7288 22.9773C10.9298 24.2208 11.1851 25.7763 12.3104 26.651C13.1993 27.3413 14.4853 27.4453 15.412 26.7976C16.1969 26.2444 17.0574 26.1026 17.9605 26.1073C19.1473 26.112 20.3293 26.112 21.464 25.6912C23.7572 24.8401 25.0811 23.1522 25.5964 20.8071C25.6768 20.4524 25.7903 20.2728 26.1685 20.1735C27.5633 19.8047 28.6555 18.9773 29.5539 17.8567C30.7312 16.3815 31.9368 14.93 33.1283 13.4643C33.1709 13.417 33.2135 13.3697 33.3033 13.2799V28.6321H0.683897C0.683897 28.4808 0.683897 28.3437 0.683897 28.2018C0.683897 23.242 0.716997 18.2822 0.664987 13.3224C0.646075 11.5399 2.02196 9.97492 4.00305 9.98911C9.01487 10.0222 14.0267 9.99857 19.0385 9.99857H19.516H19.5113Z" fill="#4FA481"/>
<path d="M33.3743 31.0247C33.3176 31.6488 33.3365 32.2445 33.2041 32.8024C32.8637 34.2114 31.6012 35.1381 30.0835 35.1429C27.3223 35.1476 24.5611 35.1429 21.8046 35.1429C21.6533 35.1429 21.4972 35.1429 21.3223 35.1429V37.8095C21.9606 37.8095 22.58 37.8095 23.2041 37.8095C23.9322 37.8095 24.4381 38.2918 24.4381 38.9774C24.4381 39.6629 23.9369 40.1499 23.2088 40.1499C19.067 40.1499 14.9299 40.1499 10.788 40.1499C10.0788 40.1499 9.54451 39.6393 9.54924 38.9726C9.54924 38.306 10.0835 37.8095 10.7975 37.8095C11.4169 37.8095 12.041 37.8095 12.6793 37.8095V35.1429C12.5232 35.1429 12.3719 35.1429 12.2206 35.1429C9.44523 35.1429 6.67454 35.1476 3.89912 35.1429C2.27738 35.1429 1.00078 34.1027 0.72182 32.5329C0.636713 32.0554 0.707636 31.5495 0.707636 31.0294H33.3743V31.0247Z" fill="#4FA481"/>
<path d="M18.4757 23.6532C17.5679 23.7856 16.6459 23.8613 15.757 24.0693C15.2416 24.1875 14.7877 24.5374 14.2865 24.7454C14.1258 24.8116 13.8657 24.8163 13.7428 24.7265C13.653 24.6603 13.6341 24.3341 13.7192 24.2206C14.5513 23.0764 14.6932 21.7573 14.7357 20.4097C14.7594 19.71 14.7263 18.996 14.8681 18.3152C15.2795 16.3625 16.8256 15.1473 18.8918 15.048C20.7263 14.9629 22.4899 16.1355 23.1518 17.8755C23.8232 19.6532 23.27 21.7431 21.8137 22.8778C20.9674 23.535 19.9745 23.7431 18.9248 23.7525C18.783 23.7525 18.6364 23.7525 18.4946 23.7525C18.4899 23.7194 18.4851 23.6816 18.4804 23.6485L18.4757 23.6532Z" fill="#4FA481"/>
<path d="M20.5846 12.878C21.0574 11.1901 22.5562 10.4903 23.6342 9.47852C25.4215 11.2657 27.1898 13.0341 29.0007 14.8449C28.0078 15.9135 27.308 17.417 25.6011 17.904C24.8683 15.313 23.2087 13.6298 20.5846 12.878Z" fill="#4FA481"/>
</svg>
