<svg width="43" height="41" viewBox="0 0 43 41" fill="none" xmlns="http://www.w3.org/2000/svg">
<path d="M37.0002 28.131C33.6448 30.0389 30.2895 31.9469 26.8803 33.8907C26.6291 33.0474 26.7188 32.2519 26.8982 31.4624C27.1973 30.1645 27.8851 29.0939 28.9856 28.3582C29.9186 27.7362 30.8995 27.174 31.9103 26.6895C35.2956 25.0627 37.8076 22.5805 39.4584 19.2132C39.5481 19.0338 39.6618 18.8424 39.8113 18.7228C40.1702 18.4357 40.6845 18.5792 40.8759 19.1115C41.3544 20.4154 41.8987 21.7193 42.1618 23.071C43.1726 28.2685 41.8628 32.9995 38.962 37.3298C37.2693 39.8598 33.7405 40.6373 30.8278 39.2019C29.7571 38.6755 28.8301 37.9698 28.1363 36.9769C28.0526 36.8573 27.8253 36.7437 27.6937 36.7736C25.8336 37.1504 23.9675 37.1145 22.0954 36.9171C21.9579 36.9052 21.8263 36.8693 21.6947 36.8394C21.3059 36.7497 21.0906 36.4805 21.1325 36.1037C21.1743 35.703 21.4435 35.4637 21.8741 35.4877C22.2808 35.5116 22.6875 35.5654 23.0943 35.6073C28.3277 36.1815 32.4187 34.1359 35.6604 30.1406C36.1629 29.5245 36.6174 28.8666 37.0899 28.2267C37.06 28.1968 37.0241 28.1668 36.9942 28.131H37.0002Z" fill="#4FA481"/>
<path d="M19.4639 7.01194C22.8133 8.96176 26.1567 10.9116 29.5659 12.8973C28.591 13.6868 27.5264 14.1832 26.2943 14.2849C25.0024 14.3866 23.8361 13.9739 22.7535 13.3279C21.9042 12.8195 21.0788 12.2753 20.2534 11.737C17.4961 9.93668 14.4757 9.12325 11.1921 9.25484C10.9349 9.2668 10.6718 9.30867 10.4265 9.25484C10.1634 9.20101 9.79255 9.11727 9.69685 8.93186C9.58919 8.71056 9.63106 8.29189 9.78059 8.09451C10.4505 7.23324 11.1203 6.36001 11.9039 5.61238C14.7269 2.90296 18.1182 1.37779 21.9879 0.869405C23.6746 0.648106 25.3732 0.528486 27.0359 0.833519C29.7513 1.32995 31.3183 3.13622 32.048 5.71405C32.4727 7.22726 32.3052 8.72252 31.6652 10.152C31.5277 10.457 31.5576 10.6604 31.7908 10.9176C33.0768 12.359 34.0098 14.0157 34.7036 15.8101C34.889 16.2885 34.7455 16.6893 34.3448 16.8268C33.944 16.9704 33.5971 16.779 33.3997 16.2886C32.7119 14.566 31.8028 12.981 30.5588 11.5934C28.4773 9.2668 25.8397 7.93901 22.8193 7.3409C21.7307 7.12558 20.6182 7.0239 19.5177 6.87438L19.4759 7.01792L19.4639 7.01194Z" fill="#4FA481"/>
<path d="M10.0496 32.6588V20.9359C11.7721 21.6357 12.9624 22.7302 13.5246 24.4468C13.9313 25.6908 13.8595 26.9708 13.7698 28.2507C13.6382 30.057 13.5724 31.8633 13.9552 33.6516C14.3559 35.5177 15.1155 37.2402 16.1204 38.8551C16.24 39.0405 16.4074 39.214 16.4673 39.4173C16.545 39.6865 16.6467 40.0573 16.5211 40.2487C16.3955 40.4401 16.0067 40.5777 15.7435 40.5537C13.3332 40.3624 11.0783 39.6267 8.97898 38.4424C5.36045 36.4089 2.77663 33.4124 1.03615 29.6862C-0.381359 26.6598 1.1139 22.8439 4.31974 21.2888C5.05541 20.9299 5.89276 20.7505 6.69422 20.5591C7.0172 20.4813 7.18467 20.3677 7.28635 20.0507C7.88445 18.2325 8.84142 16.6116 10.0496 15.1343C10.1632 14.9967 10.3427 14.8233 10.4862 14.8293C10.7314 14.8412 11.0723 14.907 11.198 15.0745C11.3176 15.2419 11.3116 15.6188 11.198 15.8161C10.9288 16.3066 10.558 16.7372 10.241 17.2037C8.5962 19.5902 7.75287 22.2338 7.80072 25.1226C7.84258 27.8141 8.68591 30.2962 10.0496 32.6528V32.6588Z" fill="#4FA481"/>
</svg>
