<svg width="43" height="43" viewBox="0 0 43 43" fill="none" xmlns="http://www.w3.org/2000/svg">
<path d="M40.4474 0.155745C40.6052 0.196645 40.7571 0.237545 40.9148 0.284288C41.838 0.564744 42.4281 1.30094 42.469 2.37018C42.6911 8.36495 41.7387 14.1202 38.7939 19.4255C36.9008 22.8318 34.3241 25.6832 31.3559 28.1839C29.4687 29.7731 26.9913 31.415 25.6066 32.0285C20.6168 27.0387 15.6328 22.0547 10.5846 17.0007C11.1338 16.1009 11.6714 15.1251 12.2966 14.202C15.0836 10.0711 18.5601 6.64131 22.8546 4.0763C25.4663 2.51626 28.2943 1.49376 31.2683 0.915316C32.9101 0.593959 34.587 0.453731 36.2464 0.225859C36.3633 0.208331 36.4801 0.173274 36.6028 0.149902C37.8882 0.149902 39.1737 0.149902 40.4591 0.149902L40.4474 0.155745ZM35.4109 13.3664C35.3992 9.96004 32.6414 7.22559 29.2467 7.24896C25.8169 7.26649 23.1292 10.0068 23.1409 13.4599C23.1526 16.8312 25.9221 19.5306 29.3577 19.5131C32.6881 19.5014 35.4284 16.7202 35.4109 13.3664Z" fill="#4FA481"/>
<path d="M0.505831 20.3309C1.35889 18.9754 2.20026 17.614 3.065 16.2585C3.66097 15.3295 4.29785 14.4238 4.88214 13.489C5.51901 12.4723 6.39543 11.8588 7.59906 11.7595C8.76763 11.6601 9.9362 11.5783 11.1924 11.4849C8.52807 15.1483 6.61161 19.0923 5.74687 23.5503C5.05157 23.451 4.37965 23.3517 3.71357 23.2524C3.31041 23.1881 2.90725 23.1121 2.50409 23.0537C1.51665 22.9018 0.873945 22.3584 0.57596 21.4002C0.564274 21.3651 0.529214 21.3418 0.5 21.3125C0.5 20.9853 0.5 20.6581 0.5 20.3309H0.505831Z" fill="#4FA481"/>
<path d="M0.505737 40.5823C0.739451 40.2844 0.943958 39.963 1.20689 39.6942C3.61998 37.2636 6.0506 34.8447 8.46954 32.4199C8.86101 32.0226 9.31092 31.859 9.84262 32.0167C10.6723 32.268 10.9644 33.2905 10.4094 33.9799C10.3159 34.0968 10.2049 34.1961 10.0997 34.3071C7.68661 36.7202 5.27352 39.1333 2.86042 41.5464C1.9431 42.4637 1.13677 42.3527 0.511586 41.2367C0.511586 41.0206 0.511586 40.7985 0.511586 40.5823H0.505737Z" fill="#4FA481"/>
<path d="M0.505737 33.2846C0.745294 32.9574 0.9498 32.601 1.22441 32.3147C2.39883 31.1111 3.59662 29.9367 4.77688 28.7447C5.15082 28.365 5.58319 28.178 6.10905 28.3241C6.98547 28.5695 7.3302 29.6679 6.69333 30.3282C5.34363 31.7246 3.97056 33.0918 2.57996 34.4415C1.96646 35.0375 0.996537 34.8038 0.634281 34.0267C0.593381 33.9449 0.552486 33.8631 0.511586 33.7813C0.511586 33.6177 0.511586 33.4541 0.511586 33.2905L0.505737 33.2846Z" fill="#4FA481"/>
<path d="M23.1059 33.1912C21.6569 33.7813 20.126 34.1961 18.566 34.5233C17.5377 34.7395 16.7547 34.4298 16.0244 33.6936C13.6872 31.3156 11.3267 28.9551 8.94868 26.6179C8.20664 25.8934 7.9145 25.0988 8.13069 24.0763C8.45789 22.5163 8.87273 20.9854 9.46285 19.5481C14.0086 24.0938 18.5426 28.6279 23.1059 33.1912Z" fill="#4FA481"/>
<path d="M19.0862 36.9016C23.556 36.0251 27.4999 34.1145 31.1692 31.4502C31.1049 32.3442 31.0465 33.1563 30.9822 33.9685C30.9472 34.4417 30.9238 34.9208 30.8478 35.3941C30.7018 36.3173 30.2227 37.0476 29.4456 37.5677C27.3304 38.9758 25.2212 40.3839 23.0944 41.7628C21.6687 42.686 19.9159 41.8972 19.6237 40.2203C19.4367 39.1335 19.2732 38.0468 19.092 36.9016H19.0862Z" fill="#4FA481"/>
<path d="M14.3883 37.0477C14.3007 37.2113 14.1955 37.5501 13.9735 37.778C12.6764 39.1102 11.3617 40.419 10.0412 41.7219C9.492 42.2653 8.74996 42.2595 8.24747 41.757C7.75083 41.2545 7.76837 40.5066 8.30007 39.9632C9.60887 38.6427 10.9235 37.334 12.2381 36.0193C12.6355 35.622 13.1146 35.5285 13.6287 35.7389C14.1195 35.9375 14.3474 36.3407 14.3825 37.0418L14.3883 37.0477Z" fill="#4FA481"/>
<path d="M29.2175 17.0709C27.155 17.0358 25.5365 15.3765 25.5774 13.3315C25.6183 11.2806 27.2835 9.65632 29.3227 9.67969C31.3618 9.70306 33.0212 11.4267 32.9745 13.4717C32.9277 15.4816 31.2392 17.1001 29.2234 17.0709H29.2175Z" fill="#4FA481"/>
</svg>
