<svg width="19" height="19" viewBox="0 0 19 19" fill="none" xmlns="http://www.w3.org/2000/svg">
<path fill-rule="evenodd" clip-rule="evenodd" d="M18.25 9.5C18.25 14.3325 14.3325 18.25 9.5 18.25C4.66751 18.25 0.75 14.3325 0.75 9.5C0.75 4.66751 4.66751 0.75 9.5 0.75C14.3325 0.75 18.25 4.66751 18.25 9.5ZM13.0265 6.84846C13.2828 7.10474 13.2828 7.52026 13.0265 7.77654L8.65154 12.1515C8.39526 12.4078 7.97974 12.4078 7.72346 12.1515L5.97346 10.4015C5.71718 10.1453 5.71718 9.72974 5.97346 9.47346C6.22974 9.21718 6.64526 9.21718 6.90154 9.47346L8.1875 10.7594L10.143 8.80394L12.0985 6.84846C12.3547 6.59218 12.7703 6.59218 13.0265 6.84846Z" fill="#46826B"/>
</svg>
