<svg width="278" height="238" viewBox="0 0 278 238" fill="none" xmlns="http://www.w3.org/2000/svg">
<g clip-path="url(#clip0_1_476)">
<path d="M125.099 202.597C133.577 203.444 136.259 208.836 135.848 214.979C135.558 219.186 135.848 223.418 135.8 227.65C135.703 233.913 131.862 237.952 125.654 237.976C104.929 238.024 84.2045 238 63.4795 237.927C58.3344 237.927 54.2522 233.865 54.059 228.641C53.8899 223.491 53.8899 218.316 53.9865 213.165C54.0832 206.878 57.8755 203.081 64.1558 202.815C65.0012 202.791 65.8225 202.815 66.8853 202.815C66.0157 196.745 64.5664 191.474 59.0108 187.943C51.9817 183.469 45.3632 178.343 38.3341 173.893C31.1842 169.371 26.3291 163.132 23.6237 155.297C17.9231 138.781 12.4399 122.168 6.90843 105.579C4.90357 99.5575 2.87455 93.512 0.990455 87.4423C-1.1835 80.3811 0.24165 73.8519 4.71033 68.0966C10.5558 60.5518 19.928 59.7538 27.2228 65.9686C31.4499 69.5717 34.3968 74.1421 36.5949 79.172C41.5709 90.5859 46.426 102.048 51.2087 113.535C51.8851 115.155 52.6097 115.905 54.4455 115.735C58.4552 115.373 61.9818 116.775 65.1945 119.121C68.4554 121.491 71.7405 123.836 75.0014 126.182C81.0643 130.511 87.0548 134.791 94.3496 137.282C106.548 141.441 112.587 151.186 115.461 163.326C118.577 176.432 121.862 189.491 125.099 202.622V202.597ZM116.596 202.694C116.548 201.92 116.596 201.364 116.451 200.832C113.577 189.128 110.34 177.472 107.852 165.695C105.195 153.121 97.8279 145.6 85.5571 142.432C83.7214 141.949 81.9339 140.933 80.3397 139.845C73.7453 135.226 67.3201 130.341 60.605 125.868C58.7209 124.61 56.1122 123.788 53.8658 123.885C50.315 124.03 47.7787 126.375 46.9091 129.882C46.0154 133.557 47.1024 136.774 50.2667 139.071C56.402 143.521 62.5857 147.922 68.7453 152.371C72.3202 154.934 75.9193 157.474 79.4459 160.109C81.4749 161.633 81.8614 163.954 80.6054 165.792C79.301 167.703 77.127 168.017 74.9048 166.663C74.4217 166.373 73.9869 166.034 73.5279 165.695C64.4698 159.166 55.4117 152.661 46.3777 146.132C36.9814 139.337 35.9186 128.939 43.624 120.161C44.1313 119.58 44.4212 118.25 44.1071 117.549C39.0104 105.385 33.9862 93.1734 28.5272 81.1791C26.9812 77.7694 24.445 74.6258 21.7396 71.9899C18.2371 68.5561 13.7443 69.2815 10.8215 73.2716C8.09203 77.044 7.17414 81.1308 8.76837 85.7253C11.208 92.7865 13.4303 99.9444 15.7975 107.054C20.6526 121.708 25.4836 136.363 30.4354 150.969C32.8509 158.102 37.0056 163.785 43.5999 167.872C50.9189 172.394 57.8513 177.545 64.9288 182.478C69.1559 185.428 71.982 189.394 73.2139 194.448C73.6729 196.262 74.2767 198.051 74.5183 199.889C74.8323 202.186 75.7985 202.912 78.1899 202.888C90.0017 202.742 101.813 202.815 113.625 202.815C114.543 202.815 115.437 202.742 116.5 202.694H116.596ZM94.9534 230.068C104.785 230.068 114.64 230.02 124.471 230.092C127.031 230.092 127.997 229.125 127.901 226.586C127.78 222.378 127.828 218.146 127.901 213.915C127.925 211.835 127.2 210.819 124.978 210.819C104.929 210.843 84.8808 210.843 64.808 210.819C62.779 210.819 61.9335 211.666 61.9577 213.697C62.0302 217.929 61.9577 222.136 61.9818 226.368C61.9818 229.754 62.2959 230.044 65.7017 230.044C75.4362 230.044 85.1948 230.044 94.9293 230.044L94.9534 230.068Z" fill="white" fill-opacity="0.2"/>
<path d="M211.453 202.597C222.347 203.782 224.231 205.935 224.207 217.058C224.207 220.637 224.255 224.192 224.183 227.771C224.038 234.01 220.076 237.927 213.893 237.952C193.457 237.976 172.998 237.976 152.563 237.952C146.524 237.952 142.539 233.986 142.418 227.94C142.345 223.636 142.635 219.283 142.345 214.979C141.935 208.522 144.882 203.347 153.022 202.597C154.737 195.754 156.476 188.814 158.215 181.849C159.906 175.054 161.621 168.235 163.239 161.415C166.476 147.825 175.1 139.531 188.192 135.347C190.631 134.573 192.998 133.316 195.124 131.841C201.139 127.706 207.032 123.377 212.95 119.073C216.163 116.751 219.666 115.3 223.675 115.663C225.487 115.832 226.26 115.131 226.936 113.511C231.743 102.024 236.502 90.5135 241.598 79.1721C243.313 75.3755 245.68 71.7482 248.338 68.5562C252.589 63.4537 258.072 60.3826 264.956 62.2688C271.84 64.155 275.753 69.3542 277.275 76.0042C278.048 79.4381 278.29 83.4765 277.227 86.7653C270.005 109.4 262.468 131.937 254.859 154.427C252.009 162.842 246.864 169.541 239.134 174.28C233.072 178.004 227.54 182.599 221.453 186.25C215.221 189.999 211.719 195.077 211.405 202.525L211.453 202.597ZM161.283 202.791H164.979C176.138 202.791 187.298 202.791 198.457 202.791C202.878 202.791 203.071 202.815 203.796 198.535C205.173 190.555 209.182 184.606 216.115 180.326C222.25 176.529 227.854 171.886 234.014 168.186C241.115 163.93 245.439 157.812 247.975 150.195C255.222 128.455 262.396 106.715 269.57 84.9516C270.898 80.9132 269.908 77.165 267.613 73.7553C264.497 69.1607 259.835 68.3627 255.971 72.3286C253.289 75.0853 250.85 78.3983 249.255 81.9047C243.965 93.5846 239.062 105.434 234.134 117.259C233.796 118.081 234.062 119.653 234.666 120.306C241.936 128.238 241.043 139.168 232.468 145.624C230.68 146.979 228.82 148.26 226.985 149.566C219.134 155.201 211.284 160.811 203.458 166.445C201.622 167.775 199.544 168.138 198.192 166.348C197.298 165.188 197.25 163.132 197.37 161.536C197.419 160.787 198.699 160.061 199.52 159.457C208.554 152.927 217.637 146.422 226.646 139.893C227.854 139.023 229.062 138.055 229.931 136.871C232.25 133.751 231.84 129.06 229.183 126.255C226.284 123.208 221.864 122.7 218.168 125.263C211.622 129.809 205.269 134.622 198.699 139.119C196.501 140.619 194.037 141.925 191.501 142.674C180.027 146.036 172.901 153.193 170.438 165.091C168.819 172.95 166.718 180.737 164.785 188.548C163.65 193.142 162.491 197.737 161.21 202.815L161.283 202.791ZM183.022 230.02C192.95 230.02 202.878 229.972 212.83 230.044C215.39 230.044 216.356 229.101 216.284 226.562C216.163 222.354 216.187 218.122 216.284 213.89C216.332 211.811 215.656 210.771 213.385 210.771C193.337 210.819 173.288 210.795 153.215 210.771C151.186 210.771 150.317 211.617 150.341 213.624C150.389 217.856 150.341 222.064 150.341 226.296C150.341 229.657 150.655 229.996 154.061 229.996C163.723 229.996 173.36 229.996 183.022 229.996V230.02Z" fill="white" fill-opacity="0.2"/>
<path d="M144.64 20.4824C146.693 17.7257 148.481 15.0898 150.51 12.6716C160.51 0.822416 173.53 -2.00689 187.902 1.25769C202.661 4.619 212.298 14.1226 216.067 28.8253C219.11 40.6503 216.187 51.8708 210.753 62.4867C205.028 73.6588 196.767 82.8964 187.781 91.4568C174.592 103.983 161.162 116.268 147.805 128.649C145.776 130.535 143.771 130.583 141.814 128.746C126.234 114.115 110.437 99.6546 95.1708 84.6617C86.016 75.6901 78.528 65.2918 74.6873 52.7897C70.7259 39.9007 71.1607 27.4711 79.2043 15.9846C93.335 -4.18327 126.838 -6.40802 141.5 15.7911C142.49 17.2662 143.505 18.7172 144.664 20.4341L144.64 20.4824ZM144.882 120.524C158.529 107.756 172.104 95.3502 185.317 82.582C190.148 77.9149 194.448 72.619 198.482 67.2264C204.883 58.6659 208.989 49.1382 209.11 38.1837C209.231 25.5123 201.863 14.6546 189.955 10.1567C177.515 5.44119 164.544 8.36722 156.549 18.1126C153.553 21.7641 151.452 26.1652 148.674 30.0585C147.756 31.3402 146.041 32.7186 144.664 32.7669C143.408 32.8153 141.742 31.3644 140.872 30.1311C138.553 26.8423 136.766 23.1908 134.447 19.9263C129.785 13.3487 123.529 9.52796 115.389 8.34304C94.2529 5.2961 76.9579 23.2392 80.8469 44.2776C82.7793 54.7484 87.7794 63.5749 94.3012 71.7001C103.915 83.6702 115.558 93.6574 126.814 103.959C132.756 109.4 138.674 114.841 144.906 120.524H144.882Z" fill="white" fill-opacity="0.2"/>
</g>
<defs>
<clipPath id="clip0_1_476">
<rect width="278" height="238" fill="white"/>
</clipPath>
</defs>
</svg>
