<svg width="27" height="27" viewBox="0 0 27 27" fill="none" xmlns="http://www.w3.org/2000/svg">
<path d="M21.3311 16.4277C21.0498 16.1569 20.7466 15.9495 20.4214 15.8057C20.0962 15.6618 19.7579 15.5898 19.4063 15.5898C19.0547 15.5898 18.7164 15.6618 18.3912 15.8057C18.066 15.9495 17.7539 16.1569 17.4551 16.4277L15.6622 18.1543C15.5918 18.1204 15.5171 18.0866 15.438 18.0527C15.3589 18.0189 15.2842 17.9766 15.2139 17.9258C15.126 17.8919 15.0337 17.8496 14.9371 17.7988C14.8404 17.748 14.7481 17.6973 14.6602 17.6465C13.8164 17.1387 13.0079 16.542 12.2344 15.8564C11.461 15.1709 10.7051 14.3965 9.96684 13.5332C9.61528 13.0931 9.31645 12.6868 9.07035 12.3145C8.82426 11.9421 8.61332 11.5697 8.43754 11.1973C8.66606 10.9941 8.89018 10.7868 9.10991 10.5752C9.32963 10.3636 9.54496 10.1562 9.7559 9.95312C9.82621 9.86849 9.90532 9.78809 9.99321 9.71191C10.0811 9.63574 10.1602 9.55534 10.2305 9.4707C10.8282 8.89518 11.127 8.26465 11.127 7.5791C11.127 6.89355 10.8282 6.26302 10.2305 5.6875L8.67485 4.18945C8.58696 4.10482 8.49907 4.01595 8.41117 3.92285C8.32328 3.82975 8.23539 3.74088 8.1475 3.65625C7.97172 3.48698 7.79594 3.31771 7.62016 3.14844C7.44438 2.97917 7.2686 2.8099 7.09282 2.64062C6.81157 2.36979 6.50834 2.16667 6.18315 2.03125C5.85795 1.89583 5.51957 1.82812 5.16801 1.82812C4.81645 1.82812 4.47807 1.89583 4.15287 2.03125C3.82768 2.16667 3.52446 2.36979 3.24321 2.64062C3.24321 2.64062 3.23442 2.64062 3.21684 2.64062L1.29203 4.54492C0.922894 4.88346 0.637249 5.26855 0.435101 5.7002C0.232952 6.13184 0.105511 6.5931 0.0527765 7.08398C-0.017536 7.87956 0.0395929 8.63281 0.224163 9.34375C0.408734 10.0547 0.597698 10.6556 0.791058 11.1465C1.24809 12.3483 1.83256 13.5205 2.54448 14.6631C3.25639 15.8057 4.12211 16.9694 5.14164 18.1543C5.77446 18.8822 6.43364 19.5592 7.11918 20.1855C7.80473 20.8288 8.52104 21.4339 9.26811 22.001C10.0152 22.568 10.7842 23.0885 11.5752 23.5625C12.3838 24.0534 13.2188 24.4935 14.0801 24.8828C14.7305 25.1875 15.482 25.488 16.3345 25.7842C17.1871 26.0804 18.1055 26.2624 19.0899 26.3301C19.1426 26.3301 19.1997 26.3301 19.2613 26.3301C19.3228 26.3301 19.3887 26.3301 19.459 26.3301C20.1094 26.3301 20.7115 26.2158 21.2652 25.9873C21.8189 25.7588 22.3067 25.416 22.7286 24.959C22.7461 24.959 22.7549 24.959 22.7549 24.959C22.7549 24.959 22.7549 24.9505 22.7549 24.9336C22.9131 24.7643 23.0757 24.5993 23.2427 24.4385C23.4097 24.2777 23.5811 24.1126 23.7569 23.9434C23.8799 23.8418 24.003 23.7318 24.126 23.6133C24.2491 23.4948 24.3721 23.3678 24.4952 23.2324C24.7764 22.9616 24.9917 22.6654 25.1412 22.3438C25.2906 22.0221 25.3653 21.6921 25.3653 21.3535C25.3653 21.015 25.2906 20.6849 25.1412 20.3633C24.9917 20.0417 24.7676 19.737 24.4688 19.4492L21.3311 16.4277ZM23.3877 22.2168C23.2647 22.3353 23.146 22.4453 23.0318 22.5469C22.9175 22.6484 22.7989 22.7585 22.6758 22.877C22.5 23.0462 22.3155 23.224 22.1221 23.4102C21.9288 23.5964 21.7442 23.7826 21.5684 23.9688C21.2872 24.2734 20.9707 24.4977 20.6192 24.6416C20.2676 24.7855 19.8721 24.8574 19.4327 24.8574C19.3975 24.8574 19.358 24.8574 19.314 24.8574C19.2701 24.8574 19.2217 24.8574 19.169 24.8574C18.3252 24.7897 17.521 24.6247 16.7564 24.3623C15.9917 24.0999 15.3194 23.8333 14.7393 23.5625C13.9307 23.1901 13.1485 22.7754 12.3926 22.3184C11.6368 21.8613 10.9073 21.3704 10.2041 20.8457C9.50102 20.321 8.82426 19.7539 8.17387 19.1445C7.52348 18.5352 6.90825 17.8919 6.32817 17.2148C5.36137 16.0807 4.54399 14.9805 3.87602 13.9141C3.20805 12.8477 2.65434 11.7559 2.21489 10.6387C1.95121 9.96159 1.77104 9.34375 1.67436 8.78516C1.57768 8.22656 1.54692 7.70182 1.58207 7.21094C1.61723 6.88932 1.69633 6.5931 1.81938 6.32227C1.94242 6.05143 2.127 5.80599 2.37309 5.58594L4.29789 3.70703C4.43852 3.57162 4.58354 3.47428 4.73295 3.41504C4.88237 3.35579 5.02739 3.32617 5.16801 3.32617C5.34379 3.32617 5.50639 3.36849 5.6558 3.45312C5.80522 3.53776 5.92387 3.6224 6.01176 3.70703C6.18754 3.8763 6.35893 4.04134 6.52592 4.20215C6.69291 4.36296 6.8643 4.52799 7.04008 4.69727C7.12797 4.7819 7.22026 4.87077 7.31694 4.96387C7.41362 5.05697 7.5059 5.14583 7.59379 5.23047L9.14946 6.72852C9.44828 7.01628 9.5977 7.2998 9.5977 7.5791C9.5977 7.8584 9.44828 8.14193 9.14946 8.42969C9.06157 8.51432 8.97807 8.59473 8.89897 8.6709C8.81987 8.74707 8.73637 8.82747 8.64848 8.91211C8.41996 9.14909 8.18705 9.3776 7.94975 9.59766C7.71244 9.81771 7.47075 10.0293 7.22465 10.2324C7.22465 10.2493 7.22026 10.2578 7.21147 10.2578C7.20268 10.2578 7.19828 10.2578 7.19828 10.2578C6.95219 10.4948 6.82914 10.7233 6.82914 10.9434C6.82914 11.1634 6.85551 11.3496 6.90825 11.502C6.90825 11.5189 6.90825 11.5316 6.90825 11.54C6.90825 11.5485 6.91703 11.5527 6.93461 11.5527C7.12797 12.0267 7.37407 12.4964 7.67289 12.9619C7.97172 13.4274 8.33207 13.9225 8.75395 14.4473H8.78032C9.55375 15.3783 10.3623 16.2119 11.2061 16.9482C12.0498 17.6846 12.9288 18.332 13.8428 18.8906C13.9483 18.9583 14.0625 19.0218 14.1856 19.0811C14.3086 19.1403 14.4229 19.1953 14.5284 19.2461C14.6338 19.2969 14.7349 19.3477 14.8316 19.3984C14.9283 19.4492 15.0205 19.5 15.1084 19.5508C15.1084 19.5508 15.1172 19.555 15.1348 19.5635C15.1524 19.5719 15.1612 19.5762 15.1612 19.5762C15.2666 19.627 15.3633 19.665 15.4512 19.6904C15.5391 19.7158 15.6358 19.7285 15.7413 19.7285C15.9698 19.7285 16.1587 19.6777 16.3081 19.5762C16.4576 19.4746 16.5498 19.3984 16.585 19.3477L18.5362 17.4688C18.6416 17.3672 18.7691 17.2741 18.9185 17.1895C19.0679 17.1048 19.2305 17.0625 19.4063 17.0625C19.5821 17.0625 19.7403 17.1048 19.8809 17.1895C20.0215 17.2741 20.1358 17.3587 20.2237 17.4434C20.2237 17.4603 20.2237 17.4688 20.2237 17.4688C20.2237 17.4688 20.2325 17.4688 20.25 17.4688L23.3877 20.4902C23.669 20.778 23.8096 21.0658 23.8096 21.3535C23.8096 21.6413 23.669 21.929 23.3877 22.2168ZM14.5811 6.5C15.337 6.63542 16.0489 6.86816 16.7168 7.19824C17.3848 7.52832 17.9913 7.95573 18.5362 8.48047C19.0635 9.00521 19.503 9.58919 19.8545 10.2324C20.2061 10.8757 20.4434 11.5527 20.5664 12.2637C20.6016 12.4499 20.6895 12.598 20.8301 12.708C20.9707 12.818 21.1377 12.873 21.3311 12.873C21.3487 12.873 21.3663 12.873 21.3838 12.873C21.4014 12.873 21.4278 12.873 21.4629 12.873C21.6739 12.8392 21.8409 12.7376 21.9639 12.5684C22.087 12.3991 22.1309 12.2129 22.0957 12.0098C21.9375 11.1465 21.6475 10.3255 21.2256 9.54688C20.8038 8.76823 20.2676 8.06576 19.6172 7.43945C18.9668 6.81315 18.2373 6.29688 17.4288 5.89062C16.6202 5.48438 15.7676 5.20508 14.8711 5.05273C14.6602 5.01888 14.4668 5.0612 14.2911 5.17969C14.1153 5.29818 14.0098 5.45898 13.9747 5.66211C13.9395 5.84831 13.979 6.02604 14.0933 6.19531C14.2076 6.36458 14.3702 6.46615 14.5811 6.5ZM26.9737 11.8066C26.8506 11.0788 26.6661 10.3763 26.42 9.69922C26.1914 9.02213 25.9058 8.36621 25.563 7.73145C25.2203 7.09668 24.8291 6.48307 24.3897 5.89062C23.9327 5.3151 23.4405 4.76497 22.9131 4.24023C22.3682 3.73242 21.7969 3.26693 21.1993 2.84375C20.584 2.40365 19.9468 2.02279 19.2876 1.70117C18.6285 1.37956 17.9473 1.10026 17.2442 0.863281C16.5411 0.643229 15.8204 0.465494 15.0821 0.330078C14.8711 0.296225 14.6778 0.338541 14.502 0.457031C14.3262 0.575521 14.2207 0.736328 14.1856 0.939453C14.1504 1.14258 14.1944 1.32878 14.3174 1.49805C14.4405 1.66732 14.6075 1.76888 14.8184 1.80273C16.1543 2.02279 17.4156 2.42904 18.6021 3.02148C19.7886 3.61393 20.8653 4.37565 21.8321 5.30664C22.7989 6.2207 23.5899 7.25326 24.2051 8.4043C24.8204 9.55534 25.2334 10.7656 25.4444 12.0352C25.4795 12.2214 25.5718 12.3695 25.7212 12.4795C25.8706 12.5895 26.0332 12.6445 26.209 12.6445C26.2442 12.6445 26.2705 12.6445 26.2881 12.6445C26.3057 12.6445 26.3233 12.6445 26.3409 12.6445C26.5518 12.6107 26.7188 12.5091 26.8418 12.3398C26.9649 12.1706 27.0088 11.9928 26.9737 11.8066Z" fill="white"/>
</svg>
