<svg width="42" height="42" viewBox="0 0 42 42" fill="none" xmlns="http://www.w3.org/2000/svg">
<g clip-path="url(#clip0_1_412)">
<path d="M17.0482 21.208C16.6371 20.8723 16.4055 20.716 16.2144 20.525C11.3044 15.6337 6.4059 10.7482 1.51323 5.8511C-0.0616851 4.27662 0.256773 1.90912 2.15594 0.971386C3.31976 0.398323 4.61096 0.618287 5.60686 1.60233C6.99071 2.96842 8.35718 4.34609 9.72945 5.71796C14.1068 10.0941 18.4899 14.4702 22.8673 18.8521C24.338 20.3224 24.338 22.001 22.8557 23.4829C17.1524 29.1904 11.4433 34.8805 5.75162 40.5937C4.84836 41.4967 3.81771 41.8904 2.58441 41.5315C0.592601 40.9526 -0.148537 38.4983 1.15424 36.8833C1.33953 36.6517 1.55955 36.4492 1.768 36.2408C6.60277 31.4131 11.4375 26.5855 16.2781 21.7637C16.4518 21.59 16.6834 21.4685 17.0482 21.2138V21.208Z" fill="black"/>
<path d="M34.3781 21.1673C31.4367 18.221 28.5474 15.321 25.6581 12.4325C23.51 10.285 21.3561 8.1432 19.2079 5.98988C17.9399 4.7222 17.8878 2.9046 19.0747 1.71796C20.2617 0.525528 22.074 0.566048 23.3479 1.83952C29.0396 7.51805 34.7313 13.2024 40.4114 18.8925C41.859 20.3454 41.859 22.024 40.4114 23.477C34.6966 29.2018 28.9701 34.915 23.2552 40.6341C22.3288 41.5603 21.2576 41.9018 20.0127 41.4734C18.8373 41.0682 18.2062 40.1884 18.073 38.9728C17.963 37.9772 18.3799 37.161 19.0863 36.4664C21.3561 34.2146 23.6142 31.9513 25.8782 29.688C28.5648 27.008 31.2456 24.3279 33.9323 21.6478C34.077 21.5031 34.2102 21.3526 34.3839 21.1673H34.3781Z" fill="black"/>
</g>
<defs>
<clipPath id="clip0_1_412">
<rect width="41" height="41" fill="white" transform="translate(0.5 0.658691)"/>
</clipPath>
</defs>
</svg>
