<svg width="15" height="15" viewBox="0 0 15 15" fill="none" xmlns="http://www.w3.org/2000/svg">
<path d="M14.1538 1.02586V10.1817C14.1538 10.5146 13.884 10.7845 13.5511 10.7845C13.2182 10.7845 12.9483 10.5146 12.9483 10.1817V2.48122L1.02906 14.4004C0.91132 14.5181 0.757093 14.5769 0.60281 14.5769C0.448528 14.5769 0.2943 14.5181 0.176564 14.4004C-0.0588546 14.165 -0.0588546 13.7833 0.176564 13.5479L12.0958 1.62864H4.39524C4.06235 1.62864 3.79246 1.35875 3.79246 1.02586C3.79246 0.692967 4.06235 0.423077 4.39524 0.423077H13.5511C13.884 0.423049 14.1538 0.692967 14.1538 1.02586Z" fill="white"/>
</svg>
