<svg width="101" height="100" viewBox="0 0 101 100" fill="none" xmlns="http://www.w3.org/2000/svg">
<circle cx="50.1885" cy="50" r="50" fill="#46826B"/>
<path d="M59.1922 57.9535C59.6665 58.9654 60.1471 59.9899 60.6278 61.0145C61.9559 63.8414 61.0072 66.5545 58.2056 67.9395C54.4553 69.7925 50.705 71.6456 46.9547 73.5049C46.531 73.7136 46.1199 73.8717 45.7025 73.5428C45.2788 73.214 45.342 72.7776 45.4432 72.3222C46.0504 69.6028 46.6385 66.8834 47.2583 64.0501C46.9863 64.145 46.7903 64.2019 46.5942 64.2778C46.044 64.4928 45.5001 64.7584 44.9373 64.9229C44.2922 65.1126 43.9127 64.9039 43.6408 64.2904C42.0471 60.7109 39.4605 58.1432 35.8556 56.5938C35.2548 56.3345 35.0651 55.9993 35.1979 55.3479C35.2801 54.9368 35.4635 54.5384 35.6216 54.1463C35.7671 53.7668 35.9378 53.4 36.1465 52.9257C34.7995 53.2103 33.5536 53.4759 32.3077 53.7479C30.7456 54.0831 29.1835 54.4499 27.6151 54.7408C27.3052 54.7977 26.8878 54.6522 26.6222 54.4562C26.2997 54.2095 26.3566 53.7985 26.5337 53.4317C28.5068 49.4474 30.4421 45.4504 32.4532 41.4914C33.6168 39.2021 36.4185 38.323 38.8027 39.3918C39.9348 39.904 41.0542 40.4416 42.2368 40.9918C42.4012 40.7578 42.553 40.5301 42.7111 40.3025C44.5894 37.583 46.6575 35.0154 49.1429 32.8272C51.9762 30.3228 55.3281 28.7227 58.8886 27.5401C63.7646 25.9274 68.7861 25.1559 73.9088 24.9914C74.9206 24.9598 75.2179 25.2697 75.1863 26.2752C74.9965 31.4928 74.187 36.5901 72.549 41.561C70.7087 47.139 67.5086 51.7241 62.8097 55.2594C61.6207 56.1511 60.4317 57.0428 59.2048 57.9598L59.1922 57.9535ZM45.0068 62.937C45.108 62.9244 45.146 62.9244 45.1776 62.9117C46.0567 62.5513 46.9357 62.2034 47.8085 61.8303C52.4695 59.8381 56.9977 57.5867 61.0325 54.4688C64.5741 51.7368 67.4959 48.4798 69.4375 44.4069C69.5766 44.116 69.6083 43.8883 69.4565 43.5848C66.756 38.1838 62.7717 34.0162 57.5479 30.9932C56.7131 30.5125 56.0743 30.4999 55.2142 30.9489C50.8758 33.2003 47.4986 36.4889 44.7033 40.4353C41.6866 44.6978 39.5047 49.4031 37.5505 54.2159C37.4177 54.5384 37.2976 54.8609 37.1648 55.2214C38.8913 56.0499 40.4281 57.0934 41.7625 58.4089C43.1032 59.7243 44.172 61.2358 45.0132 62.937H45.0068ZM73.2953 26.7875C68.2865 27.0215 63.4358 27.9069 58.604 29.5386C61.1907 31.0437 63.4358 32.7703 65.4279 34.8193C67.4201 36.8621 69.0897 39.1451 70.481 41.6875C71.7522 39.2653 73.5483 29.7473 73.2953 26.7875ZM28.9432 52.5842C29.1393 52.5716 29.2341 52.5716 29.3227 52.5526C31.7575 52.0277 34.1923 51.5154 36.6209 50.9652C36.8106 50.9209 37.0066 50.6996 37.1015 50.5098C38.4296 47.9548 39.7451 45.3935 41.0605 42.8385C41.1174 42.731 41.168 42.6172 41.2376 42.4843C40.1751 41.9847 39.1569 41.4914 38.126 41.0298C36.4438 40.2645 34.7236 40.8906 33.8951 42.5539C32.9401 44.4828 31.9852 46.418 31.0365 48.3533C30.3535 49.732 29.6705 51.117 28.9432 52.5842ZM57.6933 58.8958C57.5542 58.9527 57.5036 58.9654 57.453 58.9907C54.8474 60.3378 52.2355 61.6785 49.6362 63.0445C49.4338 63.1521 49.2504 63.4303 49.1935 63.658C48.8394 65.1189 48.5295 66.5925 48.2069 68.066C47.9856 69.0716 47.7706 70.0835 47.5492 71.127C47.6757 71.108 47.7326 71.1143 47.7832 71.089C51.1351 69.4321 54.4932 67.7941 57.8261 66.1055C59.0973 65.4667 59.774 64.0058 59.3313 62.6524C58.9076 61.356 58.2562 60.1354 57.6997 58.8832L57.6933 58.8958Z" fill="white"/>
<path d="M35.2485 60.0786C37.3545 60.0723 39.1822 61.451 39.8589 63.5569C40.5166 65.6123 39.9284 67.7752 38.145 68.8883C36.0517 70.1911 33.8571 71.3295 31.6626 72.4678C30.0183 73.3216 28.3044 74.0615 26.6285 74.8584C26.1984 75.0608 25.8 75.0987 25.4522 74.7382C25.117 74.4031 25.1296 74.011 25.332 73.6062C27.0269 70.1974 28.7029 66.7823 30.4294 63.3862C30.7709 62.7158 31.2262 62.0771 31.7385 61.5205C32.6682 60.515 33.8888 60.0976 35.2485 60.0723V60.0786ZM27.8554 72.0884C27.9376 72.1643 28.0198 72.2465 28.102 72.3224C30.8784 70.8615 33.6548 69.4069 36.4185 67.9333C36.8232 67.7183 37.2153 67.4274 37.5189 67.0922C38.7395 65.7578 38.5118 63.6581 37.0699 62.5451C35.6532 61.451 33.5156 61.7166 32.6176 63.2723C30.9543 66.1689 29.4301 69.1413 27.8491 72.0884H27.8554Z" fill="white"/>
<path d="M55.5808 48.8147C52.8677 48.8147 50.8503 46.3546 51.3752 43.6857C52.0709 40.1189 54.6259 37.5955 58.1864 36.9694C61.026 36.4698 63.6253 39.0374 63.1889 41.8896C62.5375 46.1396 59.0212 48.7072 55.5872 48.8147H55.5808ZM53.0764 44.4636C53.0638 46.1332 54.5436 47.3412 56.188 47.0123C58.8947 46.4684 60.8742 44.4763 61.3928 41.7632C61.6332 40.492 60.8742 39.2271 59.641 38.8287C58.8694 38.5757 58.1358 38.7591 57.4022 39.0121C54.4994 40.0113 53.1903 42.6233 53.0764 44.4636Z" fill="white"/>
</svg>
