<svg width="100" height="100" viewBox="0 0 100 100" fill="none" xmlns="http://www.w3.org/2000/svg">
<circle cx="50" cy="50" r="50" fill="#46826B"/>
<path d="M27.2178 50.1958C29.0314 50.2426 30.8544 50.2085 32.6465 50.2085C33.2368 50.2085 33.5932 50.3578 33.8047 50.5688C33.9899 50.7538 34.127 51.0485 34.1602 51.5112L34.168 51.7192V53.7427L34.5859 53.812C35.3887 53.9458 36.018 53.9785 36.6543 54.1704C37.5889 54.4536 38.4883 54.8327 39.4326 55.2104L39.4355 55.2114C39.6811 55.3077 39.9304 55.4579 40.1992 55.6353L40.2002 55.6362C42.4664 57.1187 44.9491 57.724 47.5947 57.8315C50.0096 57.9298 52.4285 58.1724 54.8369 58.48C56.6325 58.7095 57.9265 60.1616 58.083 61.9985V62.0034C58.102 62.2032 58.1487 62.4826 58.3506 62.6958C58.5713 62.9288 58.8652 62.9708 59.1055 62.9673L59.1064 62.9683C59.3005 62.9657 59.498 62.9796 59.7246 62.9946C59.943 63.0091 60.1874 63.025 60.4355 63.0151L60.4414 63.0142C60.7843 62.9966 61.1095 62.8532 61.3516 62.6919C64.3568 60.6884 67.3572 58.6851 70.3574 56.6636C71.1101 56.157 71.8608 55.9883 72.6641 56.228L72.8252 56.2817C74.6202 56.9318 75.0907 59.1954 73.6562 60.5425C72.8986 61.2508 72.1298 61.9466 71.3564 62.6401L69.0273 64.7231C67.5902 66.016 66.0874 67.3007 64.6709 68.6587C63.3953 69.878 61.9073 70.5412 60.1738 70.8306L59.8242 70.8833C55.5992 71.4486 51.3794 72.0547 47.1709 72.7134C45.4771 72.9757 43.9435 72.9937 42.4756 72.2544H42.4746C41.9364 71.9825 41.3134 71.8 40.8359 71.6216H40.835L35.4629 69.5845C35.2684 69.5093 35.0633 69.4441 34.9014 69.3901L34.5078 69.2593L34.3066 69.6226C34.3095 69.6174 34.3168 69.6064 34.2969 69.6343C34.2908 69.6428 34.266 69.6772 34.2441 69.7202C34.2224 69.7632 34.1911 69.8397 34.1865 69.9399H34.1855C34.1492 70.6973 33.9998 71.0591 33.7988 71.2524C33.599 71.4445 33.2357 71.5776 32.4834 71.5776C30.9736 71.5776 29.4352 71.5472 27.9004 71.5786L27.2432 71.5962C26.7616 71.6119 26.4051 71.5382 26.1357 71.3892C25.8937 71.2552 25.6824 71.0372 25.5117 70.6753V51.1167C25.6722 50.7632 25.8781 50.5472 26.1143 50.4126C26.3827 50.2596 26.7406 50.1828 27.2178 50.1958ZM27.0674 50.6646C26.8018 50.6646 26.4646 50.7034 26.2217 50.9595C25.9857 51.2083 25.9561 51.542 25.9561 51.7935V51.7944C25.9677 57.8622 25.9677 63.9357 25.9561 70.0034V70.0044C25.9561 70.2749 25.9955 70.6199 26.2617 70.8608C26.515 71.0899 26.8497 71.1068 27.083 71.104L27.084 71.105C28.9037 71.0875 30.7207 71.0991 32.5479 71.0991C32.6983 71.0991 32.8536 71.0992 32.9805 71.0845C33.1046 71.07 33.3067 71.0316 33.4697 70.8687C33.6326 70.7058 33.6711 70.5036 33.6855 70.3794C33.7003 70.2526 33.7002 70.0972 33.7002 69.9468V60.2319C33.7002 60.0335 33.6915 59.9644 33.7051 59.8804C33.7289 59.7603 33.7676 59.7116 33.7861 59.6948C33.7983 59.6839 33.8319 59.6578 33.9316 59.6606H33.9385C34.0306 59.6621 34.0653 59.6873 34.0801 59.7007C34.0996 59.7185 34.1376 59.7659 34.1602 59.8804L34.1611 59.8853C34.1648 59.9031 34.1676 59.9344 34.167 59.9946C34.1667 60.0245 34.1663 60.0553 34.165 60.0942C34.1639 60.1308 34.1621 60.1749 34.1621 60.2202C34.1621 62.7435 34.1679 65.2634 34.1562 67.7837V67.7856C34.1562 67.9956 34.1846 68.241 34.332 68.4614C34.4819 68.6853 34.7021 68.8051 34.9141 68.8833C37.818 69.9657 40.7168 71.0661 43.6162 72.1724L43.6172 72.1733C44.3504 72.4508 45.0824 72.5081 45.8252 72.4048L45.8281 72.4038C50.513 71.7279 55.186 71.0353 59.8721 70.3892H59.873C61.5576 70.1563 63.0471 69.5485 64.3135 68.3325L64.3145 68.3335C65.5201 67.1801 66.7744 66.1091 68.0303 64.9712C69.7814 63.3946 71.5426 61.82 73.291 60.229H73.292C74.0402 59.5468 74.2336 58.607 73.8193 57.7397L73.8184 57.7358L73.7393 57.5884C73.3187 56.868 72.5197 56.447 71.6318 56.6069H71.6279C71.2269 56.6826 70.86 56.8792 70.5693 57.0786C67.4825 59.1346 64.4005 61.191 61.3242 63.2651C61.0477 63.4507 60.7955 63.5153 60.4609 63.4849H60.46C59.6198 63.4106 58.7101 63.3122 57.8115 63.355C55.6027 63.4599 53.3741 63.642 51.1836 63.7749C49.8943 63.8535 48.6033 63.9287 47.3125 64.0015L43.4424 64.2114C42.6981 64.249 42.0765 63.9466 41.5381 63.3726L41.5352 63.3706L41.4746 63.2964C41.4261 63.2257 41.4127 63.1663 41.4111 63.1274C41.4093 63.08 41.4237 63.0307 41.4727 62.981C41.5251 62.9303 41.5751 62.9172 41.6201 62.9194C41.6568 62.9213 41.7133 62.9348 41.7803 62.9829L41.8506 63.0435C42.3769 63.5757 42.9972 63.7903 43.7246 63.7476H43.7266C47.6858 63.4972 51.651 63.2578 55.6113 63.019C56.13 62.9896 56.6476 62.9494 57.1533 62.9087L57.585 62.8735L57.6123 62.4419C57.7288 60.6179 56.3349 59.013 54.5029 58.8491C51.8104 58.6054 49.087 58.3185 46.3682 58.1606H46.3672C44.4868 58.0536 42.7669 57.6044 41.1758 56.6675C40.465 56.247 39.7387 55.8629 39.0176 55.4849L39.0156 55.4839L38.5117 55.2388C37.325 54.6998 36.0647 54.3924 34.6953 54.3335L34.3711 54.3198L34.2266 54.6099L34.168 54.7271V56.3765C34.168 56.601 34.1168 56.7041 34.0879 56.7407C34.0717 56.7613 34.0431 56.7892 33.9453 56.7905L33.9395 56.7915C33.8373 56.794 33.8085 56.7642 33.792 56.7437C33.7609 56.705 33.7061 56.5958 33.7061 56.3589V51.8159C33.7061 51.6695 33.7047 51.5191 33.6875 51.3911C33.6703 51.2636 33.628 51.0748 33.4785 50.9185C33.3258 50.759 33.1364 50.7095 33.0049 50.6899C32.8761 50.6708 32.7256 50.6694 32.583 50.6694C30.7384 50.6694 28.9095 50.682 27.0723 50.6646H27.0674Z" fill="white" stroke="white"/>
<path d="M57.1313 27.1216C57.6661 27.1216 57.919 27.2163 58.062 27.3403C58.2061 27.4653 58.338 27.7056 58.4194 28.2397C58.7756 30.5927 59.9841 32.3534 62.0239 33.4683L62.4429 33.6831C62.9034 33.9025 63.1348 34.098 63.2554 34.2993C63.3708 34.4922 63.43 34.7681 63.3677 35.2534V35.2544C62.3918 42.9807 59.1741 49.3252 52.478 53.5786L52.4761 53.5796C52.1939 53.7604 51.8956 53.9243 51.5825 54.0913C51.2744 54.2557 50.9443 54.426 50.6265 54.6089L50.6255 54.6099C50.4355 54.72 50.2756 54.7597 50.1265 54.7593C49.9725 54.7588 49.7945 54.7154 49.5718 54.6089H49.5708C43.7258 51.7677 39.9835 47.1164 37.8843 41.019C37.2438 39.1605 36.8095 37.246 36.604 35.2935V35.2915L36.5933 35.1636C36.5793 34.8743 36.6318 34.6454 36.729 34.4644C36.839 34.2596 37.0286 34.0749 37.3384 33.9292L37.3394 33.9282C39.8254 32.7536 41.2321 30.7867 41.5308 28.0513C41.5618 27.7699 41.6745 27.5734 41.8286 27.4438C41.9863 27.3115 42.2256 27.2166 42.5571 27.2144H50.4731V27.1216H57.1313ZM42.02 28.0425C42.008 28.0955 41.9978 28.13 41.9858 28.1753C41.9763 28.2116 41.9616 28.2679 41.9536 28.3345C41.5685 31.102 40.1561 33.0815 37.6274 34.2827L37.6226 34.2856C37.4135 34.3879 37.2228 34.5444 37.1216 34.7866C37.0261 35.0153 37.0435 35.2442 37.0776 35.4224L37.0786 35.4282C37.3095 36.5679 37.4865 37.8152 37.7808 39.0093L37.9146 39.5181C39.6339 45.589 43.0154 50.4546 48.6401 53.604C48.9362 53.7697 49.1879 53.9107 49.4038 54.0073C49.6265 54.1069 49.8546 54.1791 50.1079 54.1772C50.3611 54.1753 50.5879 54.1003 50.8101 53.9966C51.0258 53.8958 51.2763 53.749 51.5718 53.5757L51.5728 53.5747C58.5784 49.4487 61.8811 43.0329 62.9038 35.2729C62.9415 34.9924 62.9052 34.715 62.731 34.4761C62.5747 34.2618 62.3497 34.1434 62.1802 34.0649C60.2421 33.1495 58.9315 31.6889 58.271 29.6528L58.27 29.6519C58.0967 29.1205 58.0133 28.6066 57.8735 28.0347L57.7798 27.6528H42.1079L42.02 28.0425Z" fill="white" stroke="white"/>
<path d="M29.6748 64.6162C30.8508 64.6068 31.792 65.539 31.792 66.6963C31.792 67.8406 30.823 68.8033 29.6807 68.7939C28.5439 68.7844 27.6201 67.8524 27.6143 66.7021C27.6143 65.5478 28.5247 64.6257 29.6748 64.6162ZM29.7178 65.084C28.8185 65.072 28.1047 65.7605 28.0879 66.6582C28.0714 67.5685 28.7817 68.3262 29.7061 68.3262C30.583 68.3261 31.3216 67.584 31.3301 66.7129C31.338 65.8762 30.705 65.1917 29.8965 65.0957L29.7324 65.084H29.7178Z" fill="white" stroke="white"/>
<path d="M55.2388 29.8823C55.6167 29.8824 55.7705 29.9381 55.856 29.9995C55.9421 30.0615 56.0447 30.1912 56.1685 30.5513C56.8296 32.4887 57.9871 34.0636 59.6499 35.2261L59.9888 35.4526C60.2413 35.6145 60.3704 35.7622 60.4331 35.8979C60.4922 36.026 60.5184 36.2 60.4536 36.4702V36.4712C60.3726 36.8134 60.3039 37.1573 60.2378 37.4917C60.1713 37.8277 60.1072 38.1537 60.0337 38.4761C59.992 38.6549 59.9228 38.7356 59.8823 38.7661C59.8505 38.79 59.8081 38.8065 59.7319 38.7896V38.7886L59.6704 38.77C59.6201 38.7489 59.5996 38.7221 59.5874 38.6987C59.5641 38.6541 59.5353 38.546 59.5776 38.3442C59.6786 37.8659 59.8361 37.2879 59.9146 36.7388L59.9155 36.7339C59.9414 36.539 59.899 36.3389 59.8413 36.186C59.7859 36.0394 59.6798 35.8384 59.4937 35.7065L59.4917 35.7056C57.8961 34.5844 56.7212 33.1464 55.9771 31.3706L55.8345 31.0112C55.7754 30.8529 55.6793 30.6568 55.4868 30.5161C55.337 30.4066 55.1729 30.3627 55.0181 30.3491L54.8716 30.3442C51.5778 30.3791 48.2633 30.3904 44.9585 30.4312C44.7352 30.4332 44.5447 30.5436 44.4341 30.6255C44.3215 30.7089 44.1716 30.8526 44.1001 31.0493C43.3717 33.0176 42.1637 34.6025 40.4624 35.8257L40.4565 35.8296C40.2687 35.9686 40.171 36.1795 40.1226 36.3228C40.0706 36.4765 40.0353 36.6716 40.0601 36.8569L40.061 36.8638C40.103 37.1455 40.1672 37.4369 40.2339 37.7183L40.4224 38.5151C40.4567 38.6792 40.432 38.7699 40.4116 38.8101C40.3952 38.8422 40.3643 38.8782 40.2827 38.9019C40.2332 38.9158 40.1852 38.9089 40.1392 38.8794C40.1035 38.8566 40.0601 38.8137 40.0269 38.7407L39.9976 38.6567C39.8513 38.0756 39.7178 37.4877 39.5972 36.8979L39.481 36.3071C39.4377 36.073 39.5166 35.891 39.7192 35.7612C41.6193 34.5442 42.9443 32.8888 43.6929 30.7896L43.8345 30.3638C43.885 30.2018 43.9653 30.1139 44.0571 30.0581C44.1588 29.9964 44.3125 29.9527 44.5337 29.9526H50.4497V29.8823H55.2388Z" fill="white" stroke="white"/>
<path d="M58.7544 41.4976L58.8101 41.5161C58.8992 41.5548 58.9235 41.5977 58.9331 41.6265C58.9427 41.6553 58.9511 41.7149 58.9263 41.811L58.8892 41.9194C57.9989 44.0366 56.8386 45.9745 55.3247 47.687C53.9572 49.2304 52.3751 50.5178 50.5835 51.5327L50.5796 51.5347C50.4324 51.6199 50.305 51.6641 50.1089 51.7417C50.0392 51.7195 49.9753 51.6979 49.9263 51.6821C49.8225 51.6487 49.7532 51.6215 49.6997 51.5923C45.7309 49.4088 42.9553 46.1562 41.1665 42.0034H41.1675C41.0957 41.8358 41.1067 41.7414 41.1187 41.7046C41.127 41.6789 41.1489 41.6357 41.2437 41.5962H41.2446C41.3267 41.5617 41.3707 41.5729 41.3999 41.5874C41.4297 41.6022 41.4817 41.6411 41.5376 41.7319L41.5942 41.8413C42.5666 44.0695 43.8208 46.1504 45.5786 47.8774L45.937 48.2183C47.0022 49.1947 48.2766 50.0299 49.3521 50.8657C49.5836 51.0458 49.844 51.1473 50.1353 51.1245C50.3981 51.1039 50.6223 50.9849 50.7935 50.8804L50.7954 50.8784C54.2061 48.7721 56.6333 45.8339 58.2544 42.2134C58.2978 42.1199 58.3373 42.0232 58.3687 41.9478L58.4604 41.7437L58.4663 41.7329C58.5415 41.5785 58.6161 41.523 58.6538 41.5054C58.6746 41.4957 58.705 41.4866 58.7544 41.4976Z" fill="white" stroke="white"/>
<path d="M54.5088 35.9028C54.521 35.9013 54.5624 35.8981 54.6436 35.9546L54.6465 35.9565C54.7332 36.016 54.7542 36.0624 54.7598 36.0806C54.764 36.0945 54.7745 36.1385 54.7314 36.2319L54.7275 36.2417C54.6901 36.3279 54.6337 36.4137 54.5479 36.5425V36.5435C53.0394 38.8207 51.5307 41.0976 50.0225 43.3687V43.3696C49.9128 43.5354 49.8266 43.6335 49.7617 43.689C49.7309 43.7153 49.7089 43.7283 49.6973 43.7339C49.6919 43.7364 49.6882 43.7373 49.6865 43.7378C49.6855 43.7381 49.6849 43.7387 49.6846 43.7388C49.6844 43.7388 49.6828 43.7389 49.6807 43.7388C49.6784 43.7386 49.6744 43.7373 49.668 43.7358C49.654 43.7326 49.6283 43.7244 49.5908 43.7046C49.5122 43.663 49.4036 43.5837 49.2568 43.4448H49.2559C48.3593 42.5948 47.463 41.744 46.5664 40.894H46.5654C46.405 40.7392 46.3626 40.6227 46.3555 40.5669C46.3508 40.5302 46.3554 40.4881 46.416 40.4263C46.4935 40.3502 46.5334 40.352 46.5537 40.354C46.5966 40.3582 46.705 40.391 46.877 40.5513C47.6354 41.2631 48.379 41.9723 49.1816 42.728L49.3262 42.8638H49.7988L49.9473 42.6401C51.3743 40.4909 52.7546 38.4056 54.1348 36.3208L54.1367 36.3179C54.2404 36.1589 54.2949 36.0667 54.3652 35.9927C54.4413 35.9167 54.4916 35.905 54.5088 35.9028Z" fill="white" stroke="white"/>
<path d="M40.2529 38.689C40.2529 38.689 40.5733 40.3721 41.9652 43.1502L40.2529 38.689Z" fill="white"/>
<path d="M40.2529 38.689C40.2529 38.689 40.5733 40.3721 41.9652 43.1502" stroke="white" stroke-width="2.5" stroke-miterlimit="10" stroke-linecap="round"/>
<path d="M59.921 37.9609C59.921 37.9609 59.6764 39.6615 58.4126 42.492L59.921 37.9609Z" fill="white"/>
<path d="M59.921 37.9609C59.921 37.9609 59.6764 39.6615 58.4126 42.492" stroke="white" stroke-width="2.5" stroke-miterlimit="10" stroke-linecap="round"/>
</svg>
