<svg width="100" height="100" viewBox="0 0 100 100" fill="none" xmlns="http://www.w3.org/2000/svg">
<circle cx="50" cy="50" r="50" fill="white"/>
<path d="M25 36.5144C25.2856 36.0945 25.6887 35.9993 26.1758 36.0161C27.5476 36.0609 28.8745 35.8537 30.0503 35.0867C31.4837 34.146 32.1388 32.7239 32.4075 31.0945C32.4971 30.5346 32.5083 29.9635 32.5419 29.398C32.5755 28.8213 32.8611 28.4966 33.3482 28.4966C33.8297 28.4966 34.0816 28.8381 34.1544 29.4092C34.2776 30.4171 34.328 31.4641 34.6415 32.4215C35.3638 34.6555 37.1611 35.8817 39.6471 36.0105C40.0502 36.0329 40.4589 36.0161 40.8677 36.0329C41.3548 36.0497 41.6851 36.3744 41.6907 36.8168C41.6907 37.2703 41.3772 37.567 40.8789 37.6174C39.8823 37.7238 38.8856 37.8358 37.8946 37.9814C37.6314 38.0205 37.3795 38.1717 37.1275 38.2781C36.5844 38.5077 36.1757 38.4181 35.9853 38.0261C35.7893 37.6286 35.9685 37.2479 36.478 36.9679C36.534 36.9343 36.59 36.9063 36.7244 36.828C35.1567 36.0609 34.0536 34.9019 33.365 33.239C32.6427 34.8459 31.5901 36.0497 29.9552 36.8168C31.5677 37.5894 32.6483 38.7708 33.3426 40.3833C33.4433 40.1874 33.5105 40.0474 33.5889 39.913C33.8241 39.4931 34.188 39.3531 34.5632 39.5267C34.9439 39.7059 35.0559 40.0586 34.9159 40.5177C34.6807 41.2904 34.4232 42.0631 34.2496 42.8469C34.1488 43.3004 34.1824 43.7876 34.1544 44.2579C34.1208 44.8234 33.8129 45.1649 33.337 45.1593C32.8723 45.1593 32.5419 44.801 32.5419 44.2355C32.5419 43.0205 32.3907 41.8391 31.87 40.7249C31.019 38.894 29.5408 37.9422 27.5812 37.6958C27.0829 37.6342 26.5733 37.6062 26.0694 37.623C25.6047 37.6342 25.252 37.4998 25.0056 37.1023V36.5144H25Z" fill="#46826B"/>
<path d="M56.5393 60.4557C58.023 54.6047 61.4328 50.6238 67.4518 48.9777C61.416 47.354 58.0398 43.3282 56.5281 37.3989C55.0051 43.3226 51.6513 47.326 45.6435 48.9777C45.9291 49.0785 46.1082 49.1512 46.293 49.2016C48.1127 49.7224 49.7644 50.5734 51.2538 51.7436C51.6961 52.0907 51.8137 52.5107 51.5505 52.869C51.2874 53.2273 50.8338 53.2721 50.3915 52.9138C48.3087 51.2509 45.9179 50.3494 43.2975 50.0415C42.1721 49.9127 41.0243 49.9239 39.8877 49.8791C39.5462 49.8679 39.199 49.8959 38.8631 49.8623C38.3592 49.8063 38.0456 49.4144 38.068 48.9217C38.0904 48.4402 38.404 48.1098 38.9191 48.093C39.9941 48.0594 41.0691 48.093 42.1385 48.0258C45.386 47.8075 48.3591 46.85 50.8338 44.6384C52.9783 42.7236 54.2492 40.2824 54.9771 37.5388C55.4418 35.7863 55.6602 33.9946 55.6322 32.1806C55.6322 31.923 55.621 31.6599 55.6378 31.4023C55.677 30.8536 56.0297 30.512 56.5448 30.5176C57.0432 30.5176 57.4015 30.8872 57.4183 31.4303C57.4519 32.3877 57.4407 33.3508 57.5247 34.3082C57.7654 37.0685 58.5157 39.6777 60.0107 42.0293C61.9479 45.0751 64.7586 46.8948 68.258 47.6115C69.5738 47.8803 70.9344 47.9307 72.2725 48.0482C72.8716 48.0986 73.4763 48.0482 74.081 48.0762C74.6633 48.1042 75.0161 48.4794 74.9993 49.0057C74.9881 49.504 74.6297 49.8567 74.0698 49.8735C73.1124 49.8959 72.1494 49.8511 71.1919 49.9071C68.5268 50.0695 65.9904 50.6798 63.7172 52.1635C61.2368 53.7817 59.5963 56.0437 58.5829 58.7928C57.7654 61.0156 57.4407 63.328 57.4239 65.6852C57.4239 65.9764 57.4351 66.2731 57.4127 66.5643C57.3623 67.1242 56.9984 67.4713 56.5001 67.4489C55.9961 67.4265 55.6658 67.0738 55.6378 66.5139C55.5818 65.3941 55.5874 64.2687 55.4642 63.1544C55.1675 60.4557 54.378 57.9081 52.8495 55.6293C52.7935 55.5509 52.7431 55.467 52.6983 55.383C52.4855 54.9742 52.5695 54.5711 52.9055 54.3528C53.2414 54.14 53.6949 54.2184 53.9189 54.6103C54.49 55.6125 55.0779 56.6092 55.5538 57.6506C55.9514 58.5184 56.1921 59.4535 56.5393 60.4501V60.4557Z" fill="#46826B"/>
<path d="M41.8083 59.5937C41.0916 61.2175 40.0278 62.3988 38.4097 63.1659C40.0166 63.9274 41.0916 65.1032 41.8139 66.7549C42.5194 65.1144 43.5888 63.9274 45.1957 63.1827C45.0053 63.0763 44.8933 63.0259 44.787 62.9588C44.4286 62.7236 44.2999 62.3317 44.4622 61.9901C44.6246 61.6486 45.0109 61.5086 45.4253 61.6542C45.9628 61.8389 46.4835 62.1021 47.0322 62.1973C47.7657 62.3261 48.5159 62.3373 49.2662 62.3877C49.8261 62.4212 50.134 62.6844 50.1396 63.1603C50.1452 63.6586 49.8149 63.9274 49.255 63.9778C48.2864 64.0674 47.2897 64.073 46.3659 64.3417C44.2103 64.9744 43.1745 66.6261 42.7881 68.737C42.6705 69.3753 42.6425 70.0303 42.5922 70.6742C42.553 71.2005 42.2954 71.4917 41.8307 71.5029C41.338 71.5141 41.0244 71.2173 41.0188 70.6742C41.0076 69.392 40.8341 68.1547 40.2797 66.9789C39.4623 65.2432 38.0513 64.3585 36.2204 64.0786C35.6101 63.9834 34.9886 64.0002 34.3727 63.9722C33.8072 63.9498 33.4825 63.6586 33.4881 63.1603C33.4937 62.6788 33.8017 62.438 34.3616 62.3877C35.2966 62.3037 36.2652 62.3037 37.1555 62.0517C39.3055 61.447 40.4141 59.8513 40.8229 57.7293C40.946 57.0798 40.974 56.4079 41.0188 55.7416C41.058 55.1761 41.3436 54.8401 41.8307 54.8513C42.301 54.8625 42.6033 55.1817 42.5977 55.7304C42.5865 57.0014 42.8105 58.2164 43.3312 59.381C43.5664 59.9017 43.4432 60.3216 43.0345 60.5064C42.6201 60.6911 42.2618 60.5064 41.9987 59.9745C41.9539 59.8849 41.9147 59.8009 41.8139 59.6105L41.8083 59.5937Z" fill="#46826B"/>
</svg>
